<svg width="50" height="50" viewBox="0 0 50 50" fill="none" xmlns="http://www.w3.org/2000/svg">
<circle cx="25" cy="25" r="25" fill="#E5EBF0"/>
<circle cx="25" cy="25" r="16" fill="#001D3D"/>
<path d="M25.0001 16.667C20.4051 16.667 16.6667 20.4054 16.6667 25.0003C16.6667 29.5953 20.4051 33.3337 25.0001 33.3337C29.5951 33.3337 33.3334 29.5953 33.3334 25.0003C33.3334 20.4054 29.5951 16.667 25.0001 16.667ZM25.0001 17.917C28.9195 17.917 32.0834 21.0809 32.0834 25.0003C32.0834 28.9197 28.9195 32.0837 25.0001 32.0837C21.0807 32.0837 17.9167 28.9197 17.9167 25.0003C17.9167 21.0809 21.0807 17.917 25.0001 17.917ZM25.0001 20.8337C24.7791 20.8337 24.5671 20.9215 24.4108 21.0777C24.2545 21.234 24.1667 21.446 24.1667 21.667C24.1667 21.888 24.2545 22.1 24.4108 22.2562C24.5671 22.4125 24.7791 22.5003 25.0001 22.5003C25.2211 22.5003 25.4331 22.4125 25.5893 22.2562C25.7456 22.1 25.8334 21.888 25.8334 21.667C25.8334 21.446 25.7456 21.234 25.5893 21.0777C25.4331 20.9215 25.2211 20.8337 25.0001 20.8337ZM24.9903 23.7414C24.8247 23.744 24.6669 23.8122 24.5515 23.931C24.4362 24.0499 24.3727 24.2097 24.3751 24.3753V28.9587C24.3739 29.0415 24.3892 29.1237 24.4201 29.2006C24.451 29.2774 24.4968 29.3474 24.555 29.4063C24.6131 29.4653 24.6824 29.5122 24.7588 29.5441C24.8353 29.5761 24.9173 29.5926 25.0001 29.5926C25.0829 29.5926 25.1649 29.5761 25.2413 29.5441C25.3177 29.5122 25.387 29.4653 25.4452 29.4063C25.5033 29.3474 25.5492 29.2774 25.5801 29.2006C25.611 29.1237 25.6263 29.0415 25.6251 28.9587V24.3753C25.6263 24.2917 25.6107 24.2086 25.5792 24.1311C25.5477 24.0536 25.501 23.9832 25.4418 23.9241C25.3826 23.865 25.3121 23.8183 25.2346 23.787C25.157 23.7556 25.074 23.7401 24.9903 23.7414Z" fill="white"/>
</svg>
