<svg width="50" height="50" viewBox="0 0 50 50" fill="none" xmlns="http://www.w3.org/2000/svg">
<circle cx="25" cy="25" r="25" fill="#E5EBF0"/>
<circle cx="25" cy="25" r="16" fill="#001D3D"/>
<path d="M24.9999 16.25C22.476 16.25 20.4166 18.3094 20.4166 20.8333C20.4166 23.3572 22.476 25.4167 24.9999 25.4167C27.5238 25.4167 29.5833 23.3572 29.5833 20.8333C29.5833 18.3094 27.5238 16.25 24.9999 16.25ZM24.9999 17.5C26.8483 17.5 28.3333 18.985 28.3333 20.8333C28.3333 22.6817 26.8483 24.1667 24.9999 24.1667C23.1516 24.1667 21.6666 22.6817 21.6666 20.8333C21.6666 18.985 23.1516 17.5 24.9999 17.5ZM20.2083 27.0833C19.1801 27.0833 18.3333 27.9302 18.3333 28.9583V29.458C18.3333 30.6834 19.1102 31.7825 20.2953 32.5382C21.4804 33.294 23.1019 33.75 24.9999 33.75H25.2083C25.2911 33.7512 25.3733 33.7359 25.4502 33.705C25.527 33.6741 25.597 33.6283 25.6559 33.5701C25.7149 33.5119 25.7618 33.4427 25.7937 33.3662C25.8257 33.2898 25.8422 33.2078 25.8422 33.125C25.8422 33.0422 25.8257 32.9602 25.7937 32.8838C25.7618 32.8073 25.7149 32.7381 25.6559 32.6799C25.597 32.6217 25.527 32.5759 25.4502 32.545C25.3733 32.5141 25.2911 32.4988 25.2083 32.5H24.9999C23.3046 32.5 21.9049 32.0822 20.9675 31.4844C20.0301 30.8866 19.5833 30.1518 19.5833 29.458V28.9583C19.5833 28.6056 19.8555 28.3333 20.2083 28.3333H25.2083C25.2911 28.3345 25.3733 28.3192 25.4502 28.2883C25.527 28.2574 25.597 28.2116 25.6559 28.1534C25.7149 28.0953 25.7618 28.026 25.7937 27.9496C25.8257 27.8732 25.8422 27.7912 25.8422 27.7083C25.8422 27.6255 25.8257 27.5435 25.7937 27.4671C25.7618 27.3907 25.7149 27.3214 25.6559 27.2632C25.597 27.2051 25.527 27.1592 25.4502 27.1283C25.3733 27.0975 25.2911 27.0822 25.2083 27.0833H20.2083ZM27.7083 27.0833C27.6254 27.0822 27.5432 27.0975 27.4664 27.1283C27.3895 27.1592 27.3195 27.2051 27.2606 27.2632C27.2016 27.3214 27.1547 27.3907 27.1228 27.4671C27.0908 27.5435 27.0744 27.6255 27.0744 27.7083C27.0744 27.7912 27.0908 27.8732 27.1228 27.9496C27.1547 28.026 27.2016 28.0953 27.2606 28.1534C27.3195 28.2116 27.3895 28.2574 27.4664 28.2883C27.5432 28.3192 27.6254 28.3345 27.7083 28.3333H33.5416C33.6244 28.3345 33.7066 28.3192 33.7835 28.2883C33.8603 28.2574 33.9303 28.2116 33.9893 28.1534C34.0483 28.0953 34.0951 28.026 34.1271 27.9496C34.159 27.8732 34.1755 27.7912 34.1755 27.7083C34.1755 27.6255 34.159 27.5435 34.1271 27.4671C34.0951 27.3907 34.0483 27.3214 33.9893 27.2632C33.9303 27.2051 33.8603 27.1592 33.7835 27.1283C33.7066 27.0975 33.6244 27.0822 33.5416 27.0833H27.7083ZM27.7083 29.5833C27.6254 29.5822 27.5432 29.5975 27.4664 29.6283C27.3895 29.6592 27.3195 29.7051 27.2606 29.7632C27.2016 29.8214 27.1547 29.8907 27.1228 29.9671C27.0908 30.0435 27.0744 30.1255 27.0744 30.2083C27.0744 30.2912 27.0908 30.3732 27.1228 30.4496C27.1547 30.526 27.2016 30.5953 27.2606 30.6534C27.3195 30.7116 27.3895 30.7574 27.4664 30.7883C27.5432 30.8192 27.6254 30.8345 27.7083 30.8333H31.8749C31.9577 30.8345 32.04 30.8192 32.1168 30.7883C32.1937 30.7574 32.2636 30.7116 32.3226 30.6534C32.3816 30.5953 32.4284 30.526 32.4604 30.4496C32.4924 30.3732 32.5088 30.2912 32.5088 30.2083C32.5088 30.1255 32.4924 30.0435 32.4604 29.9671C32.4284 29.8907 32.3816 29.8214 32.3226 29.7632C32.2636 29.7051 32.1937 29.6592 32.1168 29.6283C32.04 29.5975 31.9577 29.5822 31.8749 29.5833H27.7083ZM27.7083 32.0833C27.6254 32.0822 27.5432 32.0975 27.4664 32.1283C27.3895 32.1592 27.3195 32.2051 27.2606 32.2632C27.2016 32.3214 27.1547 32.3907 27.1228 32.4671C27.0908 32.5435 27.0744 32.6255 27.0744 32.7083C27.0744 32.7912 27.0908 32.8732 27.1228 32.9496C27.1547 33.026 27.2016 33.0953 27.2606 33.1534C27.3195 33.2116 27.3895 33.2574 27.4664 33.2883C27.5432 33.3192 27.6254 33.3345 27.7083 33.3333H33.5416C33.6244 33.3345 33.7066 33.3192 33.7835 33.2883C33.8603 33.2574 33.9303 33.2116 33.9893 33.1534C34.0483 33.0953 34.0951 33.026 34.1271 32.9496C34.159 32.8732 34.1755 32.7912 34.1755 32.7083C34.1755 32.6255 34.159 32.5435 34.1271 32.4671C34.0951 32.3907 34.0483 32.3214 33.9893 32.2632C33.9303 32.2051 33.8603 32.1592 33.7835 32.1283C33.7066 32.0975 33.6244 32.0822 33.5416 32.0833H27.7083Z" fill="white"/>
</svg>
