<svg width="220" height="277" viewBox="0 0 220 277" fill="none" xmlns="http://www.w3.org/2000/svg">
<path d="M154.133 132.797C133.647 144.997 108.655 130.622 109.829 130.372C148.558 121.951 151.98 97.5174 151.98 97.5174C144.248 78.6257 123.173 84.7074 123.173 84.7074C122.563 111.517 90.6538 113.027 90.6538 113.027C88.6042 104.328 88.717 84.0181 88.717 84.0181C79.0455 77.2562 77.0874 80.1263 77.0874 80.1263C80.1374 53.2863 92.4198 44.6334 92.4198 44.6334C94.4663 42.7272 103.613 38.4419 108.31 37.8868L108.478 38.631C108.478 38.631 103.729 50.4894 112.83 51.2702C120.489 51.9412 124.841 42.5137 126.028 39.5216C135.986 42.6082 145.49 49.5165 151.812 61.137C166.77 88.6297 154.133 132.797 154.133 132.797Z" fill="#020D18"/>
<path d="M156.347 121.228L206.127 154.168C215.78 160.555 214.538 175.091 203.952 179.748L145.697 205.387C140.279 207.771 134.339 208.72 128.448 208.143C122.558 207.567 116.914 205.484 112.061 202.096L89.6897 186.455" stroke="#020D18" stroke-width="1.63348" stroke-miterlimit="10"/>
<path d="M156.348 131.851L154.673 130.74L206.136 164.785C215.789 171.171 214.548 185.708 203.961 190.365L145.706 216.003C140.289 218.387 134.349 219.336 128.458 218.76C122.567 218.183 116.924 216.101 112.071 212.712L83.6267 192.454" stroke="#020D18" stroke-width="1.63348" stroke-miterlimit="10"/>
<path d="M199.667 177.93L146.124 201.498C141.145 203.687 135.686 204.56 130.272 204.03C124.858 203.5 119.672 201.586 115.212 198.472L94.6948 184.058C97.5197 181.893 100.685 180.213 104.061 179.086C112.519 176.213 120.773 172.772 128.766 168.786C134.834 165.785 140.165 161.48 144.376 156.179C148.588 150.879 151.577 144.714 153.13 138.125C154.203 133.565 155.146 128.953 155.917 124.317L203.04 155.467C211.909 161.335 209.393 173.654 199.667 177.93Z" fill="#001D3D"/>
<path d="M61.6999 246.232C61.6999 246.232 71.0878 242.34 72.8873 239.406C72.8873 239.406 73.2258 246.067 71.469 248.342C69.7122 250.618 59.2141 256.632 58.6499 255.879C58.0856 255.126 61.6999 246.232 61.6999 246.232Z" fill="#001D3D"/>
<path d="M32.8012 262.105C32.8012 262.105 34.5092 264.423 40.5696 262.105C46.6299 259.787 59.8151 251.25 59.8151 251.25C59.8151 251.25 56.1368 261.126 54.8039 262.211C53.4711 263.297 28.2903 275.631 28.2903 275.631C28.2903 275.631 17.0327 277.233 21.2753 269.226L32.8012 262.105Z" fill="#001D3D"/>
<path d="M69.0413 133.065C55.1638 138.466 40.478 151.157 44.7023 186.303L45.8765 195.434" stroke="#020D18" stroke-width="1.63348" stroke-miterlimit="10"/>
<path d="M69.02 110.113C71.2892 106.874 73.3388 103.373 74.5954 99.6029C75.852 95.8331 75.9161 91.7491 76.2668 87.7841C77.2001 77.1518 78.6458 68.3587 82.7481 58.4553C86.3013 49.8848 97.0343 38.8438 107.712 37.7977L108.673 37.7153" stroke="#020D18" stroke-width="1.63348" stroke-miterlimit="10"/>
<path d="M95.8603 132.287C95.8084 132.137 95.7566 131.997 95.7017 131.851" stroke="#020D18" stroke-width="1.63348" stroke-miterlimit="10"/>
<path d="M90.6536 112.367C90.129 109.284 89.7386 106.295 89.4336 103.458C89.4345 103.405 89.4284 103.351 89.4153 103.3C87.8171 87.4609 89.4336 75.938 89.4336 75.938" stroke="#020D18" stroke-width="1.63348" stroke-miterlimit="10"/>
<path d="M127.959 16.238L125.519 17.1897C125.519 17.266 125.519 18.2176 125.415 19.5504C125.301 21.1422 125.048 22.7209 124.658 24.2688C124.875 23.2135 125.189 20.7064 123.811 18.9618C123.789 18.9261 123.765 18.8922 123.737 18.8611C122.822 17.7601 121.694 18.1962 120.788 18.9526C120.162 19.4818 119.616 20.0982 119.165 20.7826C119.323 18.7449 118.958 16.7008 118.104 14.8441C117.547 13.5776 116.808 12.3991 115.911 11.3458C117.293 16.1038 115.521 19.218 115.521 19.218C110.839 20.319 107.591 20.0842 105.169 19.6663C103.128 17.7631 103.836 10.9096 103.836 10.9096C101.783 12.5871 102.278 19.0777 102.278 19.0777C102.016 17.384 102.048 15.6577 102.372 13.9749C101.352 15.4168 100.764 17.1187 100.673 18.8825L100.637 18.8642C100.495 18.8279 100.356 18.784 100.219 18.733C99.9675 18.6007 99.7241 18.454 99.4898 18.2938L98.1387 17.3788C100.179 6.96902 107.313 0.423721 118.336 2.34522C119.055 2.46923 119.763 2.65287 120.452 2.89422C127.715 6.67927 127.959 16.238 127.959 16.238Z" fill="#001D3D"/>
<path d="M65.0552 117.619L62.2766 109.256C62.215 109.061 62.1049 108.886 61.9567 108.745C61.8081 108.605 61.6267 108.505 61.4287 108.454C61.4043 108.454 61.3769 108.454 61.3494 108.436C61.322 108.417 61.3159 108.436 61.2976 108.436C61.2335 108.431 61.1695 108.431 61.1054 108.436C60.7971 108.437 60.5009 108.554 60.2758 108.765C60.0501 108.973 59.8702 109.226 59.7467 109.508C59.6234 109.789 59.5594 110.093 59.5591 110.4C59.5594 110.64 59.5975 110.879 59.6719 111.107C60.2819 112.873 61.3677 116.061 61.8832 117.512" fill="#001D3D"/>
<path d="M64.4268 117.62L61.4317 108.455C61.4073 108.455 61.3798 108.455 61.3524 108.436C61.3249 108.418 61.3188 108.436 61.3005 108.436L59.7298 108.131C58.8911 107.976 58.0523 107.808 57.2136 107.652C56.2071 107.451 55.1944 107.283 54.191 107.042C53.954 106.975 53.7106 106.934 53.4651 106.92C53.1558 106.92 52.8585 107.039 52.6355 107.253C52.408 107.461 52.2265 107.715 52.103 107.997C51.9794 108.28 51.9169 108.585 51.9187 108.894C51.9172 109.131 51.9553 109.367 52.0316 109.592C52.7056 111.569 53.9897 115.308 54.3984 116.443L64.4268 117.62Z" fill="#001D3D"/>
<path d="M123.646 75.9349C123.341 79.3296 123.182 83.4379 123.075 88.6016C123.075 99.5816 110.936 108.674 100.148 110.754L80.3661 115.222C77.7523 115.728 75.4373 114.097 73.6195 113.014C71.7499 111.901 69.8345 110.574 68.4864 109.589C66.5466 108.17 62.8103 109.311 63.5759 112.694C63.7409 113.337 64.0523 113.933 64.4854 114.436C64.9188 114.939 65.4623 115.336 66.0738 115.594C66.4181 115.749 66.7729 115.879 67.1352 115.984C67.2703 116.018 67.3902 116.096 67.4765 116.205C67.5631 116.314 67.611 116.448 67.6131 116.587C67.6153 116.727 67.5714 116.863 67.4881 116.974C67.4051 117.086 67.2874 117.167 67.1535 117.204C65.4394 117.796 62.301 118.147 57.238 116.289C50.7506 113.901 50.2474 128.706 59.1168 131.283H59.1503C67.3213 133.754 76.1144 133.437 84.5599 133.083C94.15 132.72 103.693 131.555 113.09 129.603C117.869 128.59 122.779 127.538 127.153 125.375C134.687 121.651 140.116 117.381 145.279 110.735C151.074 103.284 153.548 93.509 154.945 84.3438C156.543 73.8579 154.335 65.0037 148.714 55.9788L148.506 55.6494" stroke="#020D18" stroke-width="1.63348" stroke-miterlimit="10"/>
<path d="M65.0552 117.619L62.2766 109.256C62.215 109.061 62.1049 108.886 61.9567 108.745C61.8081 108.605 61.6267 108.505 61.4287 108.454C61.4043 108.454 61.3769 108.454 61.3494 108.436C61.322 108.417 61.3159 108.436 61.2976 108.436C61.2335 108.431 61.1695 108.431 61.1054 108.436C60.7971 108.437 60.5009 108.554 60.2758 108.765C60.0501 108.973 59.8702 109.226 59.7467 109.508C59.6234 109.789 59.5594 110.093 59.5591 110.4C59.5594 110.64 59.5975 110.879 59.6719 111.107C60.2819 112.873 61.3677 116.061 61.8832 117.512" stroke="#020D18" stroke-width="1.63348" stroke-miterlimit="10"/>
<path d="M61.4317 108.455C61.4073 108.455 61.3798 108.455 61.3524 108.436C61.3249 108.418 61.3188 108.436 61.3005 108.436L59.7298 108.131C58.8911 107.976 58.0523 107.808 57.2136 107.652C56.2071 107.451 55.1944 107.283 54.191 107.042C53.954 106.975 53.7106 106.934 53.4651 106.92C53.1558 106.92 52.8585 107.039 52.6355 107.253C52.408 107.461 52.2265 107.715 52.103 107.997C51.9794 108.28 51.9169 108.585 51.9187 108.894C51.9172 109.131 51.9553 109.367 52.0316 109.592C52.7056 111.569 53.9897 115.308 54.3984 116.443" stroke="#020D18" stroke-width="1.63348" stroke-miterlimit="10"/>
<path d="M99.7246 18.5825C99.7246 22.5475 100.496 26.3386 102.399 29.84C103.924 32.6521 106.163 35.4856 109.366 36.4158C110.075 36.6205 110.811 36.7232 111.549 36.7208C116.985 36.6964 117.832 30.2579 117.832 30.2579" stroke="#020D18" stroke-width="1.63348" stroke-miterlimit="10"/>
<path d="M125.232 20.8831V20.9014C124.98 22.8687 124.547 24.8088 123.938 26.6964C123.212 28.9482 123.04 31.3425 123.438 33.6748L124.283 38.5884C124.322 38.8074 124.421 39.0111 124.57 39.1761C124.719 39.3411 124.911 39.461 125.125 39.5217C135.849 42.6357 145.368 49.5074 150.907 59.429C157.815 71.8181 159.074 86.7387 158.516 100.647C158.025 112.703 156.076 124.69 153.31 136.423C151.619 143.594 148.365 150.304 143.782 156.072C139.198 161.841 133.397 166.526 126.793 169.793C118.103 174.133 109.129 177.877 99.9319 181.002C95.0635 182.614 90.6154 185.291 86.9112 188.838C83.2069 192.385 80.3396 196.713 78.5179 201.507L56.9056 258.975C56.1113 261.097 54.5449 262.84 52.5197 263.855L31.8102 274.259C29.1951 275.568 26.2119 275.946 23.3525 275.332C22.6114 275.173 21.9352 274.793 21.4127 274.243C20.8899 273.694 20.545 272.999 20.4227 272.251C20.3001 271.503 20.4059 270.735 20.7262 270.047C21.0464 269.36 21.5661 268.785 22.2179 268.397L32.7953 262.105L47.3408 187.953C48.3643 181.338 50.8086 175.023 54.5052 169.441C58.2015 163.86 63.0629 159.146 68.7548 155.623C69.5137 155.16 70.3045 154.753 71.1216 154.403L102.653 140.712" stroke="#020D18" stroke-width="1.63348" stroke-miterlimit="10"/>
<path d="M116.563 1.62851C114.878 1.22677 113.133 1.13786 111.415 1.36621C111.345 1.36777 111.274 1.3739 111.205 1.38451" stroke="#020D18" stroke-width="1.63348" stroke-miterlimit="10"/>
<path d="M108.926 37.8949C108.926 37.8949 103.348 50.6835 113.324 51.3149C122.276 51.8883 125.561 39.7249 125.561 39.7249" stroke="#020D18" stroke-width="1.63348" stroke-miterlimit="10"/>
<path d="M124.53 24.7342C124.594 24.4994 125.555 21.0315 123.719 18.8477C121.883 16.6639 119.394 20.4093 119.144 20.7845C119.632 15.4075 115.896 11.3296 115.896 11.3296C117.274 16.0907 115.499 19.2015 115.499 19.2015C108.676 20.7997 104.922 19.5828 102.259 19.0582C101.997 17.3654 102.03 15.6402 102.357 13.9587C101.334 15.397 100.745 17.0976 100.658 18.8599H100.615C99.6016 18.5906 98.6406 18.1523 97.7725 17.5637L96.4214 16.6487C98.4649 6.24223 105.596 -0.309171 116.618 1.61233C127.641 3.53383 127.949 16.2096 127.949 16.2096L125.494 17.1641C125.494 17.1641 125.515 21.3487 124.53 24.7342Z" stroke="#020D18" stroke-width="1.63348" stroke-miterlimit="10"/>
<path d="M104 24.1917V29.2517C104.001 29.3133 104.016 29.374 104.044 29.4286C104.072 29.4835 104.113 29.5307 104.163 29.567C104.212 29.6033 104.27 29.6271 104.331 29.6372C104.392 29.6469 104.454 29.6424 104.513 29.6238C104.911 29.492 105.277 29.2779 105.586 28.9955" stroke="#020D18" stroke-width="1.63348" stroke-miterlimit="10"/>
<path d="M100.975 28.033C102.571 27.4108 103.163 25.1074 102.298 22.8882C101.433 20.6691 99.4374 19.3746 97.8413 19.9968C96.2453 20.619 95.653 22.9224 96.5179 25.1416C97.3832 27.3608 99.3785 28.6552 100.975 28.033Z" stroke="#020D18" stroke-width="1.63348" stroke-miterlimit="10"/>
<path d="M110.579 29.4809C112.175 28.8587 112.768 26.5553 111.902 24.3361C111.037 22.1169 109.042 20.8225 107.446 21.4447C105.85 22.0669 105.257 24.3703 106.123 26.5895C106.988 28.8086 108.983 30.1031 110.579 29.4809Z" stroke="#020D18" stroke-width="1.63348" stroke-miterlimit="10"/>
<path d="M102.659 24.4539C102.659 24.4539 103.604 23.3742 105.587 24.6399" stroke="#020D18" stroke-width="1.63348" stroke-miterlimit="10"/>
<path d="M108.478 36.0963C108.478 36.0963 109.164 38.4204 111.183 45.9539" stroke="#020D18" stroke-width="1.63348" stroke-miterlimit="10"/>
<path d="M57.927 256.26L69.822 249.84C70.5037 249.47 71.0847 248.94 71.5147 248.295C71.9448 247.649 72.2108 246.909 72.2895 246.137C74.2659 226.724 73.662 214.451 73.662 214.451" stroke="#020D18" stroke-width="1.63348" stroke-miterlimit="10"/>
<path d="M47.1302 156.702L1.35278 124.71" stroke="#020D18" stroke-width="1.63348" stroke-miterlimit="10"/>
<path d="M44.5377 165.517L1.35278 135.334" stroke="#020D18" stroke-width="1.63348" stroke-miterlimit="10"/>
<path d="M219.647 104.71V130.9C219.647 132.101 219.298 133.276 218.643 134.282C217.988 135.289 217.055 136.084 215.957 136.57L183.474 150.954L173.544 166.045C173.288 166.419 172.92 166.702 172.493 166.854C172.066 167.005 171.601 167.016 171.167 166.886C170.733 166.756 170.352 166.491 170.078 166.13C169.805 165.769 169.653 165.33 169.646 164.877V157.081L166.315 158.554C165.574 158.878 164.764 159.013 163.959 158.947C163.153 158.88 162.376 158.614 161.699 158.173C161.021 157.733 160.463 157.13 160.076 156.421C159.689 155.711 159.484 154.916 159.48 154.107V132.236C159.48 129.508 160.278 126.84 161.776 124.559C163.273 122.279 165.404 120.486 167.907 119.401L212.547 100.049C213.32 99.7137 214.164 99.5756 215.003 99.6478C215.843 99.7198 216.651 99.9995 217.356 100.462C218.06 100.924 218.638 101.555 219.038 102.296C219.438 103.038 219.648 103.867 219.647 104.71Z" fill="#94B0CB"/>
<path d="M179.801 138.941C181.401 135.854 180.968 132.455 178.834 131.349C176.7 130.243 173.673 131.848 172.073 134.935C170.473 138.022 170.906 141.421 173.04 142.527C175.174 143.633 178.201 142.028 179.801 138.941Z" fill="#E5EBF0"/>
<path d="M193.674 133.003C195.274 129.916 194.841 126.517 192.707 125.411C190.573 124.305 187.546 125.91 185.946 128.997C184.346 132.084 184.779 135.483 186.913 136.589C189.047 137.695 192.074 136.09 193.674 133.003Z" fill="#E5EBF0"/>
<path d="M207.08 126.591C208.68 123.504 208.247 120.105 206.113 118.999C203.979 117.893 200.951 119.498 199.351 122.585C197.751 125.672 198.184 129.071 200.319 130.177C202.452 131.283 205.479 129.677 207.08 126.591Z" fill="#E5EBF0"/>
</svg>
