<svg width="30" height="30" viewBox="0 0 30 30" fill="none" xmlns="http://www.w3.org/2000/svg">
<circle cx="15" cy="15" r="15" fill="#E5EBF0"/>
<circle cx="14.9999" cy="15.0004" r="9.6" fill="#001D3D"/>
<path d="M15 11.2207L14.873 11.2793L11.4355 12.8418L11.25 12.9199V14.0625H12.1875V17.5H11.5625V18.125H11.25V18.75H18.75V18.125H18.4375V17.5H17.8125V14.0625H18.75V12.9199L18.5645 12.8418L15.127 11.2793L15 11.2207ZM15 11.9043L18.125 13.3203V13.4375H11.875V13.3203L15 11.9043ZM12.8125 14.0625H13.4375V17.5H12.8125V14.0625ZM14.0625 14.0625H14.6875V17.5H14.0625V14.0625ZM15.3125 14.0625H15.9375V17.5H15.3125V14.0625ZM16.5625 14.0625H17.1875V17.5H16.5625V14.0625Z" fill="white"/>
</svg>
