<svg width="50" height="50" viewBox="0 0 50 50" fill="none" xmlns="http://www.w3.org/2000/svg">
<circle cx="25" cy="25" r="25" fill="#E5EBF0"/>
<path d="M21.25 15C20.0162 15 19 16.0162 19 17.25V32.75C19 33.9838 20.0162 35 21.25 35H28.75C29.9838 35 31 33.9838 31 32.75V29.5H29.5V32.75C29.5 33.1733 29.1732 33.5 28.75 33.5H21.25C20.8268 33.5 20.5 33.1733 20.5 32.75V17.25C20.5 16.8268 20.8268 16.5 21.25 16.5H28.75C29.1732 16.5 29.5 16.8268 29.5 17.25V20H31V17.25C31 16.0162 29.9838 15 28.75 15H21.25ZM25 18C24.8011 18 24.6103 18.079 24.4697 18.2197C24.329 18.3603 24.25 18.5511 24.25 18.75C24.25 18.9489 24.329 19.1397 24.4697 19.2803C24.6103 19.421 24.8011 19.5 25 19.5C25.1989 19.5 25.3897 19.421 25.5303 19.2803C25.671 19.1397 25.75 18.9489 25.75 18.75C25.75 18.5511 25.671 18.3603 25.5303 18.2197C25.3897 18.079 25.1989 18 25 18ZM24.25 21C23.6448 21 23.1408 21.4299 23.0254 22.001C23.0085 22.0818 23 22.1648 23 22.25V27.25C23 27.3352 23.0085 27.4182 23.0254 27.499C23.1246 27.9896 23.5104 28.3754 24.001 28.4746C24.0818 28.4915 24.1648 28.5 24.25 28.5H34.75C34.8352 28.5 34.9182 28.4915 34.999 28.4746C35.4896 28.3754 35.8754 27.9896 35.9746 27.499C35.9915 27.4182 36 27.3352 36 27.25V22.25C36 22.1648 35.9915 22.0818 35.9746 22.001C35.8754 21.5104 35.4896 21.1246 34.999 21.0254C34.9182 21.0085 34.8352 21 34.75 21H24.25ZM25.4746 22.5H33.5254C33.6248 22.9898 34.0102 23.3752 34.5 23.4746V26.0254C34.0102 26.1248 33.6248 26.5102 33.5254 27H25.4746C25.3752 26.5102 24.9898 26.1248 24.5 26.0254V23.4746C24.9898 23.3752 25.3752 22.9898 25.4746 22.5ZM29.5 23C28.6715 23 28 23.7835 28 24.75C28 25.7165 28.6715 26.5 29.5 26.5C30.3285 26.5 31 25.7165 31 24.75C31 23.7835 30.3285 23 29.5 23ZM26.25 24C26.0511 24 25.8603 24.079 25.7197 24.2197C25.579 24.3603 25.5 24.5511 25.5 24.75C25.5 24.9489 25.579 25.1397 25.7197 25.2803C25.8603 25.421 26.0511 25.5 26.25 25.5C26.4489 25.5 26.6397 25.421 26.7803 25.2803C26.921 25.1397 27 24.9489 27 24.75C27 24.5511 26.921 24.3603 26.7803 24.2197C26.6397 24.079 26.4489 24 26.25 24ZM32.75 24C32.5511 24 32.3603 24.079 32.2197 24.2197C32.079 24.3603 32 24.5511 32 24.75C32 24.9489 32.079 25.1397 32.2197 25.2803C32.3603 25.421 32.5511 25.5 32.75 25.5C32.9489 25.5 33.1397 25.421 33.2803 25.2803C33.421 25.1397 33.5 24.9489 33.5 24.75C33.5 24.5511 33.421 24.3603 33.2803 24.2197C33.1397 24.079 32.9489 24 32.75 24ZM23.75 30.5C23.6506 30.4986 23.5519 30.517 23.4597 30.554C23.3675 30.5911 23.2836 30.6461 23.2128 30.7159C23.142 30.7857 23.0858 30.8688 23.0474 30.9605C23.0091 31.0522 22.9893 31.1506 22.9893 31.25C22.9893 31.3494 23.0091 31.4478 23.0474 31.5395C23.0858 31.6312 23.142 31.7143 23.2128 31.7841C23.2836 31.8539 23.3675 31.9089 23.4597 31.946C23.5519 31.983 23.6506 32.0014 23.75 32H26.25C26.3494 32.0014 26.4481 31.983 26.5403 31.946C26.6325 31.9089 26.7164 31.8539 26.7872 31.7841C26.858 31.7143 26.9142 31.6312 26.9526 31.5395C26.9909 31.4478 27.0107 31.3494 27.0107 31.25C27.0107 31.1506 26.9909 31.0522 26.9526 30.9605C26.9142 30.8688 26.858 30.7857 26.7872 30.7159C26.7164 30.6461 26.6325 30.5911 26.5403 30.554C26.4481 30.517 26.3494 30.4986 26.25 30.5H23.75Z" fill="#001D3D"/>
</svg>
