<svg width="21" height="24" viewBox="0 0 21 24" fill="none" xmlns="http://www.w3.org/2000/svg">
<path d="M20.0844 18.6356C19.7382 19.4425 19.3106 20.2119 18.8081 20.9319C18.1369 21.8906 17.5856 22.5531 17.1631 22.9219C16.5069 23.5244 15.8019 23.8344 15.0481 23.8519C14.5081 23.8519 13.8556 23.6981 13.0956 23.3856C12.3331 23.0744 11.6331 22.9219 10.9919 22.9219C10.3206 22.9219 9.60061 23.0744 8.82936 23.3856C8.05936 23.6981 7.43686 23.8619 6.96061 23.8769C6.23936 23.9081 5.51811 23.5906 4.79936 22.9219C4.34061 22.5219 3.76686 21.8344 3.07811 20.8619C2.34061 19.8256 1.73436 18.6194 1.25936 17.2481C0.750606 15.7644 0.495605 14.3294 0.495605 12.9394C0.495605 11.3481 0.839356 9.97436 1.52811 8.82436C2.04904 7.92119 2.79379 7.1674 3.69061 6.63561C4.57494 6.10519 5.58446 5.81959 6.61561 5.8081C7.19061 5.8081 7.94436 5.98561 8.87811 6.33561C9.81186 6.68561 10.4119 6.86311 10.6731 6.86311C10.8706 6.86311 11.5344 6.65436 12.6644 6.24061C13.7306 5.85686 14.6306 5.69811 15.3681 5.76061C17.3681 5.92186 18.8694 6.70936 19.8681 8.12936C18.0806 9.21311 17.1969 10.7294 17.2144 12.6756C17.2294 14.1919 17.7806 15.4531 18.8606 16.4544C19.3381 16.9113 19.8952 17.2769 20.5044 17.5331C20.3719 17.9169 20.2319 18.2831 20.0844 18.6356ZM15.5006 0.596856C15.5006 1.78436 15.0656 2.89436 14.2019 3.92061C13.1569 5.14061 11.8944 5.84686 10.5256 5.73561C10.5077 5.58628 10.4989 5.436 10.4994 5.28561C10.4994 4.14436 10.9944 2.92436 11.8781 1.92561C12.3181 1.42061 12.8781 0.999356 13.5569 0.664356C14.2344 0.334356 14.8744 0.151855 15.4769 0.120605C15.4931 0.280605 15.5006 0.439356 15.5006 0.596856Z" fill="black"/>
</svg>
