<svg width="50" height="50" viewBox="0 0 50 50" fill="none" xmlns="http://www.w3.org/2000/svg">
<circle cx="25" cy="25" r="25" fill="#E5EBF0"/>
<circle cx="25" cy="25" r="16" fill="#001D3D"/>
<path d="M25 17.4414L24.7461 17.5586L17.8711 20.6836L17.5 20.8398V23.125H19.375V30H18.125V31.25H17.5V32.5H32.5V31.25H31.875V30H30.625V23.125H32.5V20.8398L32.1289 20.6836L25.2539 17.5586L25 17.4414ZM25 18.8086L31.25 21.6406V21.875H18.75V21.6406L25 18.8086ZM20.625 23.125H21.875V30H20.625V23.125ZM23.125 23.125H24.375V30H23.125V23.125ZM25.625 23.125H26.875V30H25.625V23.125ZM28.125 23.125H29.375V30H28.125V23.125Z" fill="white"/>
</svg>
