<svg width="25" height="26" viewBox="0 0 25 26" fill="none" xmlns="http://www.w3.org/2000/svg">
<path d="M3.125 5.15393C2.69353 5.15393 2.34375 5.50371 2.34375 5.93518V18.8476C2.34375 19.9522 3.23918 20.8476 4.34375 20.8476H20.6562C21.7608 20.8476 22.6562 19.9522 22.6562 18.8476V7.15393C22.6562 6.04936 21.7608 5.15393 20.6562 5.15393H3.125ZM3.90625 8.71643C3.90625 7.61186 4.80168 6.71643 5.90625 6.71643H19.0938C20.1983 6.71643 21.0938 7.61186 21.0938 8.71643V10.2188C21.0938 11.3233 20.1983 12.2188 19.0938 12.2188H17.8674C16.9229 12.2188 16.1488 11.5167 15.6097 10.7413C14.9203 9.74974 13.7994 9.09375 12.5 9.09375C11.2006 9.09375 10.0797 9.74974 9.39032 10.7413C8.85122 11.5167 8.07706 12.2188 7.13264 12.2188H5.90625C4.80168 12.2188 3.90625 11.3233 3.90625 10.2188V8.71643ZM12.5 10.6562C13.8035 10.6562 14.8438 11.6965 14.8438 13C14.8438 14.3035 13.8035 15.3438 12.5 15.3438C11.1965 15.3438 10.1562 14.3035 10.1562 13C10.1562 11.6965 11.1965 10.6562 12.5 10.6562ZM3.90625 15.7812C3.90625 14.6767 4.80168 13.7812 5.90625 13.7812H7.13264C8.07706 13.7812 8.85122 14.4833 9.39032 15.2587C10.0797 16.2503 11.2006 16.9062 12.5 16.9062C13.7994 16.9062 14.9203 16.2503 15.6097 15.2587C16.1488 14.4833 16.9229 13.7812 17.8674 13.7812H19.0938C20.1983 13.7812 21.0938 14.6767 21.0938 15.7812V17.2851C21.0938 18.3897 20.1983 19.2851 19.0938 19.2851H5.90625C4.80168 19.2851 3.90625 18.3897 3.90625 17.2851V15.7812Z" fill="#001D3D"/>
</svg>
