<svg width="50" height="50" viewBox="0 0 50 50" fill="none" xmlns="http://www.w3.org/2000/svg">
<circle cx="25" cy="25" r="25" fill="#E5EBF0"/>
<circle cx="25" cy="25" r="16" fill="#001D3D"/>
<path d="M18.5417 17.9167C17.2834 17.9167 16.25 18.9502 16.25 20.2084V27.7084C16.25 28.9667 17.2834 30.0001 18.5417 30.0001H31.4583C32.7166 30.0001 33.75 28.9667 33.75 27.7084V20.2084C33.75 18.9502 32.7166 17.9167 31.4583 17.9167H18.5417ZM18.5417 19.1667H31.4583C32.0409 19.1667 32.5 19.6258 32.5 20.2084V27.7084C32.5 28.291 32.0409 28.7501 31.4583 28.7501H18.5417C17.9591 28.7501 17.5 28.291 17.5 27.7084V20.2084C17.5 19.6258 17.9591 19.1667 18.5417 19.1667ZM21.4583 31.2501C21.3755 31.2489 21.2933 31.2642 21.2164 31.2951C21.1396 31.326 21.0696 31.3718 21.0106 31.43C20.9517 31.4881 20.9048 31.5574 20.8729 31.6338C20.8409 31.7102 20.8244 31.7923 20.8244 31.8751C20.8244 31.9579 20.8409 32.0399 20.8729 32.1163C20.9048 32.1927 20.9517 32.262 21.0106 32.3202C21.0696 32.3783 21.1396 32.4242 21.2164 32.4551C21.2933 32.486 21.3755 32.5013 21.4583 32.5001H28.5417C28.6245 32.5013 28.7067 32.486 28.7836 32.4551C28.8604 32.4242 28.9304 32.3783 28.9894 32.3202C29.0483 32.262 29.0952 32.1927 29.1271 32.1163C29.1591 32.0399 29.1756 31.9579 29.1756 31.8751C29.1756 31.7923 29.1591 31.7102 29.1271 31.6338C29.0952 31.5574 29.0483 31.4881 28.9894 31.43C28.9304 31.3718 28.8604 31.326 28.7836 31.2951C28.7067 31.2642 28.6245 31.2489 28.5417 31.2501H21.4583Z" fill="white"/>
</svg>
