<svg width="50" height="50" viewBox="0 0 50 50" fill="none" xmlns="http://www.w3.org/2000/svg">
<circle cx="25" cy="25" r="25" fill="#E5EBF0"/>
<circle cx="25" cy="25" r="16" fill="#001D3D"/>
<path d="M22.9339 16.6723C22.6596 16.6524 22.3786 16.6804 22.103 16.7618L21.1167 17.054C20.0656 17.3648 19.2444 18.1987 18.9666 19.2513C18.3497 21.592 19.0554 24.3626 20.892 27.4812C22.7261 30.5956 24.816 32.5749 27.1762 33.221C28.2391 33.5119 29.3854 33.234 30.1906 32.4861L30.9409 31.7903C31.7805 31.0108 31.9056 29.7124 31.2273 28.7898L30.1434 27.3177C29.5623 26.5284 28.538 26.1924 27.5962 26.4754L25.9002 26.9832C25.829 27.004 25.6586 26.907 25.5104 26.7789L25.5096 26.7781C25.2455 26.5485 24.8796 26.0844 24.4882 25.4207V25.4199C24.0685 24.7071 23.8895 24.2409 23.8177 23.9656C23.7458 23.6902 23.7632 23.6567 23.7737 23.5636C23.7792 23.5171 23.8013 23.4741 23.8388 23.4399L23.8396 23.4391L25.1043 22.2827C25.8288 21.6203 26.0476 20.5618 25.639 19.6712L24.8764 18.0078V18.0069C24.5174 17.2244 23.7565 16.7322 22.9339 16.6723ZM22.8435 17.9191C23.2261 17.9476 23.5784 18.1771 23.7395 18.5286L24.5029 20.192C24.6876 20.5947 24.595 21.0555 24.2612 21.3606L22.9965 22.5162C22.7373 22.7526 22.5715 23.0749 22.5319 23.4228V23.4236C22.5215 23.5151 22.4971 23.8553 22.6084 24.2814C22.7196 24.7074 22.9492 25.2709 23.4108 26.0546H23.4116C23.8422 26.7851 24.2493 27.34 24.6901 27.7229H24.6909C24.834 27.8469 25.434 28.4219 26.2501 28.1835L26.2526 28.1827L27.9559 27.6725C28.3981 27.5396 28.8711 27.6983 29.1367 28.059L30.2207 29.5312C30.5276 29.9494 30.474 30.5179 30.0905 30.874L29.3401 31.5706C28.8603 32.0165 28.1477 32.1906 27.5058 32.0149C25.5978 31.4926 23.7096 29.8021 21.9695 26.8473C20.227 23.8884 19.682 21.4412 20.1751 19.5703C20.3381 18.9528 20.8375 18.4402 21.4715 18.2527L22.457 17.9606C22.5854 17.9226 22.716 17.9095 22.8435 17.9191Z" fill="white"/>
</svg>
