<svg width="52" height="52" viewBox="0 0 52 52" fill="none" xmlns="http://www.w3.org/2000/svg">
<circle cx="26" cy="26" r="26" fill="#E5EBF0"/>
<circle cx="26.0001" cy="26" r="16.64" fill="#001D3D"/>
<path fill-rule="evenodd" clip-rule="evenodd" d="M22.6244 21.3149C23.791 21.3149 24.9577 21.3149 26.1244 21.3149C26.4824 21.7704 26.8404 22.226 27.1983 22.6815C27.5599 22.226 27.9216 21.7704 28.2832 21.3149C28.8152 21.3149 29.3472 21.3149 29.8792 21.3149C29.7169 21.5346 29.5547 21.7544 29.3924 21.9742C29.1204 21.9742 28.8485 21.9742 28.5765 21.9742C28.1171 22.5299 27.6577 23.0855 27.1983 23.6412C26.7388 23.0855 26.2793 22.5299 25.8198 21.9742C25.2246 21.9742 24.6294 21.9742 24.0342 21.9742C24.7908 22.8964 25.5474 23.8186 26.304 24.7408C23.4484 27.8905 20.5927 31.0402 17.7371 34.19C17.7371 33.9011 17.7371 33.6122 17.7371 33.3233C20.306 30.4625 22.8749 27.6016 25.4438 24.7408C24.504 23.5988 23.5642 22.4569 22.6244 21.3149Z" fill="white"/>
<path fill-rule="evenodd" clip-rule="evenodd" d="M24.7136 28.7972C24.8939 28.575 25.0742 28.3529 25.2545 28.1307C25.5159 28.1307 25.7773 28.1307 26.0386 28.1307C26.4886 27.5718 26.9386 27.0128 27.3885 26.4538C27.8468 27.0128 28.3051 27.5718 28.7633 28.1307C29.3606 28.1307 29.958 28.1307 30.5553 28.1307C29.798 27.2081 29.0406 26.2854 28.2832 25.3627C30.6422 22.6882 33.0012 20.0138 35.3602 17.3393C35.3602 17.6728 35.3602 18.0064 35.3602 18.34C33.2988 20.6809 31.2374 23.0218 29.176 25.3627C30.098 26.5075 31.02 27.6523 31.9419 28.7972C30.7813 28.7972 29.6207 28.7972 28.4602 28.7972C28.103 28.3585 27.7457 27.9198 27.3885 27.4812C27.027 27.9198 26.6655 28.3585 26.304 28.7972C25.7739 28.7972 25.2438 28.7972 24.7136 28.7972Z" fill="white"/>
<g clip-path="url(#clip0_103_11724)">
<path fill-rule="evenodd" clip-rule="evenodd" d="M17.7371 21.3414C18.9948 21.3414 20.2526 21.3414 21.5104 21.3414C21.9268 21.797 22.3431 22.2525 22.7595 22.708C21.7182 22.708 20.6769 22.708 19.6356 22.708C19.6356 23.1271 19.6356 23.5462 19.6356 23.9653C21.0538 23.9653 22.4721 23.9653 23.8903 23.9653C24.104 24.2326 24.3177 24.5 24.5314 24.7673C24.3177 25.0347 24.104 25.302 23.8903 25.5693C22.4721 25.5693 21.0538 25.5693 19.6356 25.5693C19.6356 27.142 19.6356 28.7147 19.6356 30.2874C19.0027 30.9577 18.3699 31.6281 17.7371 32.2984C17.7371 28.6461 17.7371 24.9938 17.7371 21.3414Z" fill="white"/>
</g>
<defs>
<clipPath id="clip0_103_11724">
<rect width="6.81533" height="11.0073" fill="white" transform="translate(17.7358 21.3149)"/>
</clipPath>
</defs>
</svg>
