<svg width="50" height="50" viewBox="0 0 50 50" fill="none" xmlns="http://www.w3.org/2000/svg">
<circle cx="25" cy="25" r="25" fill="#E5EBF0"/>
<circle cx="25" cy="25" r="16" fill="#001D3D"/>
<path fill-rule="evenodd" clip-rule="evenodd" d="M21.754 20.4951C22.8758 20.4951 23.9976 20.4951 25.1195 20.4951C25.4637 20.9331 25.8079 21.3712 26.1521 21.8092C26.4998 21.3712 26.8475 20.9331 27.1952 20.4951C27.7068 20.4951 28.2183 20.4951 28.7298 20.4951C28.5738 20.7064 28.4178 20.9177 28.2618 21.1291C28.0002 21.1291 27.7387 21.1291 27.4772 21.1291C27.0355 21.6634 26.5938 22.1977 26.1521 22.732C25.7102 22.1977 25.2684 21.6634 24.8265 21.1291C24.2542 21.1291 23.6819 21.1291 23.1096 21.1291C23.8371 22.0158 24.5647 22.9025 25.2922 23.7893C22.5463 26.8179 19.8005 29.8464 17.0547 32.875C17.0547 32.5972 17.0547 32.3195 17.0547 32.0417C19.5248 29.2909 21.9949 26.5401 24.4651 23.7893C23.5614 22.6912 22.6577 21.5932 21.754 20.4951Z" fill="white"/>
<path fill-rule="evenodd" clip-rule="evenodd" d="M23.7629 27.6895C23.9363 27.4759 24.1097 27.2623 24.283 27.0487C24.5343 27.0487 24.7857 27.0487 25.037 27.0487C25.4697 26.5113 25.9023 25.9738 26.335 25.4363C26.7756 25.9738 27.2162 26.5113 27.6569 27.0487C28.2312 27.0487 28.8056 27.0487 29.38 27.0487C28.6517 26.1616 27.9235 25.2744 27.1952 24.3872C29.4635 21.8156 31.7317 19.244 34 16.6724C34 16.9931 34 17.3138 34 17.6345C32.0179 19.8854 30.0358 22.1363 28.0537 24.3872C28.9402 25.488 29.8267 26.5888 30.7132 27.6895C29.5973 27.6895 28.4813 27.6895 27.3654 27.6895C27.0219 27.2677 26.6784 26.8459 26.335 26.4241C25.9874 26.8459 25.6398 27.2677 25.2922 27.6895C24.7824 27.6895 24.2727 27.6895 23.7629 27.6895Z" fill="white"/>
<g clip-path="url(#clip0_84_17675)">
<path fill-rule="evenodd" clip-rule="evenodd" d="M17.0547 20.5206C18.2641 20.5206 19.4735 20.5206 20.6829 20.5206C21.0832 20.9587 21.4836 21.3967 21.884 21.8347C20.8827 21.8347 19.8815 21.8347 18.8802 21.8347C18.8802 22.2376 18.8802 22.6406 18.8802 23.0435C20.2439 23.0435 21.6076 23.0435 22.9713 23.0435C23.1768 23.3006 23.3822 23.5577 23.5877 23.8148C23.3822 24.0718 23.1768 24.3289 22.9713 24.5859C21.6076 24.5859 20.2439 24.5859 18.8802 24.5859C18.8802 26.0981 18.8802 27.6103 18.8802 29.1225C18.2717 29.7671 17.6632 30.4117 17.0547 31.0562C17.0547 27.5444 17.0547 24.0325 17.0547 20.5206Z" fill="white"/>
</g>
<defs>
<clipPath id="clip0_84_17675">
<rect width="6.5532" height="10.5839" fill="white" transform="translate(17.0537 20.4951)"/>
</clipPath>
</defs>
</svg>
