<svg width="20" height="20" viewBox="0 0 20 20" fill="none" xmlns="http://www.w3.org/2000/svg">
<path d="M17.5 7.44935C17.4913 7.37279 17.4746 7.29737 17.45 7.22435V7.14935C17.4099 7.06367 17.3565 6.9849 17.2917 6.91602L12.2917 1.91602C12.2228 1.8512 12.144 1.79775 12.0583 1.75768C12.0335 1.75415 12.0082 1.75415 11.9833 1.75768C11.8987 1.70913 11.8052 1.67797 11.7083 1.66602H8.33333C7.67029 1.66602 7.03441 1.92941 6.56557 2.39825C6.09673 2.86709 5.83333 3.50297 5.83333 4.16602V4.99935H5C4.33696 4.99935 3.70107 5.26274 3.23223 5.73158C2.76339 6.20042 2.5 6.83631 2.5 7.49935V15.8327C2.5 16.4957 2.76339 17.1316 3.23223 17.6005C3.70107 18.0693 4.33696 18.3327 5 18.3327H11.6667C12.3297 18.3327 12.9656 18.0693 13.4344 17.6005C13.9033 17.1316 14.1667 16.4957 14.1667 15.8327V14.9993H15C15.663 14.9993 16.2989 14.736 16.7678 14.2671C17.2366 13.7983 17.5 13.1624 17.5 12.4993V7.49935C17.5 7.49935 17.5 7.49935 17.5 7.44935ZM12.5 4.50768L14.6583 6.66602H13.3333C13.1123 6.66602 12.9004 6.57822 12.7441 6.42194C12.5878 6.26566 12.5 6.0537 12.5 5.83268V4.50768ZM12.5 15.8327C12.5 16.0537 12.4122 16.2657 12.2559 16.4219C12.0996 16.5782 11.8877 16.666 11.6667 16.666H5C4.77899 16.666 4.56702 16.5782 4.41074 16.4219C4.25446 16.2657 4.16667 16.0537 4.16667 15.8327V7.49935C4.16667 7.27834 4.25446 7.06637 4.41074 6.91009C4.56702 6.75381 4.77899 6.66602 5 6.66602H5.83333V12.4993C5.83333 13.1624 6.09673 13.7983 6.56557 14.2671C7.03441 14.736 7.67029 14.9993 8.33333 14.9993H12.5V15.8327ZM15.8333 12.4993C15.8333 12.7204 15.7455 12.9323 15.5893 13.0886C15.433 13.2449 15.221 13.3327 15 13.3327H8.33333C8.11232 13.3327 7.90036 13.2449 7.74408 13.0886C7.5878 12.9323 7.5 12.7204 7.5 12.4993V4.16602C7.5 3.945 7.5878 3.73304 7.74408 3.57676C7.90036 3.42048 8.11232 3.33268 8.33333 3.33268H10.8333V5.83268C10.8333 6.49572 11.0967 7.13161 11.5656 7.60045C12.0344 8.06929 12.6703 8.33268 13.3333 8.33268H15.8333V12.4993Z" fill="#233481"/>
</svg>
