<svg width="25" height="26" viewBox="0 0 25 26" fill="none" xmlns="http://www.w3.org/2000/svg">
<path d="M2.78125 4.40625C1.67668 4.40625 0.78125 5.30168 0.78125 6.40625V19.5938C0.78125 20.6983 1.67668 21.5938 2.78125 21.5938H22.2188C23.3233 21.5938 24.2188 20.6983 24.2188 19.5938V6.40625C24.2188 5.30168 23.3233 4.40625 22.2188 4.40625H2.78125ZM2.34375 7.96875C2.34375 6.86418 3.23918 5.96875 4.34375 5.96875H20.6562C21.7608 5.96875 22.6562 6.86418 22.6562 7.96875V18.0312C22.6562 19.1358 21.7608 20.0312 20.6562 20.0312H4.34375C3.23918 20.0312 2.34375 19.1358 2.34375 18.0312V7.96875ZM7.8125 7.53125C6.94885 7.53125 6.25 8.2301 6.25 9.09375C6.25 9.9574 6.94885 10.6562 7.8125 10.6562C8.67615 10.6562 9.375 9.9574 9.375 9.09375C9.375 8.2301 8.67615 7.53125 7.8125 7.53125ZM7.8125 10.6562C7.42306 10.6562 7.05573 10.7196 6.73249 10.8316C5.68884 11.1934 6.36418 12.2188 7.46875 12.2188H8.15625C9.26082 12.2188 9.93616 11.1934 8.89251 10.8316C8.56927 10.7196 8.20194 10.6562 7.8125 10.6562ZM14.0625 9.09375C13.631 9.09375 13.2812 9.44353 13.2812 9.875C13.2812 10.3065 13.631 10.6562 14.0625 10.6562H19.5312C19.9627 10.6562 20.3125 10.3065 20.3125 9.875C20.3125 9.44353 19.9627 9.09375 19.5312 9.09375H14.0625ZM14.0625 11.4375C13.631 11.4375 13.2812 11.7873 13.2812 12.2188C13.2812 12.6502 13.631 13 14.0625 13H17.9688C18.4002 13 18.75 12.6502 18.75 12.2188C18.75 11.7873 18.4002 11.4375 17.9688 11.4375H14.0625ZM7.19995 13C6.4262 13 5.72186 13.4463 5.39146 14.146L4.879 15.2312C4.7529 15.4982 4.6875 15.7899 4.6875 16.0852V18.0537C4.6875 18.2856 4.86755 18.4688 5.10254 18.4688H5.83496C6.06995 18.4688 6.25 18.2887 6.25 18.0537C6.25 17.8515 6.41396 17.6875 6.61621 17.6875H9.00879C9.21104 17.6875 9.375 17.8515 9.375 18.0537C9.375 18.2887 9.55505 18.4688 9.79004 18.4688H10.5225C10.7574 18.4688 10.9375 18.2887 10.9375 18.0537V16.0852C10.9375 15.7899 10.8721 15.4982 10.746 15.2312L10.2335 14.146C9.90314 13.4463 9.1988 13 8.42505 13H7.19995ZM14.0625 13.7812C13.631 13.7812 13.2812 14.131 13.2812 14.5625C13.2812 14.994 13.631 15.3438 14.0625 15.3438H19.5312C19.9627 15.3438 20.3125 14.994 20.3125 14.5625C20.3125 14.131 19.9627 13.7812 19.5312 13.7812H14.0625ZM5.85938 15.9297C6.18286 15.9297 6.44531 16.1921 6.44531 16.5156C6.44531 16.8391 6.18286 17.1016 5.85938 17.1016C5.53589 17.1016 5.27344 16.8391 5.27344 16.5156C5.27344 16.1921 5.53589 15.9297 5.85938 15.9297ZM9.76562 15.9297C10.0861 15.9297 10.3516 16.1921 10.3516 16.5156C10.3516 16.8361 10.0861 17.1016 9.76562 17.1016C9.44519 17.1016 9.17969 16.8361 9.17969 16.5156C9.17969 16.1921 9.44519 15.9297 9.76562 15.9297ZM14.0625 16.125C13.631 16.125 13.2812 16.4748 13.2812 16.9062C13.2812 17.3377 13.631 17.6875 14.0625 17.6875H17.9688C18.4002 17.6875 18.75 17.3377 18.75 16.9062C18.75 16.4748 18.4002 16.125 17.9688 16.125H14.0625Z" fill="#001D3D"/>
</svg>
