<svg width="50" height="50" viewBox="0 0 50 50" fill="none" xmlns="http://www.w3.org/2000/svg">
<circle cx="25" cy="25" r="25" fill="#E5EBF0"/>
<circle cx="25" cy="25" r="16" fill="#001D3D"/>
<path d="M25.0001 16.6667C20.4042 16.6667 16.6667 20.4042 16.6667 25.0001C16.6667 27.8438 18.097 30.3548 20.2703 31.8539C20.3379 31.9005 20.414 31.9334 20.4943 31.9505C20.5745 31.9677 20.6574 31.9689 20.7382 31.9541C20.8189 31.9392 20.8959 31.9086 20.9649 31.864C21.0338 31.8194 21.0932 31.7616 21.1398 31.694C21.1864 31.6264 21.2193 31.5503 21.2364 31.47C21.2536 31.3897 21.2548 31.3069 21.24 31.2261C21.2251 31.1454 21.1945 31.0683 21.1499 30.9994C21.1053 30.9305 21.0475 30.8711 20.9799 30.8245C19.1315 29.5494 17.9167 27.4255 17.9167 25.0001C17.9167 21.0793 21.0793 17.9167 25.0001 17.9167C28.9208 17.9167 32.0834 21.0793 32.0834 25.0001C32.0834 27.426 30.8687 29.5494 29.0203 30.8245C28.9527 30.8711 28.8949 30.9305 28.8503 30.9994C28.8057 31.0683 28.775 31.1454 28.7602 31.2261C28.7453 31.3069 28.7465 31.3897 28.7637 31.47C28.7809 31.5503 28.8137 31.6264 28.8603 31.694C28.9069 31.7616 28.9664 31.8194 29.0353 31.864C29.1042 31.9086 29.1812 31.9392 29.262 31.9541C29.3427 31.9689 29.4256 31.9677 29.5059 31.9505C29.5862 31.9334 29.6623 31.9005 29.7299 31.8539C31.9031 30.3548 33.3334 27.8442 33.3334 25.0001C33.3334 20.4042 29.596 16.6667 25.0001 16.6667ZM25.0001 19.5834C22.0163 19.5834 19.5834 22.0163 19.5834 25.0001C19.5834 26.8505 20.5197 28.4839 21.9386 29.4573C22.006 29.5075 22.083 29.5436 22.1647 29.5634C22.2465 29.5832 22.3315 29.5863 22.4144 29.5725C22.4974 29.5587 22.5768 29.5283 22.6477 29.4831C22.7187 29.4378 22.7798 29.3788 22.8274 29.3094C22.875 29.24 22.908 29.1617 22.9246 29.0792C22.9412 28.9967 22.941 28.9118 22.924 28.8294C22.9069 28.747 22.8734 28.6689 22.8255 28.5997C22.7775 28.5306 22.7161 28.4718 22.6449 28.427C21.5505 27.6762 20.8334 26.4305 20.8334 25.0001C20.8334 22.6922 22.6922 20.8334 25.0001 20.8334C27.308 20.8334 29.1667 22.6922 29.1667 25.0001C29.1667 26.4305 28.4497 27.6762 27.3552 28.427C27.284 28.4718 27.2226 28.5306 27.1747 28.5997C27.1267 28.6689 27.0932 28.747 27.0762 28.8294C27.0592 28.9118 27.0589 28.9967 27.0755 29.0792C27.0921 29.1617 27.1252 29.24 27.1728 29.3094C27.2204 29.3788 27.2815 29.4378 27.3524 29.4831C27.4234 29.5283 27.5027 29.5587 27.5857 29.5725C27.6687 29.5863 27.7536 29.5832 27.8354 29.5634C27.9172 29.5436 27.9941 29.5075 28.0616 29.4573C29.4805 28.4839 30.4167 26.8505 30.4167 25.0001C30.4167 22.0163 27.9838 19.5834 25.0001 19.5834ZM25.0001 22.5001C24.2188 22.5001 23.5538 22.8156 23.1267 23.296C22.6997 23.7764 22.5001 24.3924 22.5001 25.0001C22.5001 25.6077 22.6997 26.2238 23.1267 26.7042C23.4289 27.0442 23.8776 27.251 24.3751 27.3723V32.7084C24.3739 32.7912 24.3892 32.8735 24.4201 32.9503C24.451 33.0272 24.4968 33.0971 24.555 33.1561C24.6131 33.2151 24.6824 33.2619 24.7588 33.2939C24.8353 33.3259 24.9173 33.3423 25.0001 33.3423C25.0829 33.3423 25.1649 33.3259 25.2413 33.2939C25.3177 33.2619 25.387 33.2151 25.4452 33.1561C25.5033 33.0971 25.5492 33.0272 25.5801 32.9503C25.611 32.8735 25.6263 32.7912 25.6251 32.7084V27.3723C26.1226 27.251 26.5712 27.0442 26.8735 26.7042C27.3005 26.2238 27.5001 25.6077 27.5001 25.0001C27.5001 24.3924 27.3005 23.7764 26.8735 23.296C26.4464 22.8156 25.7813 22.5001 25.0001 22.5001ZM25.0001 23.7501C25.4688 23.7501 25.7413 23.9034 25.9392 24.1261C26.1372 24.3488 26.2501 24.6702 26.2501 25.0001C26.2501 25.3299 26.1372 25.6514 25.9392 25.8741C25.748 26.0892 25.479 26.2327 25.0391 26.2428C25.0131 26.2411 24.987 26.2411 24.961 26.2428C24.5211 26.2327 24.2521 26.0892 24.061 25.8741C23.863 25.6514 23.7501 25.3299 23.7501 25.0001C23.7501 24.6702 23.863 24.3488 24.061 24.1261C24.2589 23.9034 24.5313 23.7501 25.0001 23.7501Z" fill="white"/>
</svg>
