<svg width="50" height="50" viewBox="0 0 50 50" fill="none" xmlns="http://www.w3.org/2000/svg">
<circle cx="25" cy="25" r="25" fill="#E5EBF0"/>
<circle cx="25" cy="25" r="16" fill="#001D3D"/>
<path d="M24.0344 17.5L23.739 18.3313L21.3013 25.1868L20.8398 26.4844L22.1753 26.8176L23.7292 27.2058V31.25V32.5H24.9792H25.0415H25.896L26.2073 31.7041L28.6438 25.4541L29.1602 24.1321L27.782 23.7878L26.2292 23.3984V18.75V17.5H24.9792H24.917H24.0344ZM19.0088 18.125L18.125 19.0088L20.3662 21.25L21.25 20.3662L19.0088 18.125ZM30.9912 18.125L28.75 20.3662L29.6338 21.25L31.875 19.0088L30.9912 18.125ZM24.917 18.75H24.9792V24.375L27.4792 25L25.0415 31.25H24.9792V26.2305L22.4792 25.6055L24.917 18.75ZM20.3662 28.75L18.125 30.9912L19.0088 31.875L21.25 29.6338L20.3662 28.75ZM29.6338 28.75L28.75 29.6338L30.9912 31.875L31.875 30.9912L29.6338 28.75Z" fill="white"/>
</svg>
