<svg width="50" height="50" viewBox="0 0 50 50" fill="none" xmlns="http://www.w3.org/2000/svg">
<circle cx="25" cy="25" r="25" fill="#E5EBF0"/>
<circle cx="25" cy="25" r="16" fill="#001D3D"/>
<path d="M19.3751 17.083C19.2093 17.083 19.0504 17.1489 18.9332 17.2661C18.816 17.3833 18.7501 17.5423 18.7501 17.708V18.333H17.2917C17.126 18.333 16.967 18.3989 16.8498 18.5161C16.7326 18.6333 16.6668 18.7923 16.6667 18.958V31.8747C16.6668 32.0404 16.7326 32.1994 16.8498 32.3166C16.967 32.4338 17.126 32.4997 17.2917 32.4997H32.7084C32.8742 32.4997 33.0331 32.4338 33.1503 32.3166C33.2675 32.1994 33.3334 32.0404 33.3334 31.8747V18.958C33.3334 18.7923 33.2675 18.6333 33.1503 18.5161C33.0331 18.3989 32.8742 18.333 32.7084 18.333H31.2501V17.708C31.2501 17.5423 31.1842 17.3833 31.067 17.2661C30.9498 17.1489 30.7908 17.083 30.6251 17.083H27.5001C26.4533 17.083 25.568 17.6384 25.0001 18.4347C24.4322 17.6384 23.5469 17.083 22.5001 17.083H19.3751ZM20.0001 18.333H22.5001C23.5432 18.333 24.3751 19.1649 24.3751 20.208V29.8035C23.8509 29.408 23.2039 29.1663 22.5001 29.1663H20.0001V19.0605C20.0111 18.9935 20.0111 18.925 20.0001 18.8579V18.333ZM27.5001 18.333H30.0001V18.8555C29.9891 18.9226 29.9891 18.991 30.0001 19.0581V29.1663H27.5001C26.7963 29.1663 26.1493 29.408 25.6251 29.8035V20.208C25.6251 19.1649 26.457 18.333 27.5001 18.333ZM17.9167 19.583H18.7501V29.7913C18.7501 29.9571 18.816 30.1161 18.9332 30.2333C19.0504 30.3505 19.2093 30.4163 19.3751 30.4163H22.5001C23.1545 30.4163 23.7237 30.7483 24.0585 31.2497H17.9167V19.583ZM31.2501 19.583H32.0834V31.2497H25.9417C26.2764 30.7483 26.8457 30.4163 27.5001 30.4163H30.6251C30.7908 30.4163 30.9498 30.3505 31.067 30.2333C31.1842 30.1161 31.2501 29.9571 31.2501 29.7913V19.583Z" fill="white"/>
</svg>
