<svg width="52" height="52" viewBox="0 0 52 52" fill="none" xmlns="http://www.w3.org/2000/svg">
<circle cx="26" cy="26" r="26" fill="#E5EBF0"/>
<circle cx="26.0001" cy="26" r="16.64" fill="#001D3D"/>
<g clip-path="url(#clip0_103_11743)">
<path d="M30.1801 18.66L26.8001 20.5L21.2001 23.56L17.8201 25.42L19.2801 28.06V26C19.2801 25.47 19.7101 25.04 20.2401 25.04H20.7601L20.7801 24.96L28.2001 20.9L28.7601 21.06C28.7751 21.11 28.7926 21.17 28.8201 21.22C29.0401 21.6225 29.5376 21.78 29.9401 21.56C29.9876 21.5325 30.0201 21.475 30.0601 21.44L30.6401 21.62L31.9201 23.96L31.7601 24.54C31.7101 24.555 31.6501 24.5525 31.6001 24.58C31.4126 24.6825 31.2851 24.855 31.2201 25.04H33.6801L32.0201 22.02L30.1801 18.66ZM29.4801 22.86C29.1026 22.9375 28.8201 23.28 28.8201 23.68C28.8201 24.1375 29.1826 24.52 29.6401 24.52C30.0976 24.52 30.4801 24.1375 30.4801 23.68C30.4801 23.2225 30.0976 22.86 29.6401 22.86C29.5826 22.86 29.5351 22.85 29.4801 22.86ZM26.3601 23.42C25.8951 23.405 25.4176 23.51 24.9601 23.76C24.4026 24.065 23.9851 24.53 23.7601 25.04H28.4001C28.3626 24.845 28.2976 24.66 28.2001 24.48C27.8376 23.8175 27.1351 23.4425 26.3601 23.42ZM20.2401 26V34.32H34.3201V26H20.2401ZM23.0601 27.02H31.5001L31.9201 27.44C31.9101 27.4925 31.8801 27.5425 31.8801 27.6C31.8801 28.06 32.2601 28.44 32.7201 28.44C32.7776 28.44 32.8276 28.41 32.8801 28.4L33.3001 28.82V31.5L32.8801 31.92C32.8276 31.91 32.7776 31.88 32.7201 31.88C32.2601 31.88 31.8801 32.26 31.8801 32.72C31.8801 32.7775 31.9101 32.8275 31.9201 32.88L31.5001 33.3H23.0601L22.6401 32.88C22.6501 32.8275 22.6801 32.7775 22.6801 32.72C22.6801 32.26 22.3001 31.88 21.8401 31.88C21.7826 31.88 21.7326 31.91 21.6801 31.92L21.2601 31.5V28.82L21.6801 28.4C21.7326 28.41 21.7826 28.44 21.8401 28.44C22.3001 28.44 22.6801 28.06 22.6801 27.6C22.6801 27.5425 22.6501 27.4925 22.6401 27.44L23.0601 27.02ZM27.2801 27.98C25.8926 27.98 24.7601 28.9525 24.7601 30.16C24.7601 31.3675 25.8926 32.34 27.2801 32.34C28.6676 32.34 29.8001 31.3675 29.8001 30.16C29.8001 28.9525 28.6676 27.98 27.2801 27.98ZM23.1201 29.32C22.6626 29.32 22.2801 29.7025 22.2801 30.16C22.2801 30.6175 22.6626 31 23.1201 31C23.5776 31 23.9601 30.6175 23.9601 30.16C23.9601 29.7025 23.5776 29.32 23.1201 29.32ZM31.4401 29.32C30.9801 29.32 30.6001 29.7 30.6001 30.16C30.6001 30.62 30.9801 31 31.4401 31C31.9001 31 32.2801 30.62 32.2801 30.16C32.2801 29.7 31.9001 29.32 31.4401 29.32Z" fill="white"/>
</g>
<defs>
<clipPath id="clip0_103_11743">
<rect width="16.64" height="16.64" fill="white" transform="translate(17.6802 17.68)"/>
</clipPath>
</defs>
</svg>
