<svg width="18" height="22" viewBox="0 0 18 22" fill="none" xmlns="http://www.w3.org/2000/svg">
<path d="M9.41016 0.509761C4.54323 0.280659 0.5 4.17842 0.5 9V11.25V14.75C0.5 16.1863 1.63291 17.3452 3.04199 17.458C3.1566 19.4192 4.76138 21 6.75 21H7.25684C7.4853 21.3016 7.84351 21.5 8.25 21.5H9.75C10.439 21.5 11 20.9395 11 20.25C11 19.5605 10.439 19 9.75 19H8.25C7.84351 19 7.4853 19.1984 7.25684 19.5H6.75C5.58716 19.5 4.67804 18.6259 4.5498 17.5H5.75C5.94891 17.5 6.13966 17.421 6.28031 17.2803C6.42096 17.1397 6.49998 16.9489 6.5 16.75V11.25C6.49998 11.0511 6.42096 10.8603 6.28031 10.7197C6.13966 10.579 5.94891 10.5 5.75 10.5H2V9C2 5.01257 5.30479 1.81791 9.33887 2.00781C13.0961 2.18447 16 5.43 16 9.21875V10.5H12.25C12.0511 10.5 11.8603 10.579 11.7197 10.7197C11.579 10.8603 11.5 11.0511 11.5 11.25V16.75C11.5 16.9489 11.579 17.1397 11.7197 17.2803C11.8603 17.421 12.0511 17.5 12.25 17.5H14.75C16.2599 17.5 17.5 16.2599 17.5 14.75V11.25V9.21875C17.5 4.66149 13.9899 0.725099 9.41016 0.509761ZM2 12H5V16H3.25C2.55089 16 2 15.4491 2 14.75V12ZM13 12H16V14.75C16 15.4491 15.4491 16 14.75 16H13V12Z" fill="#001D3D"/>
</svg>
