<svg width="25" height="25" viewBox="0 0 25 25" fill="none" xmlns="http://www.w3.org/2000/svg">
<rect width="25" height="25" rx="10" fill="#001D3D"/>
<path d="M17.2628 10.8875L18.0989 10.0514C18.9673 9.183 18.9673 7.76979 18.0989 6.90109C17.6784 6.48097 17.1195 6.25 16.5236 6.25C15.9277 6.25 15.3684 6.48131 14.9483 6.90144L14.1125 7.73723L17.2628 10.8875ZM13.3857 8.46406L7.19378 14.656C7.06185 14.7879 6.96144 14.9507 6.90319 15.1271L5.75521 18.5954C5.69387 18.7798 5.74218 18.983 5.8796 19.1204C5.97795 19.2184 6.10885 19.2708 6.24318 19.2708C6.29733 19.2708 6.35181 19.2623 6.40493 19.2448L9.87217 18.0965C10.0493 18.0382 10.2125 17.9378 10.3444 17.8055L16.5359 11.614L13.3857 8.46406Z" fill="white"/>
</svg>
