<svg width="24" height="24" viewBox="0 0 24 24" fill="none" xmlns="http://www.w3.org/2000/svg">
<g clip-path="url(#clip0_329_15642)">
<path d="M18.0288 1.41345L13.1538 4.0673L5.0769 8.48076L0.201904 11.1635L2.30767 14.9711V12C2.30767 11.2356 2.92787 10.6154 3.69229 10.6154H4.44229L4.47114 10.5L15.1731 4.64422L15.9808 4.87499C16.0024 4.94711 16.0276 5.03364 16.0673 5.10576C16.3846 5.68629 17.1021 5.91345 17.6827 5.59614C17.7512 5.55648 17.7981 5.47355 17.8558 5.42307L18.6923 5.68268L20.5384 9.05768L20.3077 9.89422C20.2356 9.91586 20.149 9.91225 20.0769 9.95191C19.8065 10.0998 19.6226 10.3485 19.5288 10.6154H23.0769L20.6827 6.25961L18.0288 1.41345ZM17.0192 7.47114C16.4747 7.58292 16.0673 8.07691 16.0673 8.65384C16.0673 9.31369 16.5901 9.86538 17.25 9.86538C17.9098 9.86538 18.4615 9.31369 18.4615 8.65384C18.4615 7.99398 17.9098 7.47114 17.25 7.47114C17.167 7.47114 17.0985 7.45672 17.0192 7.47114ZM12.5192 8.27884C11.8485 8.2572 11.1598 8.40865 10.5 8.76922C9.69589 9.20913 9.09373 9.8798 8.76921 10.6154H15.4615C15.4074 10.3341 15.3137 10.0673 15.1731 9.80768C14.6502 8.85215 13.637 8.31129 12.5192 8.27884ZM3.69229 12V24H24V12H3.69229ZM7.7596 13.4711H19.9327L20.5384 14.0769C20.524 14.1526 20.4808 14.2248 20.4808 14.3077C20.4808 14.9711 21.0288 15.5192 21.6923 15.5192C21.7752 15.5192 21.8473 15.476 21.9231 15.4615L22.5288 16.0673V19.9327L21.9231 20.5385C21.8473 20.524 21.7752 20.4808 21.6923 20.4808C21.0288 20.4808 20.4808 21.0288 20.4808 21.6923C20.4808 21.7752 20.524 21.8473 20.5384 21.9231L19.9327 22.5288H7.7596L7.15383 21.9231C7.16825 21.8473 7.21152 21.7752 7.21152 21.6923C7.21152 21.0288 6.66344 20.4808 5.99998 20.4808C5.91705 20.4808 5.84493 20.524 5.76921 20.5385L5.16344 19.9327V16.0673L5.76921 15.4615C5.84493 15.476 5.91705 15.5192 5.99998 15.5192C6.66344 15.5192 7.21152 14.9711 7.21152 14.3077C7.21152 14.2248 7.16825 14.1526 7.15383 14.0769L7.7596 13.4711ZM13.8461 14.8558C11.8449 14.8558 10.2115 16.2584 10.2115 18C10.2115 19.7416 11.8449 21.1442 13.8461 21.1442C15.8473 21.1442 17.4808 19.7416 17.4808 18C17.4808 16.2584 15.8473 14.8558 13.8461 14.8558ZM7.84614 16.7885C7.18628 16.7885 6.6346 17.3401 6.6346 18C6.6346 18.6598 7.18628 19.2115 7.84614 19.2115C8.50599 19.2115 9.05767 18.6598 9.05767 18C9.05767 17.3401 8.50599 16.7885 7.84614 16.7885ZM19.8461 16.7885C19.1827 16.7885 18.6346 17.3365 18.6346 18C18.6346 18.6635 19.1827 19.2115 19.8461 19.2115C20.5096 19.2115 21.0577 18.6635 21.0577 18C21.0577 17.3365 20.5096 16.7885 19.8461 16.7885Z" fill="#94B0CB"/>
</g>
<defs>
<clipPath id="clip0_329_15642">
<rect width="24" height="24" fill="white"/>
</clipPath>
</defs>
</svg>
