<svg width="50" height="50" viewBox="0 0 50 50" fill="none" xmlns="http://www.w3.org/2000/svg">
<path d="M7.8125 9.375C5.24292 9.375 3.125 11.4929 3.125 14.0625V35.9375C3.125 38.5071 5.24292 40.625 7.8125 40.625H42.1875C44.7571 40.625 46.875 38.5071 46.875 35.9375V14.0625C46.875 11.4929 44.7571 9.375 42.1875 9.375H7.8125ZM7.8125 12.5H42.1875C43.0725 12.5 43.75 13.1775 43.75 14.0625V35.9375C43.75 36.8225 43.0725 37.5 42.1875 37.5H7.8125C6.92749 37.5 6.25 36.8225 6.25 35.9375V14.0625C6.25 13.1775 6.92749 12.5 7.8125 12.5ZM30.3223 19.3359C27.3132 19.3359 25.7324 20.8191 25.7324 22.7051C25.7324 26.1108 29.7363 25.6409 29.7363 27.3926C29.7363 27.6917 29.4861 28.3691 27.832 28.3691C26.178 28.3691 25.0977 27.7832 25.0977 27.7832L24.6094 30.0293C24.6094 30.0293 25.6348 30.6641 27.6855 30.6641C29.7363 30.6641 32.6172 29.0894 32.6172 26.8066C32.6172 24.0601 28.6133 23.877 28.6133 22.6562C28.6133 22.0337 29.1443 21.5332 30.5664 21.5332C31.4941 21.5332 32.5195 22.2656 32.5195 22.2656L33.0078 19.873C33.0078 19.873 31.6467 19.3359 30.3223 19.3359ZM17.4805 19.5312L14.8438 27.2461C14.8438 27.2461 14.7095 26.5808 14.6484 26.1719C13.1592 22.8271 10.7422 21.582 10.7422 21.582L13.0371 30.3223H16.1621L20.5566 19.5312H17.4805ZM21.6797 19.5312L19.9707 30.3223H22.8516L24.5605 19.5312H21.6797ZM37.207 19.5312L32.5195 30.3223H35.3516L35.9375 28.8086H39.5508L39.8438 30.3223H42.4316L40.2344 19.5312H37.207ZM7.56836 19.5801C7.56836 19.5801 13.1897 21.3013 14.502 25.5371L13.5254 20.6543C13.5254 20.6543 13.0981 19.5801 11.9629 19.5801H7.56836ZM38.2812 22.6562L39.1113 26.709H36.7676L38.2812 22.6562Z" fill="white"/>
</svg>
