<svg width="24" height="24" viewBox="0 0 24 24" fill="none" xmlns="http://www.w3.org/2000/svg">
<path d="M9.75002 1.5C8.24014 1.5 7.00002 2.74011 7.00002 4.25V6H5.25002C4.83652 6 4.50002 5.6635 4.50002 5.25C4.50002 4.8365 4.83652 4.5 5.25002 4.5H6.00002V4.25C6.00002 3.811 6.0793 3.3915 6.2178 3H5.25002C4.06534 3 3.10187 3.92358 3.01663 5.08691C3.00515 5.14051 2.99958 5.19519 3.00002 5.25V6.75V18.75C3.00002 19.9838 4.01627 21 5.25002 21H18.75C19.9838 21 21 19.9838 21 18.75V8.25C21 7.1017 20.1167 6.15285 19 6.02539V4.25C19 2.74011 17.7599 1.5 16.25 1.5H9.75002ZM9.75002 3H10.5V6H8.50002V4.25C8.50002 3.55089 9.05091 3 9.75002 3ZM12 3H16.25C16.9491 3 17.5 3.55089 17.5 4.25V6H12V3ZM4.50002 7.5H7.62698C7.70749 7.51323 7.78963 7.51323 7.87014 7.5H18.127C18.2075 7.51323 18.2896 7.51323 18.3701 7.5H18.75C19.1733 7.5 19.5 7.82675 19.5 8.25V18.75C19.5 19.1733 19.1733 19.5 18.75 19.5H5.25002C4.82677 19.5 4.50002 19.1733 4.50002 18.75V7.5ZM16.75 12C16.4185 12 16.1006 12.1317 15.8661 12.3661C15.6317 12.6005 15.5 12.9185 15.5 13.25C15.5 13.5815 15.6317 13.8995 15.8661 14.1339C16.1006 14.3683 16.4185 14.5 16.75 14.5C17.0815 14.5 17.3995 14.3683 17.6339 14.1339C17.8683 13.8995 18 13.5815 18 13.25C18 12.9185 17.8683 12.6005 17.6339 12.3661C17.3995 12.1317 17.0815 12 16.75 12Z" fill="#94B0CB"/>
</svg>
