<svg width="24" height="24" viewBox="0 0 24 24" fill="none" xmlns="http://www.w3.org/2000/svg">
<path d="M12.0001 2C8.73215 2 5.82565 3.57458 4.00008 6.00586V4.25C4.00152 4.14962 3.98279 4.04997 3.94501 3.95695C3.90722 3.86394 3.85115 3.77946 3.78012 3.70852C3.70909 3.63757 3.62453 3.58161 3.53147 3.54395C3.43841 3.50629 3.33874 3.48769 3.23836 3.48926C3.03961 3.49236 2.85023 3.57422 2.7118 3.71686C2.57338 3.8595 2.49722 4.05125 2.50007 4.25V7.75C2.50009 7.94891 2.57912 8.13966 2.71977 8.28031C2.86041 8.42096 3.05117 8.49998 3.25007 8.5H6.75007C6.84946 8.50141 6.94813 8.48304 7.04036 8.44598C7.13258 8.40892 7.21652 8.3539 7.2873 8.28412C7.35808 8.21434 7.41428 8.13118 7.45264 8.03949C7.491 7.9478 7.51076 7.84939 7.51076 7.75C7.51076 7.65061 7.491 7.5522 7.45264 7.46051C7.41428 7.36882 7.35808 7.28566 7.2873 7.21588C7.21652 7.1461 7.13258 7.09108 7.04036 7.05402C6.94813 7.01696 6.84946 6.99859 6.75007 7H5.12508C6.66961 4.8791 9.16966 3.5 12.0001 3.5C16.7032 3.5 20.5001 7.29685 20.5001 12C20.5001 16.7031 16.7032 20.5 12.0001 20.5C7.29693 20.5 3.50007 16.7031 3.50007 12C3.50148 11.9006 3.48312 11.8019 3.44606 11.7097C3.409 11.6175 3.35398 11.5336 3.2842 11.4628C3.21441 11.392 3.13126 11.3358 3.03956 11.2974C2.94787 11.2591 2.84947 11.2393 2.75007 11.2393C2.65068 11.2393 2.55228 11.2591 2.46059 11.2974C2.36889 11.3358 2.28574 11.392 2.21595 11.4628C2.14617 11.5336 2.09115 11.6175 2.05409 11.7097C2.01703 11.8019 1.99867 11.9006 2.00008 12C2.00008 17.5139 6.48622 22 12.0001 22C17.5139 22 22.0001 17.5139 22.0001 12C22.0001 6.48615 17.5139 2 12.0001 2ZM11.7384 6.48926C11.5396 6.49236 11.3502 6.57423 11.2118 6.71686C11.0734 6.8595 10.9972 7.05125 11.0001 7.25V13.25C11.0001 13.4489 11.0791 13.6397 11.2198 13.7803C11.3604 13.921 11.5512 14 11.7501 14H15.7501C15.8495 14.0014 15.9481 13.983 16.0404 13.946C16.1326 13.9089 16.2165 13.8539 16.2873 13.7841C16.3581 13.7143 16.4143 13.6312 16.4526 13.5395C16.491 13.4478 16.5108 13.3494 16.5108 13.25C16.5108 13.1506 16.491 13.0522 16.4526 12.9605C16.4143 12.8688 16.3581 12.7857 16.2873 12.7159C16.2165 12.6461 16.1326 12.5911 16.0404 12.554C15.9481 12.517 15.8495 12.4986 15.7501 12.5H12.5001V7.25C12.5015 7.14962 12.4828 7.04997 12.445 6.95695C12.4072 6.86394 12.3512 6.77946 12.2801 6.70852C12.2091 6.63758 12.1245 6.58161 12.0315 6.54395C11.9384 6.50629 11.8387 6.48769 11.7384 6.48926Z" fill="#94B0CB"/>
</svg>
