<svg width="48" height="48" viewBox="0 0 48 48" fill="none" xmlns="http://www.w3.org/2000/svg">
<path d="M32 10C30.1615 10 28.341 10.3621 26.6424 11.0657C24.9439 11.7693 23.4005 12.8005 22.1005 14.1005C20.8005 15.4005 19.7693 16.9439 19.0657 18.6424C18.3621 20.341 18 22.1615 18 24C18 25.8385 18.3621 27.659 19.0657 29.3576C19.7693 31.0561 20.8005 32.5995 22.1005 33.8995C23.4005 35.1995 24.9439 36.2307 26.6424 36.9343C28.341 37.6379 30.1615 38 32 38C33.8385 38 35.659 37.6379 37.3576 36.9343C39.0561 36.2307 40.5995 35.1995 41.8995 33.8995C43.1995 32.5995 44.2307 31.0561 44.9343 29.3576C45.6379 27.659 46 25.8385 46 24C46 22.1615 45.6379 20.341 44.9343 18.6424C44.2307 16.9439 43.1995 15.4005 41.8995 14.1005C40.5995 12.8005 39.0561 11.7693 37.3576 11.0657C35.659 10.3621 33.8385 10 32 10Z" fill="#FF9800"/>
<path d="M16 10C14.1615 10 12.341 10.3621 10.6424 11.0657C8.94387 11.7693 7.40053 12.8005 6.1005 14.1005C4.80048 15.4005 3.76925 16.9439 3.06569 18.6424C2.36212 20.341 2 22.1615 2 24C2 25.8385 2.36212 27.659 3.06569 29.3576C3.76925 31.0561 4.80048 32.5995 6.1005 33.8995C7.40053 35.1995 8.94387 36.2307 10.6424 36.9343C12.341 37.6379 14.1615 38 16 38C17.8385 38 19.659 37.6379 21.3576 36.9343C23.0561 36.2307 24.5995 35.1995 25.8995 33.8995C27.1995 32.5995 28.2307 31.0561 28.9343 29.3576C29.6379 27.659 30 25.8385 30 24C30 22.1615 29.6379 20.341 28.9343 18.6424C28.2307 16.9439 27.1995 15.4005 25.8995 14.1005C24.5995 12.8005 23.0561 11.7693 21.3576 11.0657C19.659 10.3621 17.8385 10 16 10Z" fill="#D50000"/>
<path d="M18 23.9995C18 28.7545 20.376 32.9495 24 35.4795C27.624 32.9495 30 28.7545 30 23.9995C30 19.2445 27.624 15.0495 24 12.5195C20.376 15.0495 18 19.2445 18 23.9995Z" fill="#FF3D00"/>
</svg>
