<svg width="25" height="26" viewBox="0 0 25 26" fill="none" xmlns="http://www.w3.org/2000/svg">
<path d="M3.90625 5.1875C2.62146 5.1875 1.5625 6.24646 1.5625 7.53125V18.4688C1.5625 19.7535 2.62146 20.8125 3.90625 20.8125H21.0938C22.3785 20.8125 23.4375 19.7535 23.4375 18.4688V7.53125C23.4375 6.24646 22.3785 5.1875 21.0938 5.1875H3.90625ZM3.90625 6.75H21.0938C21.5363 6.75 21.875 7.08875 21.875 7.53125V18.4688C21.875 18.9113 21.5363 19.25 21.0938 19.25H3.90625C3.46375 19.25 3.125 18.9113 3.125 18.4688V7.53125C3.125 7.08875 3.46375 6.75 3.90625 6.75ZM8.59375 8.3125C6.87561 8.3125 5.46875 9.71936 5.46875 11.4375C5.46875 12.3073 5.84106 13.0916 6.4209 13.6592C5.38025 14.3641 4.6875 15.5635 4.6875 16.9062H6.25C6.25 15.6031 7.29065 14.5625 8.59375 14.5625C9.89685 14.5625 10.9375 15.6031 10.9375 16.9062H12.5C12.5 15.5635 11.8073 14.3641 10.7666 13.6592C11.3464 13.0916 11.7188 12.3073 11.7188 11.4375C11.7188 9.71936 10.3119 8.3125 8.59375 8.3125ZM14.0625 9.09375V10.6562H20.3125V9.09375H14.0625ZM8.59375 9.875C9.46655 9.875 10.1562 10.5647 10.1562 11.4375C10.1562 12.3103 9.46655 13 8.59375 13C7.72095 13 7.03125 12.3103 7.03125 11.4375C7.03125 10.5647 7.72095 9.875 8.59375 9.875ZM14.0625 12.2188V13.7812H20.3125V12.2188H14.0625ZM14.0625 15.3438V16.9062H17.9688V15.3438H14.0625Z" fill="#001D3D"/>
</svg>
