<svg width="50" height="50" viewBox="0 0 50 50" fill="none" xmlns="http://www.w3.org/2000/svg">
<circle cx="25" cy="25" r="25" fill="#E5EBF0"/>
<circle cx="25" cy="25" r="16" fill="#001D3D"/>
<path d="M24.9999 16.25C24.6688 16.25 24.3476 16.3627 24.0891 16.5695C23.8305 16.7764 23.6501 17.065 23.5773 17.388C23.5046 17.711 23.544 18.0491 23.6889 18.3468C23.8339 18.6445 24.0758 18.884 24.3749 19.0259V20.625C24.3737 20.7078 24.389 20.79 24.4199 20.8669C24.4508 20.9438 24.4967 21.0137 24.5548 21.0727C24.613 21.1317 24.6823 21.1785 24.7587 21.2105C24.8351 21.2424 24.9171 21.2589 24.9999 21.2589C25.0827 21.2589 25.1647 21.2424 25.2412 21.2105C25.3176 21.1785 25.3869 21.1317 25.445 21.0727C25.5032 21.0137 25.549 20.9438 25.5799 20.8669C25.6108 20.79 25.6261 20.7078 25.6249 20.625V19.0243C25.9231 18.8818 26.1641 18.6423 26.3084 18.345C26.4526 18.0477 26.4917 17.7102 26.419 17.3878C26.3464 17.0654 26.1664 16.7773 25.9086 16.5705C25.6508 16.3638 25.3304 16.2508 24.9999 16.25ZM18.9583 19.1667C18.5715 19.1667 18.2005 19.3203 17.9271 19.5938C17.6536 19.8673 17.4999 20.2382 17.4999 20.625C17.4999 21.0118 17.6536 21.3827 17.9271 21.6562C18.2005 21.9297 18.5715 22.0833 18.9583 22.0833C19.2212 22.0827 19.479 22.011 19.7045 21.8758L21.324 22.9598C21.3921 23.0085 21.4693 23.043 21.5509 23.0613C21.6326 23.0796 21.7172 23.0813 21.7995 23.0663C21.8819 23.0514 21.9604 23.02 22.0304 22.974C22.1004 22.9281 22.1605 22.8686 22.2071 22.799C22.2536 22.7295 22.2857 22.6513 22.3015 22.569C22.3172 22.4868 22.3163 22.4023 22.2988 22.3204C22.2812 22.2385 22.2474 22.161 22.1994 22.0925C22.1513 22.024 22.0899 21.9658 22.019 21.9214L20.3995 20.8382C20.4301 20.6311 20.4158 20.4197 20.3574 20.2186C20.299 20.0175 20.1981 19.8313 20.0613 19.6727C19.9246 19.5141 19.7553 19.3868 19.5649 19.2995C19.3746 19.2122 19.1677 19.1669 18.9583 19.1667ZM31.0416 19.1667C30.8322 19.1669 30.6253 19.2122 30.4349 19.2995C30.2446 19.3868 30.0753 19.5141 29.9385 19.6727C29.8018 19.8313 29.7008 20.0175 29.6424 20.2186C29.5841 20.4197 29.5697 20.6311 29.6003 20.8382L27.9809 21.9214C27.9099 21.9658 27.8485 22.024 27.8005 22.0925C27.7524 22.161 27.7186 22.2385 27.7011 22.3204C27.6835 22.4023 27.6826 22.4868 27.6983 22.569C27.7141 22.6513 27.7462 22.7295 27.7928 22.799C27.8393 22.8686 27.8994 22.9281 27.9694 22.974C28.0394 23.02 28.1179 23.0514 28.2003 23.0663C28.2827 23.0813 28.3672 23.0796 28.4489 23.0613C28.5306 23.043 28.6078 23.0085 28.6759 22.9598L30.2937 21.8774C30.5198 22.0123 30.7783 22.0835 31.0416 22.0833C31.4284 22.0833 31.7993 21.9297 32.0728 21.6562C32.3463 21.3827 32.4999 21.0118 32.4999 20.625C32.4999 20.2382 32.3463 19.8673 32.0728 19.5938C31.7993 19.3203 31.4284 19.1667 31.0416 19.1667ZM24.9999 22.0833C24.2187 22.0833 23.5536 22.3988 23.1265 22.8792C22.6995 23.3597 22.4999 23.9757 22.4999 24.5833C22.4999 25.191 22.6995 25.807 23.1265 26.2874C23.5536 26.7679 24.2187 27.0833 24.9999 27.0833C25.7812 27.0833 26.4462 26.7679 26.8733 26.2874C27.3003 25.807 27.4999 25.191 27.4999 24.5833C27.4999 23.9757 27.3003 23.3597 26.8733 22.8792C26.4462 22.3988 25.7812 22.0833 24.9999 22.0833ZM24.9999 23.3333C25.4687 23.3333 25.7411 23.4866 25.939 23.7093C26.137 23.932 26.2499 24.2535 26.2499 24.5833C26.2499 24.9132 26.137 25.2347 25.939 25.4574C25.7411 25.6801 25.4687 25.8333 24.9999 25.8333C24.5312 25.8333 24.2587 25.6801 24.0608 25.4574C23.8628 25.2347 23.7499 24.9132 23.7499 24.5833C23.7499 24.2535 23.8628 23.932 24.0608 23.7093C24.2587 23.4866 24.5312 23.3333 24.9999 23.3333ZM28.6498 25.4858C28.5039 25.4841 28.362 25.5334 28.2487 25.6252C28.1353 25.7171 28.0577 25.8457 28.0292 25.9887C28.0007 26.1318 28.0231 26.2804 28.0926 26.4086C28.1621 26.5369 28.2743 26.6368 28.4097 26.6911L30.0024 27.3592C30.0197 27.7337 30.1807 28.0872 30.4518 28.3462C30.7229 28.6052 31.0833 28.7498 31.4583 28.75C31.845 28.75 32.216 28.5964 32.4894 28.3229C32.7629 28.0494 32.9166 27.6784 32.9166 27.2917C32.9166 26.9049 32.7629 26.534 32.4894 26.2605C32.216 25.987 31.845 25.8333 31.4583 25.8333C31.0995 25.8338 30.7536 25.9665 30.4866 26.2061L28.8931 25.5379C28.8163 25.5044 28.7336 25.4867 28.6498 25.4858ZM21.3313 25.4867C21.2539 25.4897 21.1777 25.5071 21.1067 25.5379L19.5141 26.2061C19.2468 25.9664 18.9006 25.8336 18.5416 25.8333C18.1548 25.8333 17.7839 25.987 17.5104 26.2605C17.2369 26.534 17.0833 26.9049 17.0833 27.2917C17.0833 27.6784 17.2369 28.0494 17.5104 28.3229C17.7839 28.5964 18.1548 28.75 18.5416 28.75C18.9165 28.7498 19.277 28.6052 19.5481 28.3462C19.8192 28.0872 19.9801 27.7337 19.9975 27.3592L21.5901 26.6911C21.7268 26.6361 21.8397 26.5346 21.9088 26.4044C21.9779 26.2743 21.9988 26.1239 21.9679 25.9799C21.9369 25.8358 21.8561 25.7073 21.7396 25.6171C21.6231 25.5268 21.4785 25.4806 21.3313 25.4867ZM22.7083 27.9167C21.9104 27.9167 21.2499 28.5771 21.2499 29.375V30.4167C21.2499 31.2159 21.7832 31.8672 22.469 32.2786C23.1548 32.6901 24.0357 32.9167 24.9999 32.9167C25.9642 32.9167 26.8451 32.6901 27.5308 32.2786C28.2166 31.8672 28.7499 31.2159 28.7499 30.4167V29.375C28.7499 28.5771 28.0895 27.9167 27.2916 27.9167H22.7083ZM22.7083 29.1667H27.2916C27.4145 29.1667 27.4999 29.2521 27.4999 29.375V30.4167C27.4999 30.6529 27.3332 30.9397 26.8879 31.2069C26.4427 31.474 25.7615 31.6667 24.9999 31.6667C24.2384 31.6667 23.5572 31.474 23.1119 31.2069C22.6666 30.9397 22.4999 30.6529 22.4999 30.4167V29.375C22.4999 29.2521 22.5853 29.1667 22.7083 29.1667Z" fill="white"/>
</svg>
