<svg width="50" height="50" viewBox="0 0 50 50" fill="none" xmlns="http://www.w3.org/2000/svg">
<circle cx="25" cy="25" r="25" fill="#E5EBF0"/>
<circle cx="25" cy="25" r="16" fill="#FF0000"/>
<path d="M25 16.667C22.3546 16.667 19.9934 17.9074 18.4684 19.8335C18.417 19.8978 18.3789 19.9716 18.3561 20.0507C18.3334 20.1298 18.3264 20.2125 18.3357 20.2943C18.3451 20.3761 18.3704 20.4552 18.4104 20.5271C18.4503 20.5991 18.5041 20.6624 18.5686 20.7135C18.6331 20.7646 18.707 20.8025 18.7862 20.8249C18.8654 20.8474 18.9482 20.854 19.0299 20.8443C19.1116 20.8347 19.1907 20.8091 19.2624 20.7688C19.3342 20.7286 19.3973 20.6746 19.4482 20.6099C20.7465 18.9702 22.7445 17.917 25 17.917C28.9192 17.917 32.0833 21.081 32.0833 25.0003C32.0833 28.9196 28.9192 32.0837 25 32.0837C22.7445 32.0837 20.7465 31.0305 19.4482 29.3908C19.3973 29.3261 19.3342 29.2721 19.2624 29.2318C19.1907 29.1916 19.1116 29.1659 19.0299 29.1563C18.9482 29.1467 18.8654 29.1533 18.7862 29.1757C18.707 29.1982 18.6331 29.2361 18.5686 29.2872C18.5041 29.3383 18.4503 29.4016 18.4104 29.4735C18.3704 29.5455 18.3451 29.6246 18.3357 29.7063C18.3264 29.7881 18.3334 29.8709 18.3561 29.95C18.3789 30.0291 18.417 30.1029 18.4684 30.1672C19.9934 32.0933 22.3546 33.3337 25 33.3337C29.5948 33.3337 33.3333 29.5952 33.3333 25.0003C33.3333 20.4054 29.5948 16.667 25 16.667ZM19.7794 21.8696C19.6171 21.8744 19.463 21.9421 19.3497 22.0584L16.8497 24.5584C16.7326 24.6756 16.6667 24.8346 16.6667 25.0003C16.6667 25.1661 16.7326 25.325 16.8497 25.4422L19.3497 27.9422C19.4073 28.0022 19.4763 28.0501 19.5526 28.0831C19.629 28.1161 19.7111 28.1335 19.7943 28.1343C19.8774 28.1352 19.9599 28.1194 20.0369 28.088C20.1139 28.0566 20.1838 28.0101 20.2426 27.9513C20.3014 27.8925 20.3479 27.8226 20.3793 27.7456C20.4107 27.6686 20.4265 27.5861 20.4256 27.503C20.4248 27.4198 20.4074 27.3377 20.3744 27.2613C20.3414 27.185 20.2935 27.116 20.2335 27.0584L18.7996 25.6245L27.2924 25.6172C27.3753 25.6182 27.4575 25.6028 27.5343 25.5718C27.6111 25.5409 27.681 25.4949 27.7399 25.4367C27.7988 25.3785 27.8455 25.3091 27.8774 25.2327C27.9092 25.1562 27.9256 25.0742 27.9255 24.9914C27.9254 24.9085 27.9088 24.8266 27.8768 24.7502C27.8447 24.6738 27.7978 24.6046 27.7387 24.5465C27.6797 24.4884 27.6097 24.4427 27.5328 24.4119C27.4559 24.3811 27.3736 24.3659 27.2908 24.3672L18.8012 24.3745L20.2335 22.9422C20.3237 22.8544 20.3852 22.7414 20.4101 22.618C20.435 22.4947 20.4221 22.3666 20.373 22.2507C20.3239 22.1348 20.241 22.0364 20.1351 21.9684C20.0292 21.9004 19.9052 21.866 19.7794 21.8696Z" fill="white"/>
</svg>
