<svg width="22" height="19" viewBox="0 0 22 19" fill="none" xmlns="http://www.w3.org/2000/svg">
<path d="M3.3 0H18.7C20.5224 0 21.9998 1.56253 22 3.49008C21.8639 3.49003 21.7255 3.51688 21.5915 3.5736L11.8171 7.70893C11.2926 7.93083 10.7074 7.93083 10.1829 7.70893L0.40853 3.5736C0.274457 3.51688 0.136084 3.49003 1.27016e-08 3.49008C0.000158185 1.56253 1.47756 0 3.3 0Z" fill="#003566"/>
<path d="M0 5.90693V15.125C0 17.0527 1.47746 18.6154 3.3 18.6154H18.7C20.5225 18.6154 22 17.0527 22 15.125V5.90693L12.6341 9.86942C11.5851 10.3132 10.4149 10.3132 9.36588 9.86942L0 5.90693Z" fill="#003566"/>
</svg>
