<svg width="26" height="24" viewBox="0 0 26 24" fill="none" xmlns="http://www.w3.org/2000/svg">
<g clip-path="url(#clip0_329_15636)">
<path d="M19.7308 1.875C19.2012 1.875 18.7692 2.28966 18.7692 2.79808V7.21154L13.6911 2.33654C13.3155 1.97596 12.6845 1.97596 12.3089 2.33654L1.04086 13.1827C0.665255 13.5433 0.665255 14.1202 1.04086 14.4808C1.41646 14.8413 2.01742 14.8413 2.39302 14.4808L13 4.29808L23.637 14.5096C23.8248 14.6899 24.0802 14.7981 24.3281 14.7981C24.576 14.7981 24.8014 14.6899 24.9892 14.5096C25.3648 14.149 25.3648 13.5721 24.9892 13.2115L21.6538 10.0096V2.79808C21.6538 2.28966 21.2219 1.875 20.6923 1.875H19.7308ZM13 6L2.42307 16.1538V21.2308C2.42307 22.7596 3.71513 24 5.30768 24H20.6923C22.2848 24 23.5769 22.7596 23.5769 21.2308V16.1538L13 6ZM11.0769 14.7692H14.9231C15.4527 14.7692 15.8846 15.1839 15.8846 15.6923V21.2308C15.8846 21.7392 15.4527 22.1538 14.9231 22.1538H11.0769C10.5473 22.1538 10.1154 21.7392 10.1154 21.2308V15.6923C10.1154 15.1839 10.5473 14.7692 11.0769 14.7692Z" fill="#001D3D"/>
</g>
<defs>
<clipPath id="clip0_329_15636">
<rect width="25" height="24" fill="white" transform="translate(0.5)"/>
</clipPath>
</defs>
</svg>
