<svg width="331" height="331" viewBox="0 0 331 331" fill="none" xmlns="http://www.w3.org/2000/svg">
<path d="M106.203 129.871H81.9934C81.3195 129.871 80.6522 129.738 80.0299 129.48C79.4073 129.222 78.8416 128.844 78.3656 128.367C77.8893 127.89 77.512 127.324 77.2545 126.702C76.9973 126.079 76.8652 125.411 76.8662 124.737V66.5311C76.8662 65.8579 76.9989 65.1912 77.2565 64.5693C77.5143 63.9477 77.892 63.3827 78.3683 62.9067C78.8443 62.4307 79.4096 62.0534 80.0316 61.7962C80.6535 61.539 81.3202 61.4066 81.9934 61.4073H121.962C122.636 61.4049 123.304 61.536 123.928 61.7922C124.552 62.0487 125.119 62.4257 125.597 62.9017C126.074 63.3777 126.454 63.9434 126.712 64.566C126.971 65.1889 127.105 65.8566 127.105 66.5311V82.2305" stroke="#CCDDE2" stroke-width="1.4895" stroke-miterlimit="10"/>
<path d="M120.747 68.46H83.7308C82.3141 68.46 81.1655 69.6085 81.1655 71.0252V77.9365C81.1655 79.3532 82.3141 80.5017 83.7308 80.5017H120.747C122.163 80.5017 123.312 79.3532 123.312 77.9365V71.0252C123.312 69.6085 122.163 68.46 120.747 68.46Z" stroke="#CCDDE2" stroke-width="1.4895" stroke-miterlimit="10"/>
<path d="M101.979 73.5311C102.666 73.5311 103.223 72.9737 103.223 72.2866C103.223 71.5991 102.666 71.042 101.979 71.042C101.291 71.042 100.734 71.5991 100.734 72.2866C100.734 72.9737 101.291 73.5311 101.979 73.5311Z" fill="#D7E8F0"/>
<path d="M98.4997 77.9232C98.4706 77.4488 98.5385 76.9735 98.7 76.5263C98.8615 76.0792 99.1127 75.6697 99.4385 75.3235C99.7638 74.9773 100.157 74.7012 100.593 74.5125C101.03 74.3239 101.5 74.2266 101.975 74.2266C102.451 74.2266 102.921 74.3239 103.357 74.5125C103.793 74.7012 104.187 74.9773 104.512 75.3235C104.838 75.6697 105.089 76.0792 105.25 76.5263C105.412 76.9735 105.48 77.4488 105.451 77.9232H98.4997Z" fill="#D7E8F0"/>
<path d="M102.233 93.4082C100.906 93.4082 99.6087 93.8018 98.5055 94.5389C97.4019 95.2764 96.542 96.324 96.0343 97.55C95.5265 98.776 95.3934 100.125 95.6523 101.427C95.9115 102.728 96.5503 103.923 97.4887 104.862C98.4271 105.8 99.6223 106.439 100.924 106.698C102.225 106.957 103.574 106.824 104.8 106.316C106.026 105.808 107.074 104.949 107.812 103.845C108.549 102.742 108.942 101.445 108.942 100.118C108.943 99.2364 108.769 98.3639 108.433 97.5497C108.095 96.7354 107.601 95.9956 106.978 95.3724C106.355 94.7494 105.615 94.2552 104.801 93.9183C103.987 93.581 103.114 93.4079 102.233 93.4082ZM102.233 105.205C102.001 105.167 101.79 105.047 101.637 104.868C101.485 104.688 101.401 104.461 101.401 104.225C101.401 103.99 101.485 103.762 101.637 103.583C101.79 103.403 102.001 103.284 102.233 103.246C102.375 103.222 102.521 103.23 102.66 103.268C102.798 103.307 102.927 103.375 103.037 103.468C103.147 103.561 103.235 103.677 103.296 103.808C103.356 103.939 103.387 104.081 103.387 104.225C103.387 104.369 103.356 104.512 103.296 104.643C103.235 104.773 103.147 104.889 103.037 104.983C102.927 105.076 102.798 105.144 102.66 105.182C102.521 105.221 102.375 105.229 102.233 105.205ZM103.474 97.6616C103.314 99.1454 103.041 100.615 102.657 102.057C102.616 102.134 102.556 102.199 102.481 102.244C102.407 102.289 102.322 102.312 102.235 102.312C102.147 102.312 102.062 102.289 101.988 102.244C101.913 102.199 101.853 102.134 101.813 102.057C101.506 100.994 101.272 99.9114 101.111 98.8167C100.975 98.0223 100.512 96.7314 100.955 95.9569C101.346 95.2651 102.451 95.1824 103.09 95.5431C103.875 95.99 103.567 96.9367 103.474 97.6616Z" fill="#D7E8F0"/>
<path d="M85.3784 85.8779H118.151" stroke="#CCDDE2" stroke-width="1.4895" stroke-miterlimit="10"/>
<path d="M85.3784 89.105H118.151" stroke="#CCDDE2" stroke-width="1.4895" stroke-miterlimit="10"/>
<path d="M85.3784 109.875H118.151" stroke="#CCDDE2" stroke-width="1.4895" stroke-miterlimit="10"/>
<path d="M92.9915 112.928H110.538" stroke="#CCDDE2" stroke-width="1.4895" stroke-miterlimit="10"/>
<path d="M287.841 117.433H237.605C233.423 117.433 230.032 120.823 230.032 125.006V210.804C230.032 214.987 233.423 218.378 237.605 218.378H287.841C292.024 218.378 295.414 214.987 295.414 210.804V125.006C295.414 120.823 292.024 117.433 287.841 117.433Z" fill="#FFC300"/>
<path d="M219.173 117.433H184.193C180.01 117.433 176.619 120.823 176.619 125.006V210.804C176.619 214.987 180.01 218.378 184.193 218.378H219.173C223.355 218.378 226.746 214.987 226.746 210.804V125.006C226.746 120.823 223.355 117.433 219.173 117.433Z" fill="#FFC300"/>
<path d="M179.515 269.709H295.054C297.05 269.708 298.964 268.915 300.376 267.504C301.788 266.092 302.582 264.178 302.584 262.182V118.763C302.584 117.774 302.39 116.795 302.012 115.881C301.633 114.967 301.079 114.137 300.38 113.437C299.68 112.738 298.85 112.184 297.936 111.805C297.022 111.427 296.043 111.232 295.054 111.233H216.534L196.012 111.355H195.952L185.575 111.759H185.542L182.812 111.865H182.57L182.368 113.49L181.971 116.512C181.975 116.518 181.978 116.525 181.978 116.532C181.978 116.539 181.975 116.546 181.971 116.552L178.74 121.338L178.078 122.308L176.255 133.979V134.036C176.215 134.019 176.175 133.996 176.125 133.969C176.086 133.946 176.048 133.92 176.013 133.89C175.399 133.428 174.938 132.793 174.689 132.066C174.083 130.53 173.938 128.495 173.931 126.879L173.534 135.747V135.78L172.981 147.626L172.845 150.807C173.103 150.347 173.474 149.685 173.904 148.894L172.531 157.672L172.246 163.998L171.538 179.982L171.511 180.577V180.806L171.326 184.698V184.788C171.326 184.788 170.796 196.211 170.796 196.227L170.747 197.286L170.134 201.91L168.347 214.849V262.182C168.347 263.531 168.711 264.854 169.399 266.014C170.088 267.173 171.076 268.126 172.259 268.772C174.5 269.987 176.979 269.825 179.442 269.742C180.104 269.722 180.766 269.693 181.428 269.656" fill="#FFC300"/>
<path d="M175.13 267.24C175.083 267.24 175.034 267.197 174.977 267.181C174.348 266.955 173.753 266.643 173.21 266.254C172.256 265.576 171.479 264.68 170.944 263.639C170.409 262.599 170.132 261.446 170.135 260.276V197.108L168.347 197.965L168.235 198.022L167.993 197.422L166.798 194.443L166.467 193.619L163.445 186.076C163.445 186.076 169.185 162.853 172.981 147.627C174.372 142.036 175.504 137.521 175.98 135.625C176.126 135.059 176.212 134.728 176.229 134.671C176.23 134.658 176.23 134.645 176.229 134.632C176.238 134.519 176.221 134.406 176.179 134.301C176.132 134.179 176.075 134.06 176.01 133.947C176.002 133.923 175.991 133.901 175.977 133.88C175.583 133.211 175.141 132.571 174.653 131.967L174.024 124.179L174.127 124.099L174.603 123.719L177.86 121.137L178.618 119.131L180.105 115.232L180.767 113.494H182.342H182.746H185.596L196.128 113.461H197.032L217.014 113.342H293.472C294.435 113.342 295.388 113.531 296.278 113.9C297.167 114.269 297.975 114.809 298.655 115.491C299.335 116.172 299.875 116.98 300.242 117.871C300.61 118.76 300.798 119.714 300.797 120.677V260.276C300.798 261.239 300.61 262.192 300.242 263.082C299.875 263.972 299.335 264.781 298.655 265.462C297.975 266.143 297.167 266.684 296.278 267.052C295.388 267.421 294.435 267.611 293.472 267.611H179.654" fill="#FFC300"/>
<path d="M182.779 111.428L185.486 111.412H185.543L195.936 111.355H196.009L216.531 111.233H295.054C297.051 111.234 298.966 112.027 300.378 113.439C301.79 114.851 302.583 116.766 302.584 118.763V262.182C302.582 264.178 301.788 266.092 300.376 267.504C298.965 268.915 297.05 269.708 295.054 269.709H175.672C173.727 269.709 171.861 268.936 170.486 267.561C169.11 266.185 168.337 264.319 168.337 262.374V246.715" stroke="#003566" stroke-width="1.4895" stroke-miterlimit="10"/>
<path d="M287.842 225.792H184.193C180.01 225.792 176.619 229.182 176.619 233.365V254.42C176.619 258.603 180.01 261.993 184.193 261.993H287.842C292.025 261.993 295.415 258.603 295.415 254.42V233.365C295.415 229.182 292.025 225.792 287.842 225.792Z" fill="white"/>
<path d="M253.574 233.855H186.619C185.203 233.855 184.054 235.004 184.054 236.42V251.885C184.054 253.301 185.203 254.45 186.619 254.45H253.574C254.991 254.45 256.139 253.301 256.139 251.885V236.42C256.139 235.004 254.991 233.855 253.574 233.855Z" fill="#FFC300"/>
<path d="M241.562 242.53C242.739 242.53 243.693 241.576 243.693 240.398C243.693 239.221 242.739 238.267 241.562 238.267C240.384 238.267 239.43 239.221 239.43 240.398C239.43 241.576 240.384 242.53 241.562 242.53Z" fill="white"/>
<path d="M235.609 250.036C235.609 248.456 236.237 246.941 237.354 245.823C238.472 244.706 239.987 244.078 241.567 244.078C243.148 244.078 244.663 244.706 245.78 245.823C246.898 246.941 247.525 248.456 247.525 250.036H235.609Z" fill="white"/>
<path d="M274.324 233.858C272.248 233.856 270.218 234.47 268.491 235.621C266.765 236.773 265.418 238.411 264.623 240.329C263.827 242.246 263.618 244.357 264.022 246.393C264.426 248.429 265.425 250.299 266.892 251.768C268.36 253.236 270.229 254.236 272.265 254.641C274.301 255.047 276.411 254.839 278.329 254.044C280.247 253.25 281.886 251.905 283.039 250.179C284.192 248.452 284.807 246.423 284.807 244.347C284.807 242.97 284.536 241.606 284.01 240.334C283.483 239.062 282.711 237.905 281.738 236.931C280.764 235.957 279.609 235.185 278.337 234.657C277.065 234.13 275.701 233.858 274.324 233.858ZM274.324 252.305C274.116 252.314 273.909 252.281 273.715 252.209C273.52 252.136 273.342 252.025 273.192 251.881C273.042 251.738 272.922 251.565 272.841 251.374C272.759 251.183 272.717 250.978 272.717 250.77C272.717 250.562 272.759 250.357 272.841 250.166C272.922 249.975 273.042 249.803 273.192 249.659C273.342 249.516 273.52 249.404 273.715 249.332C273.909 249.259 274.116 249.226 274.324 249.236C274.718 249.254 275.091 249.424 275.364 249.71C275.636 249.995 275.789 250.375 275.789 250.77C275.789 251.165 275.636 251.545 275.364 251.831C275.091 252.117 274.718 252.286 274.324 252.305ZM276.254 240.504C275.923 242.782 275.655 245.171 274.976 247.376C274.824 247.909 273.821 247.909 273.652 247.376C273.171 245.715 272.804 244.023 272.553 242.312C272.341 241.07 271.616 239.051 272.311 237.846C272.924 236.764 274.652 236.635 275.645 237.184C276.883 237.886 276.386 239.372 276.254 240.504Z" fill="#FFC300"/>
<path d="M285.466 190.405C284.957 194.791 283.142 198.922 280.255 202.263C277.368 205.604 273.544 207.999 269.278 209.139C265.013 210.278 260.503 210.109 256.335 208.652C252.167 207.196 248.534 204.52 245.906 200.972C243.278 197.424 241.778 193.167 241.6 188.756C241.422 184.344 242.575 179.981 244.909 176.233C247.243 172.485 250.649 169.526 254.687 167.739C258.724 165.951 263.205 165.42 267.549 166.212C267.74 166.249 267.921 166.325 268.081 166.434C268.242 166.544 268.379 166.685 268.483 166.849C268.587 167.014 268.656 167.198 268.686 167.39C268.716 167.582 268.706 167.778 268.657 167.966L268.224 169.658L264.338 184.831C264.276 185.073 264.279 185.327 264.346 185.567C264.413 185.808 264.542 186.027 264.721 186.201C264.899 186.376 265.12 186.501 265.362 186.563C265.604 186.625 265.858 186.622 266.099 186.555L281.182 182.338L283.245 181.762C283.428 181.711 283.621 181.696 283.81 181.721C283.999 181.745 284.182 181.807 284.346 181.903C284.511 181.999 284.655 182.127 284.769 182.28C284.884 182.432 284.966 182.607 285.012 182.792C285.606 185.284 285.759 187.86 285.466 190.405Z" fill="white"/>
<path d="M285.984 174.768C286.055 174.952 286.087 175.15 286.077 175.349C286.067 175.547 286.015 175.74 285.926 175.917C285.836 176.094 285.711 176.25 285.557 176.375C285.403 176.501 285.225 176.592 285.034 176.644L283.614 177.042L271.33 180.474C271.09 180.541 270.836 180.544 270.594 180.481C270.352 180.419 270.131 180.295 269.952 180.12C269.774 179.945 269.645 179.726 269.577 179.486C269.51 179.245 269.508 178.992 269.569 178.75L272.744 166.397L273.048 165.212C273.096 165.023 273.182 164.847 273.301 164.693C273.42 164.539 273.57 164.412 273.74 164.319C273.911 164.226 274.099 164.169 274.292 164.152C274.486 164.134 274.681 164.157 274.865 164.219C277.364 165.081 279.65 166.469 281.568 168.288C283.485 170.108 284.991 172.317 285.984 174.768Z" fill="white"/>
<path d="M263.291 137.173C266.633 137.173 269.342 134.464 269.342 131.122C269.342 127.781 266.633 125.071 263.291 125.071C259.95 125.071 257.241 127.781 257.241 131.122C257.241 134.464 259.95 137.173 263.291 137.173Z" fill="#D7E8F0"/>
<path d="M285.611 144.494H241.565V145.706H285.611V144.494Z" fill="#D7E8F0"/>
<path d="M285.611 148.976H241.565V150.188H285.611V148.976Z" fill="#D7E8F0"/>
<path d="M285.611 153.062H241.565V154.273H285.611V153.062Z" fill="#D7E8F0"/>
<path d="M219.033 169.803H184.53V171.014H219.033V169.803Z" fill="#D7E8F0"/>
<path d="M219.033 174.691H184.53V175.903H219.033V174.691Z" fill="#D7E8F0"/>
<path d="M219.033 179.578H184.53V180.79H219.033V179.578Z" fill="#D7E8F0"/>
<path d="M219.033 184.467H184.53V185.678H219.033V184.467Z" fill="#D7E8F0"/>
<path d="M219.033 189.355H184.53V190.567H219.033V189.355Z" fill="#D7E8F0"/>
<path d="M179.795 135.38C179.795 135.38 190.281 151.894 202.231 157.084C214.18 162.274 217.913 164.568 222.484 162.711C227.056 160.854 235.83 158.252 242.013 139.872C248.197 121.491 251.142 111.816 251.361 107.364C251.579 102.912 239.286 106.57 239.286 106.57C239.286 106.57 232.666 126.082 218.162 134.791L197.504 112.971L179.795 135.38Z" fill="white"/>
<path d="M167.543 160.758L175.983 163.048C175.983 163.048 166.182 176.563 174.898 190.713C183.613 204.864 201.56 233.412 201.56 233.412L235.911 288.027L203.784 283.549L179.796 257.274L167.549 245.064L152.201 197.151L167.543 160.758Z" fill="white"/>
<path d="M29.728 230.598C30.4869 231.009 31.3653 231.141 32.2115 230.972C33.0577 230.804 33.8184 230.345 34.3619 229.675L46.8539 214.359L56.9328 201.709L48.681 197.075C47.8263 196.592 46.8148 196.468 45.8691 196.731C44.9231 196.993 44.1201 197.62 43.6365 198.475L28.2583 225.484C28.0133 225.915 27.8569 226.391 27.7983 226.883C27.7397 227.375 27.78 227.874 27.9169 228.35C28.0538 228.827 28.2846 229.271 28.5956 229.657C28.9066 230.043 29.2916 230.363 29.728 230.598Z" fill="#001D3D"/>
<path d="M219.874 302.839L230.271 313.067C231.168 313.952 232.377 314.449 233.637 314.451H259.637C260.444 314.454 261.234 314.222 261.911 313.785C262.588 313.346 263.123 312.72 263.45 311.983C263.778 311.246 263.884 310.43 263.755 309.634C263.626 308.838 263.269 308.096 262.726 307.5C262.042 306.735 261.098 306.254 260.078 306.149L245.656 304.67L219.874 302.839Z" fill="#001D3D"/>
<path d="M124.93 174.913C124.93 174.913 145.038 180.507 158.444 182.175C171.849 183.843 170.909 178.283 170.909 178.283L172.548 171.259C176.851 164.248 179.35 149.333 179.35 149.333L181.078 137.665L183.6 142.104L191.752 150.316L191.852 150.396C191.603 146.473 191.792 140.962 192.706 133.455C194.811 116.078 201.782 118.093 201.782 118.093L200.759 116.971C195.943 108.958 180.568 100.488 175.656 98.4619C170.744 96.4361 172.846 99.3059 173.471 101.441C174.097 103.576 172.309 109.583 165.15 106.525C157.99 103.467 157.63 96.8135 157.63 96.8135H154.303C133.897 99.2662 123.52 110.149 123.52 110.149C145.197 115.263 140.222 133.65 140.222 133.65L138.256 135.448C130.56 142.121 130.024 148.555 130.689 151.236C131.355 153.918 136.101 157.525 144.671 159.617C153.241 161.709 154.8 161.713 156.736 158.009C158.672 154.305 160.93 153.848 164.018 153.292C167.106 152.736 170.889 154.93 170.026 156.658C169.162 158.386 168.536 156.877 170.688 161.544C172.839 166.211 171.839 168.584 166.054 172.884C160.268 177.184 134.542 174.771 134.542 174.771C122.239 171.368 124.93 174.913 124.93 174.913Z" fill="#001D3D"/>
<path d="M171.962 96.924V97.629V97.8078C177.714 99.245 183.13 101.788 187.91 105.295C188.684 105.861 189.439 106.437 190.184 107.043C190.203 104.61 189.995 102.167 189.21 99.8633C188.575 97.8862 187.378 96.1372 185.765 94.8288C184.345 93.6967 182.667 92.9719 180.978 92.3165C179.29 91.6611 177.632 91.0852 176.083 90.2014C174.778 89.4874 173.637 88.506 172.737 87.3217C172.421 86.8934 172.224 86.3893 172.166 85.8603C172.108 85.3314 172.19 84.7965 172.406 84.3096C172.253 84.299 172.103 84.2692 171.959 84.2202L171.962 96.924Z" fill="#FFC300"/>
<path d="M171.962 96.924V97.629V97.8078C177.714 99.245 183.13 101.788 187.91 105.295C188.684 105.861 189.439 106.437 190.184 107.043C190.203 104.61 189.995 102.167 189.21 99.8633C188.575 97.8862 187.378 96.1372 185.765 94.8288C184.345 93.6967 182.667 92.9719 180.978 92.3165C179.29 91.6611 177.632 91.0852 176.083 90.2014C174.778 89.4874 173.637 88.506 172.737 87.3217C172.421 86.8934 172.224 86.3893 172.166 85.8603C172.108 85.3314 172.19 84.7965 172.406 84.3096C172.253 84.299 172.103 84.2692 171.959 84.2202L171.962 96.924Z" fill="#FFC300"/>
<path d="M92.4986 151.877C94.6597 153.423 97.0621 154.601 99.6085 155.362C100.704 155.7 101.817 155.978 102.942 156.197C98.4963 145.72 101.823 131.938 115.851 117.241C118.252 114.721 120.81 112.353 123.507 110.151C127.866 106.606 131.739 103.965 136.306 101.84C138.351 100.896 140.452 100.077 142.595 99.387C146.397 98.1216 150.321 97.2593 154.303 96.8151C155.207 96.7059 156.1 96.6264 157.004 96.5768C156.783 95.0247 156.827 93.4468 157.133 91.9097C157.967 87.6894 159.42 85.2632 162.062 81.9366C163.717 79.8414 166.302 74.8367 162.856 73.1089C160.681 72.0265 160.483 69.7989 161.506 68.4749C162.369 67.323 164.117 66.7967 166.272 68.1439C167.761 69.0972 169.529 69.1567 171.237 68.69C172.564 67.9171 173.713 66.8755 174.613 65.6316C177.115 62.0469 177.205 56.6151 173.289 53.9837C171.154 52.5438 168.433 52.1963 165.881 52.4743C164.739 52.5998 163.612 52.8461 162.522 53.2092C162.517 53.2068 162.512 53.2058 162.507 53.2058C162.501 53.2058 162.497 53.2068 162.492 53.2092C157.858 55.7016 154.564 60.3091 152.976 65.5025C152.042 68.5709 150.99 71.6094 149.758 74.5884C148.745 77.0312 148.04 80.0003 145.786 81.6685C144.844 82.3653 143.775 82.8714 142.639 83.158C138.379 85.859 132.47 84.3 127.813 83.724C124.09 83.215 120.299 83.596 116.751 84.8362C112.779 86.8454 109.363 90.0528 106.593 94.2234C102.015 101.125 106.861 111.075 99.2047 116.516C96.8877 118.155 94.2397 119.148 91.7075 120.419C88.093 122.256 85.1736 124.867 84.0945 128.889C81.9629 137.002 85.7562 146.981 92.4986 151.877Z" fill="#FFC300"/>
<path d="M279.696 314.45H98.5591" stroke="#003566" stroke-width="1.4895" stroke-miterlimit="10"/>
<path d="M178.605 62.363C179.071 63.3275 179.468 64.3229 179.797 65.342C180.273 66.997 179.757 68.0231 180.482 69.602C180.73 70.1481 181.088 71.0716 181.475 72.005C181.584 71.7866 181.684 71.6078 181.743 71.4688C184.583 65.1434 180.849 62.0949 179.052 61.0522C178.938 61.5004 178.788 61.9387 178.605 62.363Z" fill="#FFC300"/>
<path d="M178.605 62.363C179.071 63.3275 179.468 64.3229 179.797 65.342C180.273 66.997 179.757 68.0231 180.482 69.602C180.73 70.1481 181.088 71.0716 181.475 72.005C181.584 71.7866 181.684 71.6078 181.743 71.4688C184.583 65.1434 180.849 62.0949 179.052 61.0522C178.938 61.5004 178.788 61.9387 178.605 62.363Z" fill="#FFC300"/>
<path d="M115.676 169.075C113.941 182.752 115.345 206.478 143.354 224.63C148.395 227.897 152.933 232.511 157.378 236.5C169.503 247.456 181.037 259.048 191.931 271.228C198.601 278.623 205.41 286.395 212.172 293.882C215.639 297.708 219.143 301.499 222.685 305.255C225.293 308.006 229.43 314.447 233.624 314.447H259.396C261.713 314.447 263.818 312.55 263.785 310.223C263.766 309.218 263.385 308.253 262.713 307.506C262.029 306.741 261.085 306.26 260.065 306.155L245.643 304.676L175.964 193.864C172.369 188.144 169.182 178.73 171.962 172.564C182.554 149.109 181.644 126.376 181.644 126.376" stroke="#003566" stroke-width="1.4895" stroke-miterlimit="10"/>
<path d="M151.751 231.76C148.713 242.435 143.807 253.275 139.756 260.1C138.288 262.592 136.352 264.777 134.056 266.535C125.754 272.893 114.02 272.215 106.06 265.439L66.469 231.74L46.8573 214.359L34.3653 229.674C33.7748 230.393 32.9361 230.864 32.0151 230.995C31.0941 231.125 30.1577 230.905 29.3907 230.379C28.6237 229.853 28.0819 229.058 27.8722 228.152C27.6626 227.246 27.8004 226.294 28.2584 225.484L43.6399 198.481C44.1235 197.627 44.9265 196.999 45.8725 196.737C46.8182 196.475 47.8297 196.598 48.6844 197.081L56.9362 201.715L104.216 228.195C105.003 228.635 105.883 228.882 106.783 228.916C107.684 228.95 108.58 228.769 109.397 228.389C110.214 228.009 110.93 227.44 111.484 226.73C112.039 226.019 112.417 225.187 112.587 224.302L118.188 194.936" stroke="#003566" stroke-width="1.4895" stroke-miterlimit="10"/>
<path d="M171.962 82.2528V96.8168V97.5218V97.7005C173.461 99.8851 174.216 102.997 172.786 105.314C170.87 108.422 166.64 107.905 163.958 106.168C163.169 105.657 162.416 105.093 161.704 104.479C159.318 102.406 157.773 99.5306 157.362 96.3964C157.141 94.8443 157.185 93.2665 157.491 91.7293C158.331 87.5124 159.781 85.0894 162.426 81.753C164.081 79.6677 166.663 74.6563 163.214 72.9285C159.172 70.9127 161.972 65.0143 166.63 67.9635C170.244 70.2573 175.438 67.3975 177.582 64.3225C180.085 60.7378 180.174 55.3061 176.258 52.6746C174.123 51.2348 171.403 50.8872 168.851 51.1653C161.075 52.0192 155.541 58.0964 153.327 65.3254C152.393 68.3938 151.341 71.4324 150.109 74.4114C149.097 76.8542 148.392 79.8232 146.137 81.4915C141.834 84.6989 135.631 83.0207 130.776 82.4249C120.667 81.1836 112.514 85.6621 106.944 94.0463C102.366 100.948 107.212 110.898 99.5558 116.339C97.2388 117.978 94.5908 118.971 92.0586 120.242C88.4441 122.079 85.5247 124.69 84.4622 128.712C82.3173 136.815 86.1172 146.794 92.853 151.69C95.9413 153.934 99.5558 155.275 103.309 156.01" stroke="#003566" stroke-width="1.4895" stroke-miterlimit="10"/>
<path d="M191.919 108.929C191.939 108.744 191.945 108.565 191.955 108.389C192.124 105.189 192.104 101.872 191.061 98.7903C190.422 96.8156 189.224 95.0679 187.612 93.7591C186.189 92.6304 184.511 91.8989 182.829 91.2435C181.148 90.5882 179.48 90.0188 177.934 89.1318C176.625 88.4208 175.484 87.4377 174.588 86.2488C174.273 85.8218 174.077 85.3193 174.019 84.792C173.961 84.2651 174.043 83.7318 174.257 83.2466" stroke="#003566" stroke-width="1.4895" stroke-miterlimit="10"/>
<path d="M168.828 78.9695C170 80.6443 171.588 82.4516 173.591 83.1037C176.183 83.9477 177.927 81.7466 178.857 79.605C179.413 78.3306 179.797 76.9735 180.247 75.6562C180.393 75.2226 180.482 75.014 180.979 74.9942C181.475 74.9743 181.998 75.0736 182.508 75.0736C182.545 75.0726 182.58 75.062 182.611 75.0432C182.642 75.0243 182.667 74.9975 182.684 74.9654C182.701 74.9333 182.71 74.8975 182.708 74.8611C182.707 74.825 182.696 74.7896 182.677 74.7592C181.992 73.7165 180.969 70.8732 180.453 69.7346C179.734 68.1557 180.254 67.1329 179.771 65.4746C179.442 64.4564 179.046 63.4611 178.586 62.4956" stroke="#003566" stroke-width="1.4895" stroke-miterlimit="10"/>
<path d="M179.35 59.4341C179.35 59.4341 186.417 62.145 182.766 70.2909C182.541 70.7841 181.988 71.8135 181.727 72.2769" stroke="#003566" stroke-width="1.4895" stroke-miterlimit="10"/>
<path d="M255.576 36.208C255.576 36.208 255.615 36.2279 255.695 36.2577L255.576 36.208Z" fill="#FFC300"/>
<path d="M178.959 79.3703C178.393 79.4481 177.819 79.3167 177.343 79.0013C176.867 78.6855 176.522 78.2072 176.374 77.6558" stroke="#003566" stroke-width="1.4895" stroke-miterlimit="10"/>
<path d="M180.154 68.4609C178.691 67.2693 177.085 68.7919 176.106 69.8975" stroke="#003566" stroke-width="1.4895" stroke-miterlimit="10"/>
<path d="M157.371 96.3999C152.465 96.7107 147.618 97.6527 142.953 99.2035C135.34 101.699 130.097 104.92 123.877 109.968C121.181 112.173 118.624 114.545 116.221 117.068C102.18 131.764 98.8604 145.553 103.312 156.026C106.93 164.559 115.271 169.852 123.818 172.55C129.408 174.311 135.234 175.069 141.079 175.237C148.047 175.436 155.074 175.171 161.932 173.847C164.822 173.291 168.152 172.834 169.876 170.15C171.601 167.466 171.747 163.844 170.466 160.968C169.264 158.29 166.02 155.411 163.088 157.512C162.763 157.747 162.495 158.053 162.305 158.406C162.115 158.759 162.008 159.151 161.992 159.551" stroke="#003566" stroke-width="1.4895" stroke-miterlimit="10"/>
<path d="M152.072 114.108C152.436 125.084 143.135 131.204 143.135 131.204C140.05 133.703 137.051 136.388 134.529 139.463C132.917 141.425 131.421 143.623 130.679 146.083C130.125 147.76 130.134 149.572 130.706 151.243C131.338 152.788 132.382 154.13 133.724 155.122C136.233 157.085 139.285 158.101 142.311 158.982C145.644 159.936 149.04 160.659 152.472 161.146C154.458 161.431 155.296 160.815 156.203 159.097C157.024 157.542 157.696 155.741 159.215 154.725C161.32 153.312 164.147 152.984 166.583 153.566C170.34 154.46 171.3 157.439 168.238 158.042" stroke="#003566" stroke-width="1.4895" stroke-miterlimit="10"/>
<path d="M149.778 188.574L92.6968 174.781L79.1125 230.998L134.611 244.794L136.392 243.976L149.778 188.574Z" fill="white"/>
<path d="M123.441 180.67C126.148 161.717 132.017 157.03 135.837 156.093L135.585 155.954C124.053 151.466 116.056 173.673 114.358 178.866L123.441 180.67Z" fill="#D7E8F0"/>
<path d="M123.282 182.172C125.989 163.219 132.017 157.016 135.837 156.093L135.585 155.954C124.053 151.465 115.725 174.741 114.021 179.931L123.282 182.172Z" fill="#D7E8F0"/>
<path d="M135.585 155.954C122.544 150.883 114.021 179.931 114.021 179.931L123.289 182.172C128.674 153.044 140.229 158.34 140.229 158.34C139.822 158.218 135.585 155.954 135.585 155.954Z" stroke="#003566" stroke-width="1.4895" stroke-miterlimit="10"/>
<path d="M92.0611 177.46L79.1147 231.016L124.148 241.902L137.094 188.346L92.0611 177.46Z" fill="#FFC300"/>
<path d="M92.7483 174.625L79.1157 231.018L126.532 242.481L140.165 186.088L92.7483 174.625Z" fill="white"/>
<path d="M92.9715 178.915L81.2303 227.483C80.8976 228.86 81.744 230.247 83.121 230.58L123.167 240.26C124.544 240.593 125.931 239.747 126.263 238.37L138.004 189.801C138.337 188.424 137.491 187.038 136.114 186.705L96.0677 177.024C94.6907 176.691 93.3045 177.537 92.9715 178.915Z" fill="#FFC300"/>
<path d="M92.7068 174.801L79.1169 231.017L126.534 242.48L140.124 186.263L92.7068 174.801Z" stroke="#003566" stroke-width="1.4895" stroke-miterlimit="10"/>
<path d="M140.323 186.308L126.733 242.524L136.199 244.813L149.788 188.596L140.323 186.308Z" fill="white"/>
<path d="M140.323 186.308L126.733 242.524L136.199 244.813L149.788 188.596L140.323 186.308Z" stroke="#003566" stroke-width="1.4895" stroke-miterlimit="10"/>
<path d="M136.193 244.795L133.145 236.954L126.727 242.508" stroke="#003566" stroke-width="1.4895" stroke-miterlimit="10"/>
<path d="M145.048 187.433L133.145 236.954" stroke="#003566" stroke-width="1.4895" stroke-miterlimit="10"/>
<path d="M249.466 96.2383C249.287 96.2681 249.135 96.2979 248.939 96.3376C247.149 96.65 245.451 97.363 243.974 98.4229C242.356 99.6741 240.886 101.849 240.171 103.719C239.09 106.559 237.902 109.353 236.606 112.1C234.651 116.335 232.324 120.389 229.655 124.214C226.885 128.107 223.558 132.052 219.368 134.475C218.842 134.793 218.288 135.063 217.713 135.28C217.008 135.578 207.088 124.165 205.995 122.894C201.616 117.8 197.088 112.755 191.954 108.396C190.654 107.284 189.306 106.211 187.923 105.208C183.14 101.698 177.72 99.1521 171.965 97.7112" stroke="#003566" stroke-width="1.4895" stroke-miterlimit="10"/>
<path d="M267.313 95.8203C267.333 95.8253 267.353 95.8253 267.373 95.8203C271.96 96.3565 270.163 101.302 266.936 101.143C263.371 100.964 259.816 101.143 256.261 101.202C255.281 101.17 254.305 101.35 253.401 101.729C251.614 102.583 251.445 104.489 251.177 106.217C250.819 108.481 250.412 110.745 249.932 112.989C248.999 117.438 247.847 121.827 246.526 126.176C245.672 128.996 244.729 131.803 243.736 134.58C240.836 142.763 237.182 151.442 231.035 157.75C227.639 161.246 223.191 163.828 218.176 163.45C211.116 162.924 204.324 159.379 198.336 155.347C198.311 155.33 198.287 155.31 198.266 155.288C196.032 153.783 193.889 152.145 191.852 150.382C191.852 150.382 183.6 143.034 181.078 137.652" stroke="#003566" stroke-width="1.4895" stroke-miterlimit="10"/>
<path d="M280.358 91.3733V91.8367C280.358 95.0341 277.783 95.5836 275.558 95.6366L232.505 96.6296C230.618 96.6792 229.033 95.0275 228.993 92.9654V92.8793C228.993 90.8569 230.476 89.1754 232.34 89.1291C232.34 89.1291 256.423 88.4505 275.075 87.9375C275.429 89.0662 276.296 89.9401 277.372 90.6219C278.271 91.1624 279.31 91.4239 280.358 91.3733Z" stroke="#003566" stroke-width="1.4895" stroke-miterlimit="10"/>
<path d="M303.23 45.8169C303.23 46.3438 303.105 46.8632 302.866 47.3328L283.625 86.8046C283.399 87.2607 283.077 87.6626 282.681 87.9823C282.285 88.3024 281.825 88.5328 281.331 88.6582C280.536 88.8594 279.695 88.7724 278.958 88.4133C278.368 88.1233 277.872 87.6741 277.525 87.1167C277.178 86.559 276.995 85.9155 276.995 85.2588C276.998 84.7335 277.118 84.2158 277.346 83.7429L296.597 44.2678C296.947 43.5628 297.524 42.9968 298.236 42.6611C298.948 42.3258 299.753 42.2407 300.519 42.4195C301.285 42.5986 301.969 43.0312 302.458 43.6472C302.948 44.2632 303.215 45.0264 303.217 45.8136L303.23 45.8169Z" stroke="#003566" stroke-width="1.4895" stroke-miterlimit="10"/>
<path d="M250.872 37.6981C256.711 37.6981 261.445 32.9647 261.445 27.1259C261.445 21.287 256.711 16.5537 250.872 16.5537C245.034 16.5537 240.3 21.287 240.3 27.1259C240.3 32.9647 245.034 37.6981 250.872 37.6981Z" fill="#FFC300"/>
<path d="M247.512 30.7636C247.161 30.6324 246.833 30.4482 246.539 30.2174C246.02 29.8262 245.663 29.2579 245.536 28.6207C245.409 27.9836 245.521 27.322 245.85 26.7618C246.065 26.398 246.361 26.0891 246.715 25.8594C247.07 25.6296 247.473 25.4853 247.892 25.4378C247.66 24.8912 247.611 24.2838 247.755 23.7073C247.898 23.1308 248.225 22.6167 248.687 22.2427C249.148 21.8687 249.719 21.6552 250.313 21.6345C250.906 21.6138 251.49 21.7869 251.977 22.1278C253 22.8395 253.708 24.0939 254.142 25.2392C254.365 25.8406 254.53 26.4625 254.632 27.0961C254.681 27.4271 255.019 29.2476 254.754 29.433C253.006 30.6444 249.753 31.6176 247.512 30.7636Z" fill="white"/>
<g opacity="0.72">
<path opacity="0.72" d="M241.952 59.7522C245.166 59.7522 247.771 57.1472 247.771 53.9332C247.771 50.7196 245.166 48.1143 241.952 48.1143C238.738 48.1143 236.133 50.7196 236.133 53.9332C236.133 57.1472 238.738 59.7522 241.952 59.7522Z" fill="#FFC300"/>
<path opacity="0.72" d="M243.104 56.4021C242.964 56.5544 242.801 56.6838 242.621 56.7861C242.312 56.9661 241.949 57.0277 241.598 56.9588C241.248 56.89 240.935 56.6957 240.717 56.412C240.575 56.2263 240.478 56.0102 240.434 55.7802C240.389 55.5504 240.399 55.3135 240.462 55.088C240.137 55.09 239.819 54.9864 239.557 54.7928C239.295 54.5988 239.103 54.3254 239.01 54.0133C238.917 53.7008 238.927 53.3668 239.04 53.0613C239.153 52.7555 239.362 52.4947 239.635 52.3176C240.256 51.974 240.963 51.8178 241.671 51.8674C242.024 51.8773 242.376 51.924 242.72 52.0064C242.895 52.0462 243.895 52.258 243.935 52.4301C244.19 53.5787 244.007 55.4422 243.104 56.4021Z" fill="white"/>
</g>
<path d="M274.71 41.2331L268.999 44.2774C266.928 45.3812 266.144 47.9558 267.248 50.0268L270.292 55.7372C271.396 57.8086 273.97 58.5928 276.042 57.4886L281.752 54.4447C283.823 53.3405 284.607 50.7663 283.503 48.6949L280.459 42.9845C279.355 40.9134 276.781 40.1293 274.71 41.2331Z" fill="#FFC300"/>
<path d="M276.999 55.866L281.133 53.6615C281.995 53.1988 282.639 52.414 282.924 51.4782C283.209 50.5422 283.113 49.5316 282.655 48.6667L280.007 43.7017C279.545 42.8391 278.76 42.1947 277.824 41.9094C276.888 41.624 275.877 41.721 275.013 42.1791L274.734 42.3281C273.702 43.7613 272.328 46.214 274.403 46.9852C277.382 48.1007 276.512 49.7723 275.396 51.9138C274.45 53.7112 274.208 55.813 276.999 55.866Z" fill="white"/>
<path d="M270.56 49.8551C271.423 49.8551 272.122 49.1554 272.122 48.2928C272.122 47.4299 271.423 46.7305 270.56 46.7305C269.697 46.7305 268.997 47.4299 268.997 48.2928C268.997 49.1554 269.697 49.8551 270.56 49.8551Z" fill="white"/>
<path d="M251.315 75.9312C251.894 76.2126 252.51 76.4089 253.145 76.5138C254.312 76.6925 255.504 76.5658 256.606 76.1457C257.709 75.7257 258.683 75.027 259.434 74.1174C260.014 73.3958 260.447 72.4922 261.056 71.764C261.473 71.2327 262.03 70.8292 262.665 70.5988C262.883 70.5525 263.086 70.4535 263.257 70.3109C263.675 69.8806 262.966 69.5165 262.824 69.1689C262.61 68.6082 262.61 67.9886 262.824 67.4279C263.367 65.9539 263.383 64.337 262.867 62.8528C262.352 61.3686 261.337 60.1091 259.997 59.2892C258.657 58.469 257.074 58.1393 255.518 58.3558C253.962 58.5726 252.529 59.3223 251.464 60.4769C250.411 61.6122 249.779 63.062 249.124 64.4489C248.541 65.6835 247.922 66.9115 247.601 68.2388C246.856 71.3833 248.538 74.5775 251.315 75.9312Z" fill="#FFC300"/>
<path d="M257.227 64.7599C258.041 64.7599 258.7 64.1005 258.7 63.2869C258.7 62.4733 258.041 61.814 257.227 61.814C256.414 61.814 255.754 62.4733 255.754 63.2869C255.754 64.1005 256.414 64.7599 257.227 64.7599Z" fill="white"/>
<path d="M255.297 68.8253C256.111 68.8253 256.77 68.1659 256.77 67.3523C256.77 66.5391 256.111 65.8794 255.297 65.8794C254.484 65.8794 253.824 66.5391 253.824 67.3523C253.824 68.1659 254.484 68.8253 255.297 68.8253Z" fill="white"/>
<path d="M253.488 72.6383C254.301 72.6383 254.961 71.9786 254.961 71.1653C254.961 70.3517 254.301 69.6924 253.488 69.6924C252.674 69.6924 252.015 70.3517 252.015 71.1653C252.015 71.9786 252.674 72.6383 253.488 72.6383Z" fill="white"/>
<g opacity="0.54">
<path opacity="0.54" d="M218.13 81.9326C218.577 81.8733 219.02 81.7816 219.454 81.6578L224.438 80.2544C225.964 79.8241 227.57 79.3475 228.652 78.1857C230.658 76.0308 230.009 72.6083 229.231 69.7683C228.598 67.4447 227.964 65.1211 227.328 62.7975C226.891 61.1954 226.441 59.5669 225.57 58.1635C224.7 56.76 223.323 55.5552 221.681 55.297C220.473 55.1083 219.248 55.4327 218.067 55.7538L213.284 57.0778C211.715 57.5048 210.06 57.9847 208.961 59.1863C207.008 61.3212 207.637 64.6709 208.385 67.4613L210.295 74.5943C211.467 78.8808 213.661 82.4953 218.13 81.9326Z" fill="#FFC300"/>
<path opacity="0.54" d="M217.798 72.2043C218.093 72.4926 218.459 72.6978 218.859 72.7998C219.259 72.9017 219.679 72.8964 220.076 72.7849C220.473 72.673 220.834 72.4588 221.122 72.1633C221.41 71.868 221.616 71.5019 221.717 71.1021L222.273 68.9241L222.826 66.7428C222.928 66.343 222.922 65.9232 222.81 65.5264C222.698 65.1292 222.483 64.7687 222.188 64.4811C221.892 64.1931 221.526 63.9882 221.126 63.8866C220.726 63.7853 220.307 63.7906 219.91 63.9028L217.748 64.5119L215.584 65.1209C215.187 65.2338 214.828 65.4493 214.541 65.7452C214.254 66.0411 214.05 66.4075 213.949 66.8074C213.849 67.2069 213.855 67.6262 213.967 68.0228C214.08 68.4193 214.295 68.7791 214.591 69.0664L216.203 70.6354L217.798 72.2043Z" fill="white"/>
</g>
</svg>
