<svg width="220" height="287" viewBox="0 0 220 287" fill="none" xmlns="http://www.w3.org/2000/svg">
<path d="M220 286.82C220 286.917 171.904 287 112.594 287C53.284 287 5.16699 286.917 5.16699 286.82C5.16699 286.723 53.2563 286.64 112.594 286.64C171.931 286.64 220 286.73 220 286.82Z" fill="#003566"/>
<path d="M197.628 14.5071L194.061 15.7806L192.53 11.1227C189.718 2.53351 180.756 -2.02753 172.52 0.872431C164.285 3.7724 159.9 13.1921 162.713 21.7812L164.243 26.4392L160.662 27.7196C159.297 28.2488 158.188 29.2835 157.566 30.6086C156.945 31.9336 156.858 33.4472 157.324 34.8346L167.249 65.1423C167.455 65.8291 167.797 66.4675 168.255 67.0196C168.713 67.5717 169.277 68.0262 169.914 68.3561C170.551 68.686 171.248 68.8846 171.964 68.9401C172.679 68.9956 173.398 68.9068 174.079 68.679L211.044 55.4665C212.428 54.9382 213.552 53.8944 214.181 52.5545C214.81 51.2147 214.895 49.6832 214.417 48.2824L204.485 17.9746C204.274 17.2897 203.926 16.6544 203.464 16.1066C203.001 15.5587 202.433 15.1096 201.793 14.786C201.153 14.4624 200.455 14.2709 199.739 14.223C199.023 14.1751 198.305 14.2717 197.628 14.5071ZM169.452 19.3519C168.694 17.1186 168.83 14.6787 169.832 12.5435C170.834 10.4082 172.624 8.74325 174.827 7.89741C175.915 7.52548 177.066 7.37634 178.213 7.45887C179.36 7.54141 180.478 7.85392 181.501 8.37778C182.525 8.90164 183.432 9.6261 184.169 10.5079C184.906 11.3898 185.458 12.4109 185.791 13.5105L187.315 18.1684L170.976 24.0099L169.452 19.3519ZM190.231 46.2475L192.766 53.9854C192.812 54.1405 192.797 54.3077 192.724 54.452C192.65 54.5964 192.524 54.7069 192.371 54.7606L188.818 56.0271C188.676 56.0663 188.525 56.0493 188.396 55.9796C188.267 55.9099 188.17 55.793 188.125 55.6534L185.569 47.9501C184.16 47.8734 182.808 47.3683 181.694 46.5025C180.58 45.6366 179.757 44.4513 179.336 43.1053C178.733 41.3259 178.843 39.3825 179.642 37.6822C180.441 35.9818 181.868 34.6563 183.623 33.9832C184.49 33.6874 185.407 33.5689 186.32 33.6348C187.234 33.7007 188.124 33.9497 188.939 34.367C189.755 34.7842 190.477 35.3611 191.064 36.0633C191.651 36.7655 192.091 37.5787 192.357 38.4543C192.803 39.8216 192.84 41.2891 192.463 42.677C192.087 44.065 191.313 45.313 190.238 46.2683L190.231 46.2475Z" fill="#FFC300"/>
<path d="M193.901 15.6978C193.901 15.7947 187.287 18.2794 179.058 21.2347C170.83 24.19 164.118 26.564 164.084 26.4948C164.049 26.4256 170.698 23.9201 178.934 20.9579C187.169 17.9956 193.867 15.6078 193.901 15.6978Z" fill="#003566"/>
<path d="M201.756 16.9712C201.786 17.0313 201.812 17.0938 201.832 17.1581C201.887 17.2965 201.95 17.4764 202.033 17.6979C202.213 18.2032 202.462 18.9022 202.774 19.7743L205.434 27.5121C206.542 30.7927 207.865 34.6824 209.333 39.0012C210.026 41.1676 210.843 43.4239 211.605 45.7978C212.013 47.0212 212.189 48.3097 212.124 49.5975C212.066 50.2673 211.875 50.9188 211.563 51.5147C211.231 52.1086 210.786 52.6326 210.254 53.0581C209.184 53.8386 207.997 54.4438 206.736 54.8507L203.169 56.1311L196.416 58.5466L184.98 62.6162L177.257 65.3293L175.18 66.0214L174.625 66.2014C174.566 66.2277 174.503 66.2441 174.438 66.2498C174.438 66.2498 174.494 66.2498 174.612 66.1668L175.152 65.9522L177.23 65.1701L184.911 62.3463L196.326 58.1936L203.065 55.7574L206.632 54.47C207.857 54.0796 209.01 53.4929 210.047 52.7328C210.541 52.338 210.955 51.8516 211.266 51.3001C211.559 50.7491 211.736 50.1436 211.785 49.5214C211.849 48.2806 211.68 47.0388 211.286 45.8601C210.538 43.5069 209.749 41.2298 209.035 39.0635C207.595 34.7378 206.265 30.8343 205.212 27.5536C204.159 24.273 203.273 21.6361 202.663 19.7812C202.372 18.8745 202.151 18.1686 201.971 17.6564L201.804 17.1027C201.783 17.0608 201.767 17.0167 201.756 16.9712Z" fill="#003566"/>
<path d="M182.251 7.42713C182.251 7.42713 181.884 7.24718 181.206 6.97034C180.238 6.59886 179.215 6.39296 178.179 6.36128C176.643 6.30866 175.115 6.59705 173.704 7.20566C171.989 7.9635 170.522 9.18931 169.472 10.7424C168.416 12.291 167.849 14.1211 167.845 15.9955C167.859 17.5318 168.092 19.0583 168.537 20.5289C168.898 21.7885 169.272 22.7921 169.521 23.4911C169.668 23.8462 169.788 24.2117 169.881 24.5847C169.684 24.2527 169.52 23.9028 169.389 23.5396C169.105 22.8475 168.697 21.8647 168.295 20.5981C167.802 19.112 167.533 17.5608 167.498 15.9955C167.48 14.0503 168.06 12.1464 169.161 10.5417C170.247 8.93187 171.774 7.66816 173.559 6.90112C175.014 6.28918 176.589 6.01924 178.165 6.11211C179.223 6.16602 180.263 6.41228 181.233 6.83883C181.493 6.9584 181.743 7.09722 181.981 7.25411C182.08 7.29736 182.171 7.35574 182.251 7.42713Z" fill="#003566"/>
<path d="M182.57 34.5091C182.681 34.4421 182.797 34.3843 182.916 34.336C183.263 34.1797 183.622 34.0524 183.99 33.9554C184.574 33.7832 185.176 33.681 185.784 33.6508C186.611 33.6064 187.438 33.7313 188.215 34.0177C189.988 34.6406 191.616 36.447 192.419 38.8625C192.805 40.1587 192.805 41.539 192.419 42.8352C191.992 44.2421 191.226 45.523 190.189 46.5657L190.231 46.3789C191.152 48.9051 192.156 51.6459 193.195 54.5043L193.257 54.6773L193.084 54.7396L191.498 55.2656L188.035 56.4215L187.862 56.4768L187.806 56.3038C186.858 53.4384 185.819 50.7669 185.036 48.1438L185.188 48.2614C183.834 48.149 182.543 47.6412 181.476 46.801C180.51 46.0578 179.718 45.113 179.155 44.0326C178.648 43.0744 178.395 42.002 178.421 40.9181C178.453 39.8103 178.73 38.7233 179.232 37.735C179.734 36.7466 180.448 35.8814 181.323 35.2012C181.684 34.9088 182.088 34.6752 182.522 34.5091C182.13 34.741 181.751 34.9928 181.386 35.2635C180.424 36.0766 179.687 37.1228 179.246 38.3019C178.867 39.191 178.689 40.1529 178.726 41.1186C178.764 42.0843 179.014 43.0298 179.46 43.8872C180.014 44.9266 180.786 45.8335 181.725 46.545C182.743 47.3435 183.974 47.8249 185.264 47.9292H185.382L185.417 48.033C186.179 50.6077 187.225 53.3 188.187 56.1792L187.959 56.0685L191.422 54.9126L193.001 54.3797L192.89 54.615C191.858 51.7566 190.861 49.0089 189.947 46.4827V46.3789L190.03 46.2958C191.037 45.2963 191.788 44.0688 192.218 42.7176C192.586 41.4776 192.586 40.1578 192.218 38.9178C191.464 36.5923 189.905 34.8274 188.215 34.2045C187.467 33.9163 186.668 33.7821 185.867 33.81C185.269 33.8237 184.674 33.905 184.094 34.0523C183.062 34.3084 182.577 34.5437 182.57 34.5091Z" fill="#003566"/>
<path d="M161.161 234.351L91.9741 234.032C87.9786 234.01 84.1552 232.405 81.3436 229.568C78.532 226.731 76.9621 222.895 76.9786 218.903L77.7128 45.59C77.721 43.612 78.1192 41.655 78.8847 39.8308C79.6502 38.0067 80.768 36.3512 82.1741 34.9589C83.5803 33.5667 85.2472 32.465 87.0797 31.7168C88.9122 30.9687 90.8742 30.5888 92.8537 30.5988L162.034 30.9172C166.029 30.9373 169.853 32.5413 172.666 35.3768C175.479 38.2122 177.051 42.0474 177.036 46.0399L176.302 219.346C176.294 221.324 175.895 223.282 175.13 225.107C174.365 226.932 173.247 228.588 171.841 229.982C170.435 231.375 168.768 232.478 166.936 233.228C165.103 233.977 163.141 234.359 161.161 234.351Z" fill="#455A64"/>
<path d="M161.93 36.8766H148.52C148.083 36.8847 147.651 36.9789 147.25 37.1537C146.849 37.3285 146.486 37.5806 146.183 37.8956C145.879 38.2105 145.641 38.5821 145.481 38.9892C145.321 39.3962 145.243 39.8308 145.251 40.268V42.6973C145.259 43.1342 145.181 43.5684 145.021 43.975C144.861 44.3817 144.623 44.7529 144.319 45.0673C144.015 45.3816 143.653 45.6331 143.252 45.8071C142.851 45.9812 142.419 46.0746 141.982 46.0818L115.842 45.9641C114.958 45.9405 114.119 45.5672 113.51 44.9262C112.901 44.2851 112.571 43.4287 112.594 42.545V40.1157C112.616 39.2332 112.287 38.3778 111.68 37.737C111.072 37.0961 110.235 36.722 109.352 36.6967H104.635L92.8952 36.6413C90.1028 36.6247 87.4176 37.7144 85.4275 39.6719C83.4374 41.6294 82.3046 44.2951 82.2772 47.0853L81.5846 216.252C81.5782 217.637 81.8447 219.008 82.369 220.29C82.8932 221.571 83.6649 222.737 84.6399 223.72C85.615 224.703 86.7743 225.485 88.0517 226.021C89.3291 226.556 90.6996 226.835 92.0849 226.842L161.126 227.16C162.512 227.166 163.886 226.9 165.169 226.376C166.452 225.851 167.62 225.08 168.604 224.105C169.589 223.13 170.372 221.971 170.908 220.693C171.445 219.416 171.724 218.046 171.73 216.661L172.423 47.4937C172.44 44.6955 171.344 42.0054 169.376 40.0145C167.408 38.0236 164.73 36.8949 161.93 36.8766Z" fill="white"/>
<path d="M152.642 204.59L101.304 204.369C100.771 204.369 100.341 203.787 100.348 203.081L100.404 189.661C100.404 188.969 100.84 188.374 101.373 188.374L152.711 188.609C153.007 188.66 153.271 188.824 153.449 189.065C153.627 189.306 153.705 189.606 153.667 189.904L153.618 203.31C153.618 204.023 153.175 204.597 152.642 204.59Z" fill="#FFC300"/>
<path d="M119.189 195.926C119.154 195.633 119.014 195.406 118.767 195.245C118.521 195.083 118.219 195.002 117.861 195.002C117.599 195.002 117.37 195.044 117.173 195.129C116.979 195.214 116.827 195.33 116.717 195.479C116.609 195.627 116.555 195.795 116.555 195.984C116.555 196.142 116.593 196.277 116.668 196.391C116.745 196.503 116.843 196.596 116.963 196.671C117.082 196.744 117.207 196.805 117.338 196.853C117.469 196.899 117.589 196.937 117.699 196.966L118.3 197.127C118.454 197.168 118.625 197.224 118.814 197.295C119.004 197.366 119.186 197.463 119.359 197.586C119.534 197.708 119.679 197.864 119.792 198.054C119.906 198.245 119.963 198.479 119.963 198.756C119.963 199.075 119.879 199.364 119.712 199.622C119.546 199.88 119.303 200.085 118.984 200.237C118.666 200.389 118.28 200.465 117.826 200.465C117.402 200.465 117.036 200.397 116.726 200.26C116.418 200.124 116.175 199.933 115.998 199.689C115.823 199.444 115.724 199.16 115.701 198.837H116.44C116.459 199.06 116.534 199.245 116.665 199.391C116.798 199.535 116.966 199.643 117.168 199.715C117.372 199.784 117.591 199.818 117.826 199.818C118.099 199.818 118.345 199.774 118.562 199.686C118.78 199.595 118.952 199.47 119.079 199.31C119.206 199.149 119.27 198.96 119.27 198.744C119.27 198.548 119.215 198.388 119.105 198.265C118.995 198.142 118.851 198.042 118.672 197.965C118.493 197.888 118.3 197.82 118.092 197.763L117.364 197.555C116.902 197.422 116.536 197.232 116.267 196.986C115.997 196.739 115.862 196.417 115.862 196.018C115.862 195.687 115.952 195.399 116.131 195.152C116.312 194.904 116.555 194.711 116.859 194.575C117.165 194.436 117.506 194.367 117.884 194.367C118.265 194.367 118.604 194.435 118.9 194.572C119.197 194.707 119.431 194.891 119.605 195.126C119.78 195.361 119.872 195.628 119.882 195.926H119.189ZM121.856 194.448V200.361H121.14V194.448H121.856ZM127.981 194.448V200.361H127.288L124.066 195.718H124.008V200.361H123.292V194.448H123.985L127.219 199.102H127.277V194.448H127.981ZM133.457 196.296C133.393 196.101 133.31 195.927 133.206 195.773C133.104 195.617 132.981 195.484 132.839 195.375C132.698 195.265 132.539 195.181 132.36 195.123C132.181 195.066 131.984 195.037 131.771 195.037C131.42 195.037 131.102 195.127 130.815 195.308C130.528 195.489 130.3 195.756 130.13 196.108C129.961 196.46 129.876 196.892 129.876 197.404C129.876 197.917 129.962 198.349 130.133 198.701C130.305 199.053 130.537 199.32 130.829 199.501C131.122 199.682 131.451 199.772 131.817 199.772C132.156 199.772 132.454 199.7 132.712 199.556C132.972 199.409 133.174 199.203 133.318 198.938C133.465 198.67 133.538 198.355 133.538 197.994L133.757 198.04H131.979V197.404H134.231V198.04C134.231 198.527 134.127 198.95 133.919 199.31C133.713 199.67 133.428 199.949 133.064 200.148C132.702 200.344 132.287 200.442 131.817 200.442C131.293 200.442 130.833 200.319 130.437 200.073C130.042 199.826 129.734 199.476 129.513 199.022C129.293 198.567 129.183 198.028 129.183 197.404C129.183 196.937 129.246 196.516 129.371 196.143C129.498 195.767 129.677 195.448 129.908 195.184C130.139 194.92 130.413 194.718 130.728 194.578C131.044 194.437 131.391 194.367 131.771 194.367C132.082 194.367 132.373 194.414 132.643 194.508C132.914 194.601 133.156 194.733 133.367 194.904C133.581 195.073 133.759 195.276 133.902 195.513C134.044 195.748 134.142 196.009 134.196 196.296H133.457ZM119.836 204.448H120.552V208.363C120.552 208.767 120.457 209.128 120.266 209.446C120.077 209.762 119.811 210.011 119.466 210.194C119.122 210.375 118.717 210.465 118.253 210.465C117.789 210.465 117.385 210.375 117.041 210.194C116.696 210.011 116.428 209.762 116.238 209.446C116.049 209.128 115.955 208.767 115.955 208.363V204.448H116.671V208.305C116.671 208.594 116.735 208.851 116.862 209.076C116.989 209.3 117.17 209.476 117.404 209.605C117.641 209.732 117.924 209.795 118.253 209.795C118.583 209.795 118.866 209.732 119.102 209.605C119.339 209.476 119.52 209.3 119.645 209.076C119.772 208.851 119.836 208.594 119.836 208.305V204.448ZM121.982 210.361V204.448H123.98C124.444 204.448 124.823 204.531 125.118 204.699C125.414 204.864 125.634 205.089 125.776 205.372C125.919 205.655 125.99 205.97 125.99 206.319C125.99 206.667 125.919 206.984 125.776 207.269C125.636 207.554 125.418 207.781 125.124 207.95C124.829 208.118 124.452 208.201 123.992 208.201H122.559V207.566H123.968C124.286 207.566 124.541 207.511 124.734 207.402C124.926 207.292 125.066 207.144 125.152 206.957C125.241 206.768 125.285 206.556 125.285 206.319C125.285 206.082 125.241 205.87 125.152 205.684C125.066 205.497 124.925 205.35 124.731 205.245C124.536 205.137 124.278 205.083 123.957 205.083H122.698V210.361H121.982Z" fill="#E8E8E3"/>
<path d="M111.544 86.6052L93.7295 86.5244L93.7147 89.7912L111.529 89.8719L111.544 86.6052Z" fill="#FFC300"/>
<path opacity="0.1" d="M111.544 86.6052L93.7295 86.5244L93.7147 89.7912L111.529 89.8719L111.544 86.6052Z" fill="black"/>
<path d="M163.765 106.662C163.905 106.648 164.043 106.615 164.174 106.565C164.366 106.49 164.532 106.363 164.655 106.198C164.778 106.032 164.851 105.836 164.867 105.631C164.867 104.53 164.867 102.925 164.867 100.862C164.867 99.8308 164.867 98.675 164.867 97.4015C164.867 97.09 164.867 96.7647 164.867 96.4394C164.912 96.1238 164.843 95.8024 164.673 95.5327C164.577 95.4035 164.453 95.2981 164.31 95.2248C164.167 95.1515 164.009 95.1124 163.849 95.1106H162.768H152.76L94.828 94.896C94.6798 94.8935 94.5331 94.9268 94.4004 94.993C94.2678 95.0593 94.1531 95.1566 94.0661 95.2767C93.8989 95.5474 93.8349 95.8693 93.8861 96.1833C93.8861 96.8755 93.8861 97.5676 93.8861 98.2597C93.8861 99.6439 93.8861 101.028 93.8861 102.412C93.8861 103.104 93.8861 103.797 93.8861 104.489C93.8573 104.811 93.8573 105.135 93.8861 105.458C93.9224 105.596 93.9901 105.724 94.0837 105.832C94.1774 105.94 94.2946 106.025 94.4263 106.081C94.5628 106.135 94.7089 106.161 94.8557 106.157H98.3812L113.765 106.24L139.807 106.399L157.366 106.537L162.138 106.593H163.378C163.662 106.593 163.8 106.593 163.8 106.593H163.378H162.138H157.366H139.807L113.765 106.51L98.3812 106.447H94.8557C94.6617 106.455 94.4682 106.422 94.2878 106.351C94.1054 106.273 93.9432 106.154 93.8136 106.004C93.6839 105.855 93.5903 105.677 93.5397 105.485C93.4997 105.304 93.4857 105.117 93.4982 104.932V104.42C93.4982 103.727 93.4982 103.035 93.4982 102.343C93.4982 100.959 93.4982 99.5747 93.4982 98.1905C93.4982 97.4984 93.4982 96.8062 93.4982 96.1141C93.485 95.9298 93.485 95.7448 93.4982 95.5604C93.5241 95.3568 93.6029 95.1636 93.7268 94.9998C93.8462 94.8328 94.0044 94.697 94.1877 94.6042C94.371 94.5114 94.5741 94.4643 94.7796 94.4669L152.711 94.7853L162.72 94.8545H163.8C163.99 94.8546 164.178 94.9006 164.347 94.9886C164.516 95.0765 164.661 95.2038 164.77 95.3597C164.965 95.6606 165.044 96.0223 164.991 96.3771C164.991 96.7024 164.991 97.0277 164.991 97.3392C164.991 98.5988 164.991 99.7547 164.991 100.8C164.991 102.876 164.943 104.468 164.929 105.575C164.912 105.788 164.835 105.992 164.706 106.162C164.577 106.333 164.402 106.463 164.202 106.537C164.071 106.619 163.92 106.662 163.765 106.662Z" fill="#E0E0E0"/>
<path d="M131.662 98.3711H99.0806V101.423H131.662V98.3711Z" fill="#FFC300"/>
<path opacity="0.2" d="M131.662 98.3711H99.0806V101.423H131.662V98.3711Z" fill="white"/>
<path d="M111.422 116.407L93.6079 116.326L93.5931 119.593L111.407 119.674L111.422 116.407Z" fill="#FFC300"/>
<path opacity="0.1" d="M111.422 116.407L93.6079 116.326L93.5931 119.593L111.407 119.674L111.422 116.407Z" fill="black"/>
<path d="M163.314 136.465C163.454 136.447 163.593 136.422 163.73 136.389C163.923 136.327 164.101 136.225 164.252 136.089C164.403 135.953 164.522 135.786 164.603 135.599C164.712 135.32 164.754 135.019 164.727 134.721C164.727 134.388 164.727 134.028 164.727 133.627C164.727 132.824 164.727 131.911 164.727 130.859V126.464C164.76 126.145 164.69 125.825 164.527 125.55C164.356 125.268 164.087 125.059 163.772 124.962C163.427 124.9 163.075 124.882 162.726 124.906H152.759L95.0281 124.692C94.7176 124.692 94.4179 124.806 94.1847 125.011C93.9516 125.216 93.8009 125.498 93.7606 125.806C93.7606 126.464 93.7606 127.19 93.7606 127.882C93.7606 129.267 93.7606 130.651 93.7606 132.035C93.7606 132.727 93.7606 133.419 93.7606 134.111C93.7348 134.435 93.7487 134.76 93.8021 135.08C93.8886 135.361 94.0666 135.605 94.3078 135.773C94.5636 135.935 94.8641 136.012 95.1666 135.994H96.1294H98.1311L113.459 136.07L139.412 136.229L156.908 136.368L161.666 136.423H156.908H139.412L113.445 136.395L98.1172 136.34H95.1043C94.7297 136.362 94.3579 136.263 94.0446 136.056C93.7294 135.838 93.4994 135.518 93.3935 135.15C93.3314 134.798 93.3128 134.44 93.3381 134.084C93.3381 133.392 93.3381 132.7 93.3381 132.007C93.3381 130.623 93.3381 129.239 93.3381 127.855C93.3381 127.163 93.3381 126.47 93.3381 125.778C93.3886 125.383 93.5818 125.019 93.8814 124.755C94.181 124.491 94.5665 124.346 94.9658 124.346L152.696 124.664L162.663 124.74C163.035 124.717 163.407 124.743 163.772 124.816C164.131 124.934 164.435 125.18 164.624 125.508C164.803 125.813 164.88 126.167 164.845 126.519C164.845 126.844 164.845 127.163 164.845 127.481C164.845 128.734 164.845 129.883 164.845 130.942C164.845 132.001 164.845 132.893 164.845 133.71C164.845 134.105 164.845 134.471 164.845 134.81C164.87 135.12 164.82 135.431 164.7 135.717C164.61 135.908 164.48 136.077 164.318 136.214C164.157 136.35 163.968 136.45 163.765 136.506C163.613 136.519 163.461 136.505 163.314 136.465Z" fill="#E0E0E0"/>
<path d="M111.288 147.503L93.4736 147.422L93.4588 150.689L111.273 150.769L111.288 147.503Z" fill="#FFC300"/>
<path opacity="0.1" d="M111.288 147.503L93.4736 147.422L93.4588 150.689L111.273 150.769L111.288 147.503Z" fill="black"/>
<path d="M163.176 167.548C163.316 167.531 163.455 167.506 163.592 167.472C163.785 167.41 163.962 167.309 164.112 167.174C164.263 167.039 164.383 166.874 164.465 166.69C164.573 166.41 164.616 166.109 164.589 165.811C164.589 165.471 164.589 165.118 164.589 164.71C164.589 163.914 164.589 162.994 164.589 161.942V157.547C164.622 157.229 164.552 156.908 164.389 156.633C164.214 156.356 163.946 156.15 163.634 156.052C163.289 155.988 162.938 155.967 162.588 155.989H152.621L94.8901 155.775C94.5796 155.776 94.2798 155.889 94.0467 156.094C93.8136 156.299 93.6628 156.582 93.6226 156.889C93.6226 157.581 93.6226 158.273 93.6226 158.966C93.6226 160.35 93.6226 161.734 93.6226 163.118C93.6226 163.81 93.6226 164.502 93.6226 165.195C93.5968 165.516 93.6107 165.839 93.6641 166.157C93.7471 166.439 93.9258 166.684 94.1697 166.849C94.424 167.015 94.7258 167.092 95.0286 167.07H98.0415L113.369 167.153L139.322 167.312L156.818 167.451L161.576 167.506H156.818H139.322L113.369 167.43L98.0415 167.368H95.0286C94.6537 167.393 94.2809 167.293 93.9689 167.084C93.6537 166.866 93.4237 166.546 93.3178 166.177C93.2557 165.826 93.2371 165.468 93.2624 165.112C93.2624 164.419 93.2624 163.727 93.2624 163.035C93.2624 161.651 93.2624 160.267 93.2624 158.882C93.2624 158.19 93.2624 157.498 93.2624 156.772C93.3114 156.376 93.5031 156.013 93.8016 155.749C94.1 155.485 94.4847 155.339 94.8831 155.339L152.614 155.657L162.581 155.733C162.952 155.711 163.324 155.736 163.689 155.81C164.049 155.927 164.352 156.174 164.541 156.502C164.72 156.806 164.798 157.16 164.763 157.512C164.763 157.837 164.763 158.163 164.763 158.474C164.763 159.727 164.763 160.876 164.763 161.935C164.763 162.994 164.763 163.886 164.763 164.703C164.763 165.098 164.763 165.465 164.763 165.804C164.789 166.113 164.739 166.425 164.617 166.71C164.527 166.901 164.397 167.071 164.236 167.207C164.074 167.343 163.886 167.443 163.682 167.499C163.52 167.555 163.346 167.571 163.176 167.548Z" fill="#E0E0E0"/>
<path d="M130.966 129.036L98.3853 128.889L98.3714 131.941L130.952 132.089L130.966 129.036Z" fill="#FFC300"/>
<path opacity="0.2" d="M130.966 129.036L98.3853 128.889L98.3714 131.941L130.952 132.089L130.966 129.036Z" fill="white"/>
<path d="M101.331 161.9C101.311 162.179 101.209 162.445 101.039 162.666C100.868 162.887 100.636 163.053 100.372 163.144C100.108 163.235 99.823 163.246 99.5524 163.177C99.2819 163.107 99.0378 162.96 98.8503 162.753C98.6629 162.546 98.5404 162.288 98.498 162.012C98.4556 161.736 98.4952 161.454 98.6118 161.2C98.7285 160.947 98.9171 160.733 99.1543 160.585C99.3915 160.438 99.6667 160.363 99.946 160.371C100.332 160.392 100.694 160.565 100.953 160.851C101.212 161.137 101.348 161.514 101.331 161.9Z" fill="#FFC300"/>
<path d="M105.744 161.921C105.757 162.116 105.731 162.312 105.665 162.496C105.6 162.681 105.497 162.85 105.364 162.993C105.23 163.136 105.069 163.25 104.889 163.328C104.71 163.406 104.516 163.446 104.32 163.446C104.125 163.446 103.931 163.406 103.751 163.328C103.572 163.25 103.41 163.136 103.277 162.993C103.143 162.85 103.041 162.681 102.975 162.496C102.91 162.312 102.883 162.116 102.897 161.921C102.883 161.726 102.91 161.53 102.975 161.346C103.041 161.161 103.143 160.992 103.277 160.849C103.41 160.706 103.572 160.592 103.751 160.514C103.931 160.436 104.125 160.396 104.32 160.396C104.516 160.396 104.71 160.436 104.889 160.514C105.069 160.592 105.23 160.706 105.364 160.849C105.497 160.992 105.6 161.161 105.665 161.346C105.731 161.53 105.757 161.726 105.744 161.921Z" fill="#FFC300"/>
<path d="M110.163 161.942C110.142 162.22 110.041 162.486 109.87 162.708C109.7 162.929 109.468 163.095 109.204 163.186C108.94 163.276 108.655 163.288 108.384 163.218C108.113 163.148 107.869 163.001 107.682 162.794C107.494 162.587 107.372 162.33 107.33 162.054C107.287 161.778 107.327 161.496 107.443 161.242C107.56 160.988 107.749 160.774 107.986 160.627C108.223 160.479 108.498 160.405 108.778 160.412C109.163 160.435 109.524 160.609 109.783 160.894C110.041 161.18 110.178 161.556 110.163 161.942Z" fill="#FFC300"/>
<path d="M114.574 161.962C114.554 162.241 114.452 162.507 114.282 162.728C114.111 162.949 113.88 163.115 113.615 163.206C113.351 163.297 113.066 163.308 112.796 163.239C112.525 163.169 112.281 163.022 112.094 162.815C111.906 162.608 111.784 162.35 111.741 162.074C111.699 161.798 111.738 161.516 111.855 161.262C111.972 161.009 112.16 160.795 112.397 160.647C112.635 160.5 112.91 160.425 113.189 160.433C113.574 160.456 113.935 160.629 114.194 160.915C114.453 161.201 114.59 161.577 114.574 161.962Z" fill="#FFC300"/>
<path d="M118.987 161.976C118.968 162.255 118.867 162.522 118.697 162.744C118.528 162.966 118.296 163.134 118.032 163.226C117.768 163.317 117.483 163.33 117.212 163.261C116.941 163.192 116.696 163.045 116.508 162.838C116.32 162.631 116.196 162.374 116.154 162.098C116.111 161.821 116.15 161.539 116.267 161.285C116.383 161.031 116.572 160.816 116.809 160.669C117.047 160.521 117.322 160.446 117.602 160.454C117.986 160.477 118.345 160.649 118.604 160.934C118.863 161.218 119 161.592 118.987 161.976Z" fill="#FFC300"/>
<path d="M123.406 161.997C123.387 162.274 123.287 162.54 123.119 162.761C122.951 162.983 122.721 163.151 122.459 163.244C122.197 163.337 121.913 163.351 121.643 163.285C121.373 163.219 121.128 163.075 120.938 162.872C120.748 162.668 120.622 162.414 120.576 162.14C120.529 161.866 120.563 161.584 120.674 161.329C120.786 161.075 120.969 160.858 121.202 160.706C121.435 160.554 121.707 160.473 121.986 160.474C122.376 160.489 122.744 160.657 123.01 160.942C123.277 161.228 123.419 161.607 123.406 161.997Z" fill="#FFC300"/>
<path d="M127.818 162.018C127.832 162.213 127.805 162.409 127.74 162.593C127.674 162.777 127.572 162.946 127.438 163.089C127.305 163.232 127.143 163.347 126.963 163.425C126.784 163.503 126.59 163.543 126.395 163.543C126.199 163.543 126.005 163.503 125.826 163.425C125.646 163.347 125.485 163.232 125.351 163.089C125.218 162.946 125.115 162.777 125.05 162.593C124.984 162.409 124.958 162.213 124.971 162.018C124.958 161.823 124.984 161.627 125.05 161.442C125.115 161.258 125.218 161.089 125.351 160.946C125.485 160.803 125.646 160.689 125.826 160.611C126.005 160.533 126.199 160.493 126.395 160.493C126.59 160.493 126.784 160.533 126.963 160.611C127.143 160.689 127.305 160.803 127.438 160.946C127.572 161.089 127.674 161.258 127.74 161.442C127.805 161.627 127.832 161.823 127.818 162.018Z" fill="#FFC300"/>
<path d="M132.23 162.038C132.211 162.316 132.111 162.581 131.943 162.803C131.775 163.024 131.546 163.192 131.283 163.285C131.021 163.378 130.738 163.392 130.467 163.326C130.197 163.26 129.952 163.117 129.762 162.913C129.573 162.71 129.447 162.456 129.4 162.182C129.353 161.907 129.387 161.626 129.499 161.371C129.61 161.116 129.793 160.899 130.026 160.747C130.259 160.595 130.532 160.515 130.81 160.516C131.2 160.53 131.568 160.698 131.835 160.984C132.101 161.269 132.243 161.648 132.23 162.038Z" fill="#FFC300"/>
<path d="M136.642 162.059C136.623 162.338 136.522 162.605 136.352 162.827C136.183 163.049 135.951 163.216 135.687 163.308C135.423 163.4 135.138 163.412 134.867 163.343C134.596 163.274 134.351 163.127 134.163 162.92C133.974 162.714 133.851 162.456 133.808 162.18C133.765 161.904 133.805 161.621 133.921 161.367C134.038 161.113 134.227 160.899 134.464 160.751C134.701 160.603 134.977 160.529 135.257 160.536C135.641 160.559 136 160.732 136.259 161.016C136.518 161.3 136.655 161.675 136.642 162.059Z" fill="#FFC300"/>
<g opacity="0.2">
<path d="M101.332 161.9C101.311 162.179 101.21 162.445 101.039 162.666C100.869 162.887 100.637 163.053 100.373 163.144C100.108 163.235 99.8235 163.246 99.5529 163.177C99.2824 163.107 99.0383 162.96 98.8508 162.753C98.6634 162.546 98.5409 162.288 98.4985 162.012C98.4561 161.736 98.4957 161.454 98.6123 161.2C98.729 160.947 98.9176 160.733 99.1548 160.585C99.3919 160.438 99.6672 160.363 99.9465 160.371C100.332 160.392 100.694 160.565 100.954 160.851C101.213 161.137 101.349 161.514 101.332 161.9Z" fill="white"/>
<path d="M105.744 161.921C105.757 162.116 105.731 162.311 105.665 162.496C105.6 162.68 105.497 162.849 105.364 162.992C105.23 163.135 105.069 163.249 104.889 163.327C104.71 163.405 104.516 163.446 104.32 163.446C104.125 163.446 103.931 163.405 103.751 163.327C103.572 163.249 103.41 163.135 103.277 162.992C103.143 162.849 103.041 162.68 102.975 162.496C102.91 162.311 102.883 162.116 102.897 161.921C102.883 161.725 102.91 161.53 102.975 161.345C103.041 161.161 103.143 160.992 103.277 160.849C103.41 160.706 103.572 160.592 103.751 160.514C103.931 160.436 104.125 160.396 104.32 160.396C104.516 160.396 104.71 160.436 104.889 160.514C105.069 160.592 105.23 160.706 105.364 160.849C105.497 160.992 105.6 161.161 105.665 161.345C105.731 161.53 105.757 161.725 105.744 161.921Z" fill="white"/>
<path d="M110.163 161.942C110.142 162.22 110.041 162.486 109.87 162.708C109.7 162.929 109.468 163.095 109.204 163.186C108.94 163.276 108.655 163.288 108.384 163.218C108.113 163.148 107.869 163.001 107.682 162.794C107.494 162.587 107.372 162.33 107.33 162.054C107.287 161.778 107.327 161.496 107.443 161.242C107.56 160.988 107.749 160.774 107.986 160.627C108.223 160.479 108.498 160.405 108.778 160.412C109.163 160.435 109.524 160.609 109.783 160.894C110.041 161.18 110.178 161.556 110.163 161.942Z" fill="white"/>
<path d="M114.575 161.962C114.554 162.24 114.453 162.506 114.282 162.728C114.112 162.949 113.88 163.115 113.616 163.206C113.352 163.296 113.067 163.308 112.796 163.238C112.526 163.169 112.281 163.021 112.094 162.814C111.907 162.607 111.784 162.35 111.742 162.074C111.699 161.798 111.739 161.516 111.855 161.262C111.972 161.008 112.161 160.794 112.398 160.647C112.635 160.499 112.91 160.425 113.19 160.432C113.575 160.455 113.936 160.629 114.195 160.914C114.454 161.2 114.59 161.576 114.575 161.962Z" fill="white"/>
<path d="M118.987 161.976C118.968 162.255 118.867 162.522 118.697 162.744C118.528 162.966 118.296 163.133 118.032 163.225C117.768 163.317 117.483 163.329 117.212 163.26C116.941 163.191 116.696 163.044 116.508 162.837C116.32 162.631 116.196 162.373 116.154 162.097C116.111 161.821 116.15 161.538 116.267 161.284C116.383 161.03 116.572 160.816 116.809 160.668C117.047 160.52 117.322 160.446 117.602 160.453C117.986 160.476 118.345 160.649 118.604 160.933C118.863 161.217 119 161.592 118.987 161.976Z" fill="white"/>
<path d="M123.406 161.996C123.387 162.274 123.287 162.539 123.119 162.761C122.951 162.982 122.721 163.15 122.459 163.243C122.197 163.336 121.913 163.35 121.643 163.284C121.373 163.218 121.128 163.075 120.938 162.871C120.748 162.668 120.622 162.414 120.576 162.14C120.529 161.866 120.563 161.584 120.674 161.329C120.786 161.074 120.969 160.857 121.202 160.705C121.435 160.554 121.707 160.473 121.986 160.474C122.376 160.488 122.744 160.656 123.01 160.942C123.277 161.227 123.419 161.606 123.406 161.996Z" fill="white"/>
<path d="M127.818 162.018C127.832 162.213 127.805 162.409 127.74 162.593C127.674 162.777 127.572 162.946 127.438 163.089C127.305 163.232 127.143 163.347 126.963 163.425C126.784 163.503 126.59 163.543 126.395 163.543C126.199 163.543 126.005 163.503 125.826 163.425C125.646 163.347 125.485 163.232 125.351 163.089C125.218 162.946 125.115 162.777 125.05 162.593C124.984 162.409 124.958 162.213 124.971 162.018C124.958 161.823 124.984 161.627 125.05 161.442C125.115 161.258 125.218 161.089 125.351 160.946C125.485 160.803 125.646 160.689 125.826 160.611C126.005 160.533 126.199 160.493 126.395 160.493C126.59 160.493 126.784 160.533 126.963 160.611C127.143 160.689 127.305 160.803 127.438 160.946C127.572 161.089 127.674 161.258 127.74 161.442C127.805 161.627 127.832 161.823 127.818 162.018Z" fill="white"/>
<path d="M132.23 162.038C132.211 162.316 132.111 162.581 131.943 162.803C131.775 163.024 131.546 163.192 131.283 163.285C131.021 163.378 130.738 163.392 130.467 163.326C130.197 163.26 129.952 163.117 129.762 162.913C129.573 162.71 129.447 162.456 129.4 162.182C129.353 161.907 129.387 161.626 129.499 161.371C129.61 161.116 129.793 160.899 130.026 160.747C130.259 160.595 130.532 160.515 130.81 160.516C131.2 160.53 131.568 160.698 131.835 160.984C132.101 161.269 132.243 161.648 132.23 162.038Z" fill="white"/>
<path d="M136.642 162.059C136.623 162.338 136.522 162.605 136.352 162.827C136.183 163.049 135.951 163.216 135.687 163.308C135.423 163.4 135.138 163.412 134.867 163.343C134.596 163.274 134.351 163.127 134.163 162.92C133.974 162.714 133.851 162.456 133.808 162.18C133.765 161.904 133.805 161.621 133.921 161.367C134.038 161.113 134.227 160.899 134.464 160.751C134.701 160.603 134.977 160.529 135.257 160.536C135.641 160.559 136 160.732 136.259 161.016C136.518 161.3 136.655 161.675 136.642 162.059Z" fill="white"/>
</g>
<path d="M130.374 62.1453C130.855 61.9335 131.263 61.5851 131.547 61.1433C131.832 60.7015 131.98 60.1859 131.974 59.6606C131.992 59.3191 131.94 58.9775 131.821 58.6567C131.703 58.3359 131.52 58.0425 131.285 57.7945C131.049 57.5464 130.766 57.3489 130.451 57.2139C130.137 57.0789 129.798 57.0093 129.456 57.0093C129.114 57.0093 128.775 57.0789 128.461 57.2139C128.146 57.3489 127.863 57.5464 127.627 57.7945C127.392 58.0425 127.209 58.3359 127.091 58.6567C126.972 58.9775 126.92 59.3191 126.938 59.6606C126.928 60.1911 127.075 60.7129 127.361 61.1601C127.647 61.6072 128.059 61.9597 128.545 62.173C124.666 62.7543 124.84 66.9624 124.84 66.9624L134.01 67.0039C134.01 67.0039 134.225 62.7197 130.374 62.1453Z" fill="#FFC300"/>
<path opacity="0.1" d="M130.374 62.1453C130.855 61.9335 131.263 61.5851 131.547 61.1433C131.832 60.7015 131.98 60.1859 131.974 59.6606C131.992 59.3191 131.94 58.9775 131.821 58.6567C131.703 58.3359 131.52 58.0425 131.285 57.7945C131.049 57.5464 130.766 57.3489 130.451 57.2139C130.137 57.0789 129.798 57.0093 129.456 57.0093C129.114 57.0093 128.775 57.0789 128.461 57.2139C128.146 57.3489 127.863 57.5464 127.627 57.7945C127.392 58.0425 127.209 58.3359 127.091 58.6567C126.972 58.9775 126.92 59.3191 126.938 59.6606C126.928 60.1911 127.075 60.7129 127.361 61.1601C127.647 61.6072 128.059 61.9597 128.545 62.173C124.666 62.7543 124.84 66.9624 124.84 66.9624L134.01 67.0039C134.01 67.0039 134.225 62.7197 130.374 62.1453Z" fill="black"/>
<path d="M145.275 69.718L112.59 69.5698L112.573 73.4733L145.257 73.6215L145.275 69.718Z" fill="#FFC300"/>
<path opacity="0.2" d="M145.275 69.718L112.59 69.5698L112.573 73.4733L145.257 73.6215L145.275 69.718Z" fill="white"/>
<path d="M25.1148 89.9473H24.7893L23.8473 90.0165C23.3376 90.0471 22.8306 90.1142 22.3305 90.2172C22.0065 90.2627 21.6852 90.3251 21.3677 90.4041L20.2941 90.7017C18.4669 91.2619 16.7428 92.1151 15.1895 93.2279C13.1371 94.7165 11.4234 96.6224 10.161 98.8202C9.41898 100.087 8.82851 101.437 8.40169 102.841C7.95321 104.368 7.69499 105.944 7.63288 107.534C7.5916 108.369 7.60548 109.206 7.67444 110.039C7.67444 110.462 7.79218 110.884 7.84759 111.313C7.8942 111.745 7.97526 112.174 8.09001 112.593C8.71284 115.371 9.97658 117.964 11.7804 120.167C13.5842 122.369 15.8783 124.12 18.4795 125.28C20.3621 126.092 22.38 126.545 24.4291 126.616C26.5456 126.732 28.6642 126.428 30.6628 125.723L31.2723 125.494H31.3554L31.4247 125.536L40.1588 129.965L39.9025 130.187C38.9674 127.294 38.067 124.491 37.1943 121.798V121.695L37.2705 121.619C39.3892 119.486 40.9621 116.874 41.8557 114.005C42.6651 111.382 42.9013 108.616 42.5483 105.894C42.2344 103.474 41.456 101.138 40.2557 99.014C39.2211 97.1891 37.8865 95.5513 36.3077 94.1692C35.0052 93.0753 33.5636 92.1583 32.0204 91.4423C30.8527 90.939 29.6366 90.5564 28.391 90.3003L27.0057 90.0719L26.0014 89.9958L25.3919 89.9542H25.1841C25.2532 89.9466 25.3228 89.9466 25.3919 89.9542H26.0083L27.0127 89.9958L28.3979 90.1965C29.659 90.4338 30.8917 90.8027 32.0758 91.2969C33.6455 92.0045 35.1131 92.9193 36.4393 94.017C38.0471 95.3929 39.4101 97.031 40.4704 98.8618C41.7047 101.009 42.5071 103.377 42.8323 105.831C43.2145 108.596 42.9948 111.41 42.1882 114.081C41.2887 117.01 39.6916 119.677 37.5337 121.854L37.5753 121.674C38.448 124.366 39.3553 127.169 40.2973 130.055L40.4289 130.478L40.0341 130.277L31.3 125.854H31.4524L30.829 126.083C28.792 126.799 26.6342 127.109 24.4776 126.996C22.3843 126.917 20.3242 126.447 18.4033 125.612C14.7391 124.044 11.6905 121.318 9.72462 117.853C8.81998 116.253 8.15933 114.527 7.76448 112.732C7.65635 112.301 7.57538 111.864 7.52206 111.424C7.46665 110.988 7.37661 110.559 7.35583 110.129C7.16837 107.667 7.42885 105.191 8.12465 102.821C8.56208 101.397 9.16902 100.03 9.93241 98.751C11.2249 96.5332 12.9744 94.6152 15.0648 93.1241C16.6437 92.0084 18.3967 91.1618 20.2526 90.6187L21.34 90.3418C21.6601 90.2676 21.9837 90.2099 22.3097 90.1688C22.8151 90.0753 23.3267 90.0198 23.8404 90.0027L24.7893 89.9681C24.8972 89.9536 25.006 89.9466 25.1148 89.9473Z" fill="#FFC300"/>
<path d="M29.0627 106.087H27.7814L25.0109 102.197V99.6432C25.0109 99.6432 23.0299 99.5186 23.2654 102.862C23.5009 106.204 23.2654 105.353 23.2654 105.353C23.2654 105.353 19.0612 105.353 18.7149 105.734C18.3685 106.114 18.3478 110.17 18.2993 112.433C18.2727 112.979 18.4294 113.518 18.7444 113.964C19.0594 114.411 19.5146 114.739 20.0378 114.897C20.1844 114.938 20.3358 114.959 20.488 114.96C21.5408 114.96 26.8948 114.108 26.8948 114.108H29.1043L29.0627 106.087Z" fill="#FFC300"/>
<path d="M32.7268 105.402L31.9372 114.151H29.7485V105.582L32.7268 105.402Z" fill="#FFC300"/>
<path d="M58.8316 283.505V277.587L48.2136 277.511L48.1235 286.46L48.7815 286.509C51.7114 286.696 63.6869 286.972 65.654 286.363C67.8427 285.685 58.8316 283.505 58.8316 283.505Z" fill="#FFC300"/>
<path d="M65.9034 285.81C65.9034 285.906 61.9277 285.989 57.0308 285.989C52.1339 285.989 48.1582 285.906 48.1582 285.81C48.1582 285.713 52.1339 285.63 57.0308 285.63C61.9277 285.63 65.9034 285.713 65.9034 285.81Z" fill="#003566"/>
<path d="M59.0191 284.715C58.929 284.667 59.0191 284.355 59.2338 284.023C59.4485 283.691 59.7394 283.553 59.8087 283.622C59.8779 283.691 59.7325 283.954 59.5247 284.238C59.3169 284.522 59.1091 284.764 59.0191 284.715Z" fill="#003566"/>
<path d="M59.6974 285.103C59.6004 285.103 59.6489 284.716 59.8567 284.349C60.0645 283.982 60.3415 283.761 60.4177 283.816C60.4939 283.871 60.3692 284.183 60.1753 284.508C59.9814 284.833 59.7874 285.138 59.6974 285.103Z" fill="#003566"/>
<path d="M51.3583 285.782C51.3167 285.782 51.1574 285.657 50.9289 285.394C50.6499 285.056 50.3391 284.746 50.0007 284.467C49.6681 284.201 49.2717 284.027 48.851 283.962C48.5254 283.92 48.3177 283.962 48.2969 283.92C48.2761 283.879 48.477 283.733 48.8579 283.706C49.3606 283.695 49.8511 283.862 50.2432 284.176C50.6105 284.475 50.9203 284.839 51.1574 285.249C51.3167 285.553 51.3999 285.754 51.3583 285.782Z" fill="#003566"/>
<path d="M59.0531 283.601C59.1016 283.684 58.9215 283.892 58.6167 284.002C58.312 284.113 58.0418 284.072 58.028 284.002C58.0141 283.933 58.2288 283.788 58.492 283.691C58.7552 283.594 58.9977 283.518 59.0531 283.601Z" fill="#003566"/>
<path d="M58.8874 283.027C58.8874 283.13 58.6103 283.213 58.2501 283.22C57.89 283.227 57.606 283.144 57.6129 283.048C57.6198 282.951 57.9038 282.861 58.2501 282.854C58.5964 282.847 58.8735 282.93 58.8874 283.027Z" fill="#003566"/>
<path d="M84.9786 283.505V277.587L74.3606 277.511L74.2705 286.37L74.9285 286.419C77.8583 286.606 89.8408 286.972 91.801 286.363C93.9897 285.685 84.9786 283.505 84.9786 283.505Z" fill="#FFC300"/>
<path d="M92.0498 285.823C92.0498 285.92 88.081 286.003 83.1772 286.003C78.2734 286.003 74.3115 285.92 74.3115 285.823C74.3115 285.726 78.2803 285.643 83.1772 285.643C88.0741 285.643 92.0498 285.726 92.0498 285.823Z" fill="#003566"/>
<path d="M85.1655 284.715C85.0824 284.667 85.1655 284.355 85.3802 284.023C85.5949 283.691 85.8859 283.553 85.9551 283.622C86.0244 283.691 85.8789 283.954 85.6711 284.238C85.4633 284.522 85.2556 284.764 85.1655 284.715Z" fill="#003566"/>
<path d="M85.844 285.103C85.7539 285.103 85.7955 284.716 86.0102 284.349C86.2249 283.982 86.4951 283.761 86.5712 283.816C86.6474 283.871 86.5158 284.183 86.3219 284.508C86.128 284.833 85.9409 285.138 85.844 285.103Z" fill="#003566"/>
<path d="M77.5053 285.782C77.4637 285.782 77.3113 285.657 77.0758 285.394C76.7968 285.056 76.486 284.746 76.1477 284.467C75.815 284.201 75.4187 284.027 74.998 283.962C74.6793 283.92 74.4646 283.962 74.4438 283.92C74.4231 283.879 74.6239 283.733 75.0049 283.706C75.5076 283.695 75.9981 283.862 76.3901 284.176C76.7594 284.473 77.0695 284.837 77.3044 285.249C77.4637 285.553 77.5468 285.754 77.5053 285.782Z" fill="#003566"/>
<path d="M85.2005 283.601C85.249 283.684 85.0689 283.892 84.7642 284.002C84.4594 284.113 84.1893 284.072 84.1754 284.002C84.1616 283.933 84.3763 283.788 84.6395 283.691C84.9027 283.594 85.1451 283.518 85.2005 283.601Z" fill="#003566"/>
<path d="M85.0479 283.027C85.0479 283.13 84.7709 283.213 84.4107 283.22C84.0505 283.227 83.7735 283.144 83.7804 283.048C83.7873 282.951 84.0644 282.861 84.4107 282.854C84.757 282.847 85.0479 282.93 85.0479 283.027Z" fill="#003566"/>
<path d="M124.099 107.776C123.821 107.493 123.136 107.631 123.136 107.631C123.205 107.233 123.205 106.825 123.136 106.427C123.011 106.039 122.138 106.115 122.138 106.115C122.098 105.789 122.098 105.459 122.138 105.133C122.145 105.06 122.13 104.988 122.094 104.924C122.058 104.861 122.003 104.811 121.938 104.78C121.525 104.611 121.081 104.531 120.635 104.544C120.102 104.164 122.263 101.139 123.067 100.17C123.87 99.2012 123.724 98.4468 123.011 98.4468C122.519 98.4468 119.998 101.354 119.222 102.33C118.447 103.305 116.39 106.019 116.32 103.852C116.251 101.686 115.378 100.052 114.831 99.7756C114.284 99.4988 113.702 100.149 114 100.752C114.262 101.436 114.425 102.153 114.485 102.883C114.56 103.465 114.534 104.055 114.409 104.627C114.179 105.693 113.866 106.739 113.474 107.756H113.418C113.418 107.756 98.305 122.242 97.2106 123.273C96.234 124.2 76.5911 122.173 72.65 121.757C71.3108 121.561 69.9585 121.469 68.605 121.48C66.8942 121.557 66.5895 121.799 64.8856 121.82C60.5826 121.867 56.2896 122.244 52.0443 122.948C50.122 123.274 48.3264 124.122 46.8533 125.399C45.3803 126.675 44.2865 128.332 43.6911 130.187C39.7224 142.576 30.7321 171.901 29.1459 188.373C27.9474 190.545 26.8653 192.779 25.9044 195.066C24.7893 198.098 25.0594 198.201 25.4334 198.271C26.4447 198.458 27.5944 193.017 28.0239 194.332C28.4533 195.648 25.8421 200.818 26.9018 200.97C28.2871 201.164 29.3884 195.433 29.52 194.976C29.6516 194.519 30.3373 194.665 30.2126 195.094C30.0117 195.703 28.0654 202.16 29.423 202.368C30.171 202.479 30.2541 201.115 30.2541 201.115C30.2541 201.115 31.6394 194.935 32.2697 195.059C32.9 195.184 32.2281 198.831 31.9095 200.049C31.5909 201.268 32.0342 201.883 32.6853 201.586C33.1285 201.378 34.1883 197.675 34.4792 196.471C34.7701 195.267 35.4973 191.931 36.474 193.862C37.4506 195.793 38.9328 196.914 39.5423 196.942C39.6796 196.926 39.8091 196.869 39.914 196.779C40.0189 196.689 40.0945 196.57 40.131 196.437C40.1675 196.304 40.1633 196.163 40.1189 196.032C40.0744 195.901 39.9918 195.786 39.8817 195.703C39.3574 195.191 38.9075 194.609 38.5449 193.973C38.2218 193.477 37.9874 192.929 37.8523 192.353C37.5732 191.205 37.4107 190.032 37.3674 188.851L37.2566 188.159C38.8081 180.483 43.2756 157.955 49.724 143.566L52.3698 149.006L53.5196 153.034L46.4686 170.427L76.5426 170.032L72.0543 152.771L77.5053 134.776C83.3996 134.907 98.5336 135.129 101.055 133.987C104.227 132.603 120.635 111.895 120.635 111.895C121.705 111.064 122.729 110.177 123.704 109.237C123.704 109.237 124.701 108.399 124.099 107.776Z" fill="#FFBE9D"/>
<path d="M45.1451 157.574C46.0178 154.598 50.4991 139.884 50.4991 139.884C50.4991 139.884 52.7017 151.878 52.1199 153.325C51.5847 154.563 50.9525 155.757 50.229 156.896C45.1451 164.627 45.81 168.496 45.81 168.496L76.5282 167.562C76.5974 163.27 74.0555 153.29 73.5291 151.698C73.0027 150.106 74.755 144.895 74.755 144.895C74.755 144.895 78.2182 141.372 78.0935 139.559C78.0277 137.93 77.8262 136.309 77.4909 134.714L96.1919 135.406L95.6032 122.74L68.743 120.055C67.808 122.692 59.3509 121.397 59.3509 121.397C50.2221 121.702 49.6541 123.377 45.8585 126.325C42.0629 129.274 35.7808 154.577 35.7808 154.577L45.1451 157.574Z" fill="#FFC300"/>
<path d="M63.3059 154.577C62.7736 154.672 62.2314 154.7 61.6921 154.66C60.6878 154.66 59.3095 154.591 57.7926 154.439C56.2757 154.286 54.9043 154.072 53.9277 153.878C53.3892 153.809 52.8612 153.674 52.3555 153.477C52.897 153.477 53.4373 153.528 53.9693 153.629C54.9528 153.753 56.3173 153.926 57.8272 154.079C59.3372 154.231 60.7086 154.335 61.699 154.404C62.2389 154.411 62.777 154.469 63.3059 154.577Z" fill="#003566"/>
<path d="M65.4112 151.969C64.8787 152.229 64.3155 152.422 63.735 152.543C60.9717 153.269 58.1207 153.607 55.2642 153.547C54.6731 153.566 54.0819 153.51 53.5049 153.381C54.0883 153.307 54.6763 153.277 55.2642 153.291C56.3516 153.256 57.8477 153.18 59.4961 152.986C61.1446 152.792 62.613 152.516 63.6519 152.294C64.229 152.14 64.8172 152.031 65.4112 151.969Z" fill="#003566"/>
<path d="M75.7454 140.327C75.7313 140.854 75.6593 141.379 75.5306 141.891C75.3505 142.853 75.0735 144.168 74.7203 145.608C74.367 147.047 74.0276 148.376 73.7229 149.276C73.6003 149.791 73.4191 150.29 73.1826 150.764C73.2212 150.238 73.3188 149.718 73.4735 149.213C73.7367 148.134 74.0346 146.888 74.367 145.524C74.6995 144.161 75.0181 142.915 75.2813 141.835C75.375 141.316 75.5308 140.809 75.7454 140.327Z" fill="#003566"/>
<path d="M45.4709 155.81C43.8685 155.563 42.2871 155.195 40.7402 154.709C39.1596 154.34 37.6084 153.854 36.0996 153.256C37.7012 153.507 39.2823 153.875 40.8303 154.356C42.4113 154.724 43.9625 155.21 45.4709 155.81Z" fill="#003566"/>
<path d="M77.8235 134.561C77.5622 134.606 77.2951 134.606 77.0339 134.561C76.3104 134.487 75.6 134.317 74.9213 134.056C73.7883 133.631 72.7568 132.973 71.8932 132.126C71.0296 131.278 70.3529 130.26 69.9067 129.135C69.4135 127.898 69.2029 126.567 69.2903 125.239C69.3211 124.143 69.6491 123.076 70.2392 122.152C70.6542 121.529 71.2741 121.071 71.9915 120.858C72.1832 120.805 72.3814 120.779 72.5803 120.781C72.7188 120.781 72.788 120.781 72.788 120.781C72.788 120.781 72.4971 120.781 72.0331 120.968C71.3749 121.211 70.8167 121.667 70.447 122.263C69.505 123.744 69.2418 126.45 70.2461 128.976C70.7135 130.167 71.4453 131.237 72.3863 132.104C73.1574 132.814 74.0455 133.386 75.0114 133.793C75.9178 134.151 76.8608 134.409 77.8235 134.561Z" fill="#003566"/>
<path d="M93.9686 135.157C93.7956 133.034 93.7402 130.904 93.8026 128.775C93.7485 126.649 93.8131 124.52 93.9962 122.401C94.1693 124.521 94.2247 126.649 94.1622 128.775C94.2203 130.904 94.1557 133.035 93.9686 135.157Z" fill="#003566"/>
<path d="M68.5634 120.83C68.6396 119.286 68.7989 117.542 68.7989 117.542C68.7989 117.542 72.6222 117.12 72.8508 113.175C73.0794 109.23 72.8508 100.129 72.8508 100.129L65.9245 96.585L58.2363 102.627L59.4207 122.352L66.4717 122.802C67.0107 122.817 67.5335 122.618 67.9257 122.248C68.3178 121.878 68.5471 121.368 68.5634 120.83Z" fill="#FFBE9D"/>
<path d="M69.249 110.053C69.249 110.053 69.249 110.129 69.1867 110.219C69.1351 110.285 69.0685 110.336 68.9924 110.37C68.9164 110.404 68.8333 110.419 68.7503 110.413C68.307 110.413 67.8776 109.901 67.7252 109.306C67.6528 109.017 67.6528 108.715 67.7252 108.427C67.7394 108.301 67.7849 108.18 67.8575 108.077C67.93 107.973 68.0274 107.888 68.1408 107.832C68.2339 107.793 68.3385 107.793 68.4317 107.832C68.5008 107.866 68.5567 107.922 68.591 107.991C68.6395 108.108 68.591 108.185 68.591 108.178C68.591 108.171 68.591 108.108 68.5217 108.039C68.4855 107.99 68.4323 107.955 68.3722 107.942C68.3121 107.93 68.2495 107.939 68.1962 107.97C68.1112 108.021 68.0406 108.093 67.991 108.179C67.9413 108.265 67.9142 108.362 67.9122 108.461C67.8539 108.719 67.8539 108.986 67.9122 109.243C68.0507 109.783 68.4248 110.219 68.7572 110.261C68.8223 110.27 68.8884 110.265 68.9516 110.247C69.0148 110.229 69.0735 110.199 69.1243 110.157C69.2074 110.102 69.2351 110.046 69.249 110.053Z" fill="#EB996E"/>
<path d="M75.2264 97.9969C74.6931 96.1835 72.7607 95.2838 71.0014 94.7855C68.3209 94.0241 65.4257 93.6919 62.8076 94.654C60.1895 95.616 57.0449 97.3048 57.0449 100.191C55.5004 100.066 54.6138 101.416 54.0043 103.091C53.6146 104.111 53.3811 105.185 53.3116 106.275C53.1177 110.054 52.058 115.272 49.6061 118.041C48.2208 119.584 46.3022 120.65 45.5126 122.574C44.82 124.242 45.1802 126.221 44.536 127.91C43.9611 129.398 42.6936 130.457 41.7655 131.751C40.8199 133.22 40.2635 134.904 40.1484 136.646C40.0333 138.388 40.3633 140.131 41.1075 141.711C41.857 143.25 42.9123 144.621 44.2091 145.739C45.5059 146.858 47.0169 147.701 48.6502 148.217C51.8855 149.2 55.3356 149.234 58.5895 148.314C61.0315 147.73 63.3096 146.602 65.2526 145.012C67.2407 143.39 68.6061 141.131 69.1174 138.617C69.6092 135.793 68.8196 132.921 68.2309 130.111C66.3885 121.231 66.9149 120.768 69.2421 112.524C69.2975 112.379 69.3252 112.227 69.3668 112.081C69.4084 111.936 69.4291 111.867 69.4568 111.756C69.5229 111.43 69.5577 111.099 69.5607 110.766C69.2208 110.893 68.8519 110.919 68.4973 110.843C68.1427 110.767 67.8172 110.592 67.559 110.337C67.3003 110.066 67.1199 109.73 67.0369 109.364C66.954 108.998 66.9717 108.617 67.088 108.261C67.2515 107.871 67.495 107.52 67.8028 107.23C68.1106 106.941 68.4759 106.719 68.875 106.579C69.6438 106.261 70.4681 106.095 71.223 105.742C72.823 104.98 73.9312 103.402 74.6862 101.748C75.3069 100.602 75.4984 99.2717 75.2264 97.9969Z" fill="#003566"/>
<path d="M69.5262 110.241C69.6726 110.457 69.7935 110.689 69.8864 110.933C70.0942 111.369 70.3713 111.985 70.676 112.698L70.7314 112.829H70.586L69.8933 112.892C69.4154 112.892 69.0137 112.981 68.5427 112.975C68.5017 112.965 68.4637 112.946 68.4322 112.918C68.4007 112.89 68.3768 112.855 68.3626 112.815C68.342 112.752 68.342 112.685 68.3626 112.622C68.3787 112.528 68.3995 112.436 68.425 112.345L68.5496 111.853C68.6123 111.526 68.7098 111.205 68.8406 110.898C68.8277 111.232 68.7789 111.564 68.6951 111.888L68.5981 112.379C68.5635 112.545 68.5012 112.802 68.5981 112.781C68.9444 112.781 69.4362 112.705 69.8933 112.677L70.586 112.615L70.4959 112.767C70.1981 112.075 69.9488 111.424 69.8033 110.974C69.6757 110.745 69.5824 110.497 69.5262 110.241Z" fill="#FFC300"/>
<path d="M45.8102 168.496L76.5284 167.562L89.8961 219.706L87.4373 279.518H71.1951L73.183 220.979L61.3044 184.678L63.1329 281.837L46.7176 282.079L44.9929 190.754C44.9167 188.214 44.0856 182.49 44.3973 179.971L45.8102 168.496Z" fill="#003566"/>
<path d="M65.3914 185.418C64.8886 185.449 64.3838 185.419 63.8884 185.328C62.9603 185.217 61.6928 185.023 60.3006 184.746C58.9084 184.469 57.6617 184.151 56.7612 183.895C56.2799 183.789 55.8143 183.622 55.376 183.397C55.376 183.293 57.6339 183.833 60.4045 184.393C63.175 184.954 65.4052 185.314 65.3914 185.418Z" fill="#455A64"/>
<path d="M87.2711 276.237C87.2711 276.334 83.5932 276.417 79.0565 276.417C74.5198 276.417 70.835 276.334 70.835 276.237C70.835 276.141 74.5128 276.058 79.0565 276.058C83.6001 276.058 87.2711 276.134 87.2711 276.237Z" fill="#455A64"/>
<path d="M62.9874 279.31C62.9874 279.414 59.4134 279.49 55.0083 279.49C50.6032 279.49 47.0361 279.414 47.0361 279.31C47.0361 279.206 50.6101 279.13 55.0083 279.13C59.4065 279.13 62.9874 279.213 62.9874 279.31Z" fill="#455A64"/>
<path d="M60.8679 279.061C60.771 279.061 60.3416 257.834 59.9052 231.651C59.4688 205.469 59.2126 184.228 59.3026 184.228C59.3927 184.228 59.8359 205.448 60.2654 231.644C60.6948 257.841 60.9718 279.061 60.8679 279.061Z" fill="#455A64"/>
<path d="M85.0893 276.237C85.0817 276.143 85.0817 276.048 85.0893 275.953V275.123C85.0893 274.375 85.1447 273.303 85.1863 271.939C85.2832 269.171 85.4218 265.15 85.5949 260.222C85.9689 250.311 86.4953 236.648 87.0702 221.567C87.0702 221.422 87.0702 221.283 87.0702 221.159V221.207C83.4339 206.673 80.1439 193.481 77.7544 183.937L74.9838 172.648C74.6652 171.326 74.4228 170.295 74.2497 169.575C74.1665 169.236 74.1111 168.973 74.0626 168.772C74.0357 168.682 74.0194 168.589 74.0142 168.496C74.0501 168.583 74.078 168.673 74.0973 168.766C74.1527 168.959 74.2219 169.222 74.3189 169.555C74.5059 170.247 74.776 171.299 75.1224 172.614C75.815 175.285 76.7916 179.133 78.0106 183.874C80.421 193.412 83.7456 206.569 87.4304 221.124V221.173C87.4304 221.297 87.4304 221.442 87.4304 221.581C86.814 236.662 86.2529 250.318 85.8443 260.229C85.6295 265.163 85.4495 269.157 85.3248 271.939C85.2555 273.323 85.2001 274.375 85.1655 275.123C85.1655 275.476 85.1239 275.753 85.117 275.953C85.118 276.049 85.1087 276.144 85.0893 276.237Z" fill="#455A64"/>
<path d="M79.7911 219.941C78.6244 220.324 77.4226 220.591 76.2032 220.737C74.7072 220.993 73.4327 221.173 72.8578 221.201V221.062C73.0448 221.118 73.1418 221.152 73.1418 221.18C73.1418 221.207 73.0241 221.18 72.8301 221.18H72.4146L72.8301 221.055C73.3704 220.896 74.6448 220.633 76.1409 220.363C77.3408 220.103 78.5634 219.962 79.7911 219.941Z" fill="#455A64"/>
<path d="M79.5071 221.926C78.4267 221.975 77.3441 221.927 76.2725 221.781C75.1906 221.759 74.1128 221.641 73.0518 221.428C75.2164 221.252 77.3953 221.42 79.5071 221.926Z" fill="#455A64"/>
<path opacity="0.2" d="M45.6792 169.596C46.043 170.063 46.5012 170.448 47.024 170.726C47.5467 171.004 48.1222 171.168 48.7129 171.209C49.9501 171.355 51.2015 171.332 52.4323 171.14C60.3629 170.261 68.7645 169.451 76.5289 167.562C66.4789 168.122 55.8609 167.935 45.8108 168.496L45.7069 169.354" fill="black"/>
<g opacity="0.2">
<path d="M56.0337 183.75L61.6994 205.718L61.3046 184.677L56.0337 183.75Z" fill="black"/>
</g>
</svg>
