<svg width="50" height="50" viewBox="0 0 50 50" fill="none" xmlns="http://www.w3.org/2000/svg">
<circle cx="25" cy="25" r="25" fill="#E5EBF0"/>
<path d="M17.7256 16C17.5352 16.0063 17.3543 16.0849 17.2197 16.2197L16.2197 17.2197C16.0989 17.3404 16.0229 17.4987 16.0042 17.6685C15.9856 17.8382 16.0254 18.0093 16.1172 18.1533L18.0439 21.1777C18.5857 22.0444 19.7593 22.2058 20.5557 21.6162L24.4629 25.5234C23.7947 26.6744 23.8971 28.1604 24.874 29.1484H24.873L28.8301 33.1592C28.8307 33.1595 28.8314 33.1598 28.832 33.1601C30.0021 34.3388 31.9279 34.3457 33.1064 33.1758C34.2842 32.0066 34.2927 30.0805 33.124 28.9023L33.1221 28.9004L29.1728 24.8974C29.1725 24.8974 29.1722 24.8974 29.1719 24.8974C28.1868 23.9017 26.6858 23.7901 25.5244 24.4638L21.6162 20.5556C22.205 19.7597 22.0446 18.5873 21.1797 18.0449L18.1533 16.1172C18.0258 16.0359 17.8767 15.995 17.7256 16ZM28.707 16C25.898 16 23.6037 18.2191 23.4697 20.9951L25.0693 22.5937C25.1093 22.4632 25.1156 22.323 25.0801 22.1865C24.9981 21.868 24.957 21.553 24.957 21.25C24.957 19.182 26.639 17.5 28.707 17.5C28.8985 17.5 29.0884 17.5149 29.2754 17.5439L27.6592 19.1592C27.2337 19.5842 27 20.149 27 20.75C27 21.351 27.2342 21.9158 27.6592 22.3408C28.0842 22.7658 28.649 23 29.25 23C29.851 23 30.4158 22.7658 30.8408 22.3408L32.4248 20.7578C32.4468 20.9203 32.457 21.0845 32.457 21.25C32.457 22.7395 31.5833 24.0356 30.3213 24.6386L31.4141 25.7451C32.9366 24.8251 33.957 23.154 33.957 21.249C33.957 20.4775 33.789 19.7294 33.457 19.0234C33.353 18.8024 33.1482 18.6445 32.9072 18.6025C32.6677 18.5605 32.4205 18.639 32.248 18.8115L29.7803 21.2793C29.4973 21.5623 29.0027 21.5628 28.7197 21.2793C28.5782 21.1383 28.5 20.95 28.5 20.75C28.5 20.55 28.5782 20.3617 28.7197 20.2197L31.2021 17.7363C31.3736 17.5648 31.4521 17.3215 31.4121 17.082C31.3721 16.843 31.2185 16.6377 31.001 16.5312C30.276 16.1787 29.5045 16 28.707 16ZM17.8545 17.706L20.3769 19.3125C20.3789 19.3135 20.3808 19.3144 20.3828 19.3154C20.5327 19.4091 20.552 19.5788 20.4267 19.7041L19.7041 20.4267C19.5784 20.5525 19.41 20.5341 19.3154 20.3828C19.3145 20.3808 19.3135 20.3789 19.3125 20.3769L17.706 17.8545L17.8545 17.706ZM21.6064 24.081L16.8779 28.8467C16.3089 29.4197 15.997 30.1808 16 30.9883C16.003 31.7958 16.3206 32.5535 16.8926 33.122C17.4631 33.6885 18.2185 34 19.0225 34H19.0332C19.8407 33.997 20.599 33.6799 21.168 33.1064L24.2764 29.9726L24.1016 29.7968C23.7951 29.4868 23.5546 29.1338 23.3691 28.7578L20.1035 32.0498C19.817 32.3383 19.4348 32.4985 19.0283 32.5C18.6023 32.493 18.2387 32.3446 17.9502 32.0576C17.6612 31.7711 17.5015 31.3894 17.5 30.9824C17.4985 30.5759 17.6559 30.1928 17.9424 29.9043L22.667 25.1416L21.6064 24.081ZM27.0293 25.4951C27.4178 25.4968 27.8061 25.6496 28.1055 25.9521L32.0557 29.956C32.0563 29.9567 32.057 29.9573 32.0576 29.958C32.6559 30.56 32.6524 31.5131 32.0498 32.1113C31.4463 32.7104 30.4954 32.7068 29.8965 32.1035L25.9404 28.0947C25.9404 28.0944 25.9404 28.094 25.9404 28.0937C25.3435 27.4901 25.3481 26.54 25.9502 25.9424C26.2522 25.6425 26.6408 25.4933 27.0293 25.4951Z" fill="#001D3D"/>
</svg>
