<svg width="50" height="50" viewBox="0 0 50 50" fill="none" xmlns="http://www.w3.org/2000/svg">
<circle cx="25" cy="25" r="25" fill="#E5EBF0"/>
<circle cx="25" cy="25" r="16" fill="#001D3D"/>
<path d="M25 19C21.8121 19 19.2038 21.5023 19.0182 24.6445L18.3535 23.9798C18.3069 23.9318 18.2512 23.8937 18.1895 23.8676C18.1279 23.8416 18.0617 23.8281 17.9948 23.8281C17.8953 23.8281 17.7981 23.8579 17.7155 23.9135C17.633 23.9691 17.5689 24.048 17.5315 24.1402C17.4941 24.2324 17.4851 24.3337 17.5056 24.4311C17.5261 24.5285 17.5751 24.6175 17.6465 24.6868L19.1465 26.1868C19.2403 26.2806 19.3674 26.3332 19.5 26.3332C19.6326 26.3332 19.7598 26.2806 19.8535 26.1868L21.3535 24.6868C21.4015 24.6408 21.4398 24.5856 21.4662 24.5245C21.4926 24.4635 21.5065 24.3977 21.5072 24.3312C21.5079 24.2647 21.4953 24.1987 21.4702 24.1371C21.445 24.0755 21.4078 24.0196 21.3608 23.9726C21.3137 23.9255 21.2578 23.8883 21.1962 23.8632C21.1346 23.838 21.0686 23.8254 21.0021 23.8261C20.9356 23.8268 20.8699 23.8407 20.8088 23.8671C20.7478 23.8935 20.6926 23.9318 20.6465 23.9798L20.0202 24.6061C20.2207 22.0243 22.3655 20 25 20C26.692 20 28.1781 20.8389 29.084 22.1217C29.1219 22.1754 29.1699 22.2211 29.2255 22.2562C29.281 22.2912 29.3429 22.315 29.4076 22.3262C29.4723 22.3373 29.5386 22.3356 29.6027 22.3212C29.6667 22.3067 29.7273 22.2798 29.781 22.2419C29.8346 22.204 29.8803 22.156 29.9154 22.1004C29.9504 22.0449 29.9742 21.983 29.9854 21.9183C29.9965 21.8536 29.9948 21.7873 29.9804 21.7232C29.9659 21.6592 29.9389 21.5986 29.9011 21.5449C28.8156 20.0077 27.0234 19 25 19ZM30.4928 23.6667C30.3627 23.6686 30.2385 23.7211 30.1465 23.8132L28.6465 25.3132C28.5985 25.3592 28.5602 25.4144 28.5338 25.4755C28.5074 25.5365 28.4935 25.6023 28.4928 25.6688C28.4921 25.7353 28.5047 25.8013 28.5299 25.8629C28.555 25.9245 28.5922 25.9804 28.6392 26.0274C28.6863 26.0745 28.7422 26.1117 28.8038 26.1368C28.8654 26.162 28.9314 26.1746 28.9979 26.1739C29.0644 26.1732 29.1301 26.1593 29.1912 26.1329C29.2523 26.1065 29.3075 26.0682 29.3535 26.0202L29.9798 25.3939C29.7793 27.9757 27.6345 30 25 30C23.308 30 21.8219 29.1611 20.916 27.8783C20.8782 27.8246 20.8301 27.7789 20.7746 27.7438C20.719 27.7088 20.6571 27.685 20.5924 27.6738C20.5277 27.6627 20.4614 27.6644 20.3974 27.6788C20.3333 27.6933 20.2727 27.7202 20.219 27.7581C20.1654 27.796 20.1197 27.844 20.0847 27.8996C20.0496 27.9551 20.0258 28.017 20.0146 28.0817C20.0035 28.1464 20.0052 28.2127 20.0197 28.2768C20.0341 28.3408 20.0611 28.4014 20.099 28.4551C21.1844 29.9923 22.9767 31 25 31C28.1879 31 30.7962 28.4977 30.9818 25.3555L31.6465 26.0202C31.6926 26.0682 31.7478 26.1065 31.8088 26.1329C31.8699 26.1593 31.9356 26.1732 32.0021 26.1739C32.0686 26.1746 32.1346 26.162 32.1962 26.1368C32.2578 26.1117 32.3137 26.0745 32.3608 26.0274C32.4078 25.9804 32.445 25.9245 32.4702 25.8629C32.4953 25.8013 32.5079 25.7353 32.5072 25.6688C32.5065 25.6023 32.4926 25.5365 32.4662 25.4755C32.4398 25.4144 32.4015 25.3592 32.3535 25.3132L30.8535 23.8132C30.8063 23.7659 30.75 23.7285 30.688 23.7034C30.6261 23.6782 30.5597 23.6657 30.4928 23.6667Z" fill="white"/>
</svg>
