<svg width="50" height="50" viewBox="0 0 50 50" fill="none" xmlns="http://www.w3.org/2000/svg">
<circle cx="25" cy="25" r="25" fill="#E5EBF0"/>
<circle cx="25" cy="25" r="16" fill="#001D3D"/>
<path d="M25 18.6841C24.4818 18.6841 23.9637 18.9368 23.6836 19.4425L18.5234 28.7648C17.9792 29.7481 18.716 30.9998 19.8398 30.9998H30.1608C31.2846 30.9998 32.0214 29.7481 31.4772 28.7648L26.3164 19.4425C26.0363 18.9368 25.5181 18.6841 25 18.6841ZM25 19.6496C25.1695 19.6496 25.3388 19.7417 25.4414 19.9269L30.6022 29.2492C30.8 29.6066 30.5683 29.9998 30.1608 29.9998H19.8398C19.4323 29.9998 19.2006 29.6066 19.3984 29.2492L24.5586 19.9269C24.6611 19.7417 24.8305 19.6496 25 19.6496ZM24.9922 22.326C24.8597 22.3281 24.7334 22.3827 24.6411 22.4777C24.5488 22.5728 24.4981 22.7007 24.5 22.8332V26.1665C24.499 26.2328 24.5113 26.2985 24.536 26.36C24.5607 26.4215 24.5974 26.4775 24.6439 26.5247C24.6904 26.5718 24.7459 26.6093 24.807 26.6349C24.8681 26.6605 24.9337 26.6736 25 26.6736C25.0662 26.6736 25.1318 26.6605 25.193 26.6349C25.2541 26.6093 25.3095 26.5718 25.3561 26.5247C25.4026 26.4775 25.4393 26.4215 25.464 26.36C25.4887 26.2985 25.5009 26.2328 25.5 26.1665V22.8332C25.5009 22.7662 25.4885 22.6998 25.4633 22.6378C25.4381 22.5758 25.4007 22.5195 25.3533 22.4722C25.306 22.4249 25.2496 22.3876 25.1876 22.3625C25.1255 22.3374 25.0591 22.325 24.9922 22.326ZM25 27.6665C24.8232 27.6665 24.6536 27.7367 24.5286 27.8618C24.4036 27.9868 24.3333 28.1564 24.3333 28.3332C24.3333 28.51 24.4036 28.6796 24.5286 28.8046C24.6536 28.9296 24.8232 28.9998 25 28.9998C25.1768 28.9998 25.3464 28.9296 25.4714 28.8046C25.5964 28.6796 25.6666 28.51 25.6666 28.3332C25.6666 28.1564 25.5964 27.9868 25.4714 27.8618C25.3464 27.7367 25.1768 27.6665 25 27.6665Z" fill="white"/>
</svg>
