<svg width="50" height="50" viewBox="0 0 50 50" fill="none" xmlns="http://www.w3.org/2000/svg">
<circle cx="25" cy="25" r="25" fill="#E5EBF0"/>
<path d="M18.25 16C17.0162 16 16 17.0162 16 18.25V21.75C16 22.9838 17.0162 24 18.25 24H21.75C22.9838 24 24 22.9838 24 21.75V18.25C24 17.0162 22.9838 16 21.75 16H18.25ZM28.25 16C27.0162 16 26 17.0162 26 18.25V21.75C26 22.9838 27.0162 24 28.25 24H31.75C32.9838 24 34 22.9838 34 21.75V18.25C34 17.0162 32.9838 16 31.75 16H28.25ZM18.25 17.5H21.75C22.1732 17.5 22.5 17.8268 22.5 18.25V21.75C22.5 22.1732 22.1732 22.5 21.75 22.5H18.25C17.8268 22.5 17.5 22.1732 17.5 21.75V18.25C17.5 17.8268 17.8268 17.5 18.25 17.5ZM28.25 17.5H31.75C32.1733 17.5 32.5 17.8268 32.5 18.25V21.75C32.5 22.1732 32.1733 22.5 31.75 22.5H28.25C27.8268 22.5 27.5 22.1732 27.5 21.75V18.25C27.5 17.8268 27.8268 17.5 28.25 17.5ZM19 19V21H21V19H19ZM29 19V21H31V19H29ZM18.25 26C17.0162 26 16 27.0162 16 28.25V31.75C16 32.9838 17.0162 34 18.25 34H21.75C22.9838 34 24 32.9838 24 31.75V28.25C24 27.0162 22.9838 26 21.75 26H18.25ZM26 26V28.75H28.75V26H26ZM28.75 28.75V31.25H31.25V28.75H28.75ZM31.25 28.75H34V26H31.25V28.75ZM31.25 31.25V34H34V31.25H31.25ZM28.75 31.25H26V34H28.75V31.25ZM18.25 27.5H21.75C22.1732 27.5 22.5 27.8268 22.5 28.25V31.75C22.5 32.1733 22.1732 32.5 21.75 32.5H18.25C17.8268 32.5 17.5 32.1733 17.5 31.75V28.25C17.5 27.8268 17.8268 27.5 18.25 27.5ZM19 29V31H21V29H19Z" fill="#001D3D"/>
</svg>
