<svg width="50" height="50" viewBox="0 0 50 50" fill="none" xmlns="http://www.w3.org/2000/svg">
<circle cx="25" cy="25" r="25" fill="#E5EBF0"/>
<circle cx="25" cy="25" r="16" fill="#001D3D"/>
<path d="M25.0203 15.8333C24.8591 15.8283 24.7022 15.8857 24.5824 15.9936C24.5824 15.9936 21.4542 18.75 17.7083 18.75C17.5425 18.75 17.3835 18.8158 17.2663 18.9331C17.1491 19.0503 17.0833 19.2092 17.0833 19.375V24.4832C17.0833 27.2657 18.3705 31.8443 24.7574 34.5345C24.8342 34.5668 24.9166 34.5834 24.9999 34.5834C25.0832 34.5834 25.1657 34.5668 25.2424 34.5345C31.6293 31.8443 32.9166 27.2657 32.9166 24.4832V19.375C32.9166 19.2092 32.8507 19.0503 32.7335 18.9331C32.6163 18.8158 32.4573 18.75 32.2916 18.75C28.5457 18.75 25.4174 15.9936 25.4174 15.9936C25.308 15.8951 25.1674 15.8383 25.0203 15.8333ZM24.9999 17.2615C25.8595 17.9526 28.3796 19.7238 31.6666 19.9479V24.4832C31.6666 26.8758 30.7472 30.7357 24.9999 33.2609C19.2527 30.7357 18.3333 26.8758 18.3333 24.4832V19.9479C21.6202 19.7238 24.1403 17.9526 24.9999 17.2615ZM24.9999 20C23.6266 20 22.4999 21.1267 22.4999 22.5V23.4497C21.7764 23.7104 21.2499 24.4 21.2499 25.2083V27.2916C21.2499 28.3198 22.0968 29.1666 23.1249 29.1666H26.8749C27.903 29.1666 28.7499 28.3198 28.7499 27.2916V25.2083C28.7499 24.4 28.2234 23.7104 27.4999 23.4497V22.5C27.4999 21.1267 26.3732 20 24.9999 20ZM24.9999 21.25C25.6975 21.25 26.2499 21.8024 26.2499 22.5V23.3333H23.7499V22.5C23.7499 21.8024 24.3024 21.25 24.9999 21.25ZM23.1249 24.5833H26.8749C27.2276 24.5833 27.4999 24.8556 27.4999 25.2083V27.2916C27.4999 27.6444 27.2276 27.9166 26.8749 27.9166H23.1249C22.7722 27.9166 22.4999 27.6444 22.4999 27.2916V25.2083C22.4999 24.8556 22.7722 24.5833 23.1249 24.5833ZM24.9999 25.4166C24.7789 25.4166 24.5669 25.5044 24.4107 25.6607C24.2544 25.817 24.1666 26.029 24.1666 26.25C24.1666 26.471 24.2544 26.683 24.4107 26.8392C24.5669 26.9955 24.7789 27.0833 24.9999 27.0833C25.2209 27.0833 25.4329 26.9955 25.5892 26.8392C25.7455 26.683 25.8333 26.471 25.8333 26.25C25.8333 26.029 25.7455 25.817 25.5892 25.6607C25.4329 25.5044 25.2209 25.4166 24.9999 25.4166Z" fill="white"/>
</svg>
