<svg width="22" height="22" viewBox="0 0 22 22" fill="none" xmlns="http://www.w3.org/2000/svg">
<path fill-rule="evenodd" clip-rule="evenodd" d="M22 11C22 17.0751 17.0751 22 11 22C10.0581 22 9.14384 21.8816 8.27131 21.6589L1.42121 20.8027C0.645851 20.7057 0.107004 19.983 0.235463 19.2122L0.654549 16.6977C0.676401 16.5666 0.679126 16.433 0.662639 16.3011L0.341086 13.7287C0.118385 12.8562 0 11.9419 0 11C0 4.92487 4.92487 0 11 0C17.0751 0 22 4.92487 22 11ZM15.5833 11C15.5833 11.8438 16.2673 12.5278 17.1111 12.5278C17.9549 12.5278 18.6389 11.8438 18.6389 11C18.6389 10.1562 17.9549 9.47222 17.1111 9.47222C16.2673 9.47222 15.5833 10.1562 15.5833 11ZM11 12.5278C10.1562 12.5278 9.47222 11.8438 9.47222 11C9.47222 10.1562 10.1562 9.47222 11 9.47222C11.8438 9.47222 12.5278 10.1562 12.5278 11C12.5278 11.8438 11.8438 12.5278 11 12.5278ZM3.36111 11C3.36111 11.8438 4.04512 12.5278 4.88889 12.5278C5.73266 12.5278 6.41667 11.8438 6.41667 11C6.41667 10.1562 5.73266 9.47222 4.88889 9.47222C4.04512 9.47222 3.36111 10.1562 3.36111 11Z" fill="#003566"/>
</svg>
