<svg width="31" height="30" viewBox="0 0 31 30" fill="none" xmlns="http://www.w3.org/2000/svg">
<circle cx="15.5" cy="15" r="15" fill="#E5EBF0"/>
<circle cx="15.4999" cy="15" r="9.6" fill="#001D3D"/>
<path d="M15.5 10.125C12.812 10.125 10.625 12.312 10.625 15C10.625 17.688 12.812 19.875 15.5 19.875C18.188 19.875 20.375 17.688 20.375 15C20.375 12.312 18.188 10.125 15.5 10.125ZM15.5 10.875C17.7822 10.875 19.625 12.7178 19.625 15C19.625 17.2822 17.7822 19.125 15.5 19.125C13.2178 19.125 11.375 17.2822 11.375 15C11.375 12.7178 13.2178 10.875 15.5 10.875ZM15.125 13.125V14.625H13.625V15.375H15.125V16.875H15.875V15.375H17.375V14.625H15.875V13.125H15.125Z" fill="white"/>
</svg>
