<svg width="50" height="50" viewBox="0 0 50 50" fill="none" xmlns="http://www.w3.org/2000/svg">
<circle cx="25" cy="25" r="25" fill="#E5EBF0"/>
<circle cx="25" cy="25" r="16" fill="#001D3D"/>
<g clip-path="url(#clip0_149_12173)">
<path d="M22.2916 17.083C20.1053 17.083 18.3333 18.8551 18.3333 21.0413V29.1077C18.3333 29.6648 18.6117 30.1853 19.0754 30.4945L19.5833 30.833V21.0413C19.5833 19.5455 20.7958 18.333 22.2916 18.333H29.5833L29.2447 17.8252C28.936 17.3614 28.4155 17.083 27.858 17.083H22.2916ZM22.7083 19.1663C21.45 19.1663 20.4166 20.1998 20.4166 21.458V30.6247C20.4166 31.8829 21.45 32.9163 22.7083 32.9163H29.3749C30.6332 32.9163 31.6666 31.8829 31.6666 30.6247V21.458C31.6666 20.1998 30.6332 19.1663 29.3749 19.1663H22.7083ZM22.7083 20.4163H29.3749C29.9575 20.4163 30.4166 20.8754 30.4166 21.458V30.6247C30.4166 31.2073 29.9575 31.6663 29.3749 31.6663H22.7083C22.1257 31.6663 21.6666 31.2073 21.6666 30.6247V21.458C21.6666 20.8754 22.1257 20.4163 22.7083 20.4163ZM23.9583 22.9163C23.8754 22.9152 23.7932 22.9305 23.7164 22.9614C23.6395 22.9922 23.5695 23.0381 23.5106 23.0962C23.4516 23.1544 23.4047 23.2237 23.3728 23.3001C23.3408 23.3765 23.3243 23.4585 23.3243 23.5413C23.3243 23.6242 23.3408 23.7062 23.3728 23.7826C23.4047 23.859 23.4516 23.9283 23.5106 23.9864C23.5695 24.0446 23.6395 24.0904 23.7164 24.1213C23.7932 24.1522 23.8754 24.1675 23.9583 24.1663H28.1249C28.2077 24.1675 28.29 24.1522 28.3668 24.1213C28.4437 24.0904 28.5136 24.0446 28.5726 23.9864C28.6316 23.9283 28.6784 23.859 28.7104 23.7826C28.7424 23.7062 28.7588 23.6242 28.7588 23.5413C28.7588 23.4585 28.7424 23.3765 28.7104 23.3001C28.6784 23.2237 28.6316 23.1544 28.5726 23.0962C28.5136 23.0381 28.4437 22.9922 28.3668 22.9614C28.29 22.9305 28.2077 22.9152 28.1249 22.9163H23.9583ZM23.9583 25.4163C23.8754 25.4152 23.7932 25.4305 23.7164 25.4614C23.6395 25.4922 23.5695 25.5381 23.5106 25.5962C23.4516 25.6544 23.4047 25.7237 23.3728 25.8001C23.3408 25.8765 23.3243 25.9585 23.3243 26.0413C23.3243 26.1242 23.3408 26.2062 23.3728 26.2826C23.4047 26.359 23.4516 26.4283 23.5106 26.4864C23.5695 26.5446 23.6395 26.5904 23.7164 26.6213C23.7932 26.6522 23.8754 26.6675 23.9583 26.6663H28.1249C28.2077 26.6675 28.29 26.6522 28.3668 26.6213C28.4437 26.5904 28.5136 26.5446 28.5726 26.4864C28.6316 26.4283 28.6784 26.359 28.7104 26.2826C28.7424 26.2062 28.7588 26.1242 28.7588 26.0413C28.7588 25.9585 28.7424 25.8765 28.7104 25.8001C28.6784 25.7237 28.6316 25.6544 28.5726 25.5962C28.5136 25.5381 28.4437 25.4922 28.3668 25.4614C28.29 25.4305 28.2077 25.4152 28.1249 25.4163H23.9583ZM23.9583 27.9163C23.8754 27.9152 23.7932 27.9305 23.7164 27.9614C23.6395 27.9922 23.5695 28.0381 23.5106 28.0962C23.4516 28.1544 23.4047 28.2237 23.3728 28.3001C23.3408 28.3765 23.3243 28.4585 23.3243 28.5413C23.3243 28.6242 23.3408 28.7062 23.3728 28.7826C23.4047 28.859 23.4516 28.9283 23.5106 28.9864C23.5695 29.0446 23.6395 29.0904 23.7164 29.1213C23.7932 29.1522 23.8754 29.1675 23.9583 29.1663H28.1249C28.2077 29.1675 28.29 29.1522 28.3668 29.1213C28.4437 29.0904 28.5136 29.0446 28.5726 28.9864C28.6316 28.9283 28.6784 28.859 28.7104 28.7826C28.7424 28.7062 28.7588 28.6242 28.7588 28.5413C28.7588 28.4585 28.7424 28.3765 28.7104 28.3001C28.6784 28.2237 28.6316 28.1544 28.5726 28.0962C28.5136 28.0381 28.4437 27.9922 28.3668 27.9614C28.29 27.9305 28.2077 27.9152 28.1249 27.9163H23.9583Z" fill="white"/>
</g>
<defs>
<clipPath id="clip0_149_12173">
<rect width="20" height="20" fill="white" transform="translate(15 15)"/>
</clipPath>
</defs>
</svg>
